<svg xmlns="http://www.w3.org/2000/svg" fill="none" viewBox="0 0 200 200" height="700" width="700"><path fill="#def6f8" d="M145.641 169.365c.042-3.823 0-7.646-.021-11.475-.043-6.435.485-13.053-.184-19.473-.443-4.239-2.288-8.047-2.358-12.37-.2-11.834 1.83-23.246-.7-35.03-1.211-5.619-3.309-11.787-7.948-15.729-5.184-4.39-8.643-3.979-10.573-4.2a9.623 9.623 0 00-3.487-3.252 37.89 37.89 0 00-3.97-1.81c-.1-.042-1.908-.823-1.908-.866l-.767.021c.331 1.43 1.147 2.732 1.612 4.126 1.049 3.154 2.1 8.941.584 12.13a1.262 1.262 0 01-1.049.8c.076 1.445 5.012 12.23 2.577 37.185-.3 3.021-.655 6.041-1.246 9.012-.092.486-.247 2.4-.824 2.633-1.148.439-1.542-9.373-12.9-34.194-.141-.31-.338-1.218-.437-1.063l-.169-.078c-.91 1.864-.724 1.448-1.344 2.69-2.6 5.139-3.563 11.412-7.3 15.221l.451.352a10.57 10.57 0 01-.12 7.251c-.5 1.239-1.331 2.3-1.943 3.478-.993 1.9-1.479 4.041-2.69 5.829-2.619 3.865-7.73 5.752-12.207 6.132a16.73 16.73 0 01-10.539-2.8c.176 1.535.45 4.393.655 5.928.577 4.287 1.626 8.835 1.351 13.172-.133 2.154-1.45 3.815-1.725 5.892-.324 2.443.219 4.935-.1 7.413-.556 4.408-1.838 8.709-2.471 13.116-.507 3.485-1.64 8.934.429 12.152 1.056 1.633 5.5 3.153 6.829 1.091 1.007-1.563.993-3.915 1.429-5.682.106-.422.711-3.548 1.486-3.358.647.155.633 2.161.683 2.626.232 2.168.1 5.308 2.527 6.266 4.09 1.612 9.314 1.274 13.623 1.633 10.623.887 21.261 1.465 31.835-.253a41.615 41.615 0 0011.368-3.241c3.826-1.825 5.312-3.511 4.294-9.56-.15-.91-.449-2.414-.634-3.317a26.818 26.818 0 006.442-1.013c.39-.125.742-.348 1.021-.648 1.122-1.436.397-5.118.418-6.737zm-28.435-14.784a2.462 2.462 0 01-1.742-4.206 2.456 2.456 0 011.261-.674 2.464 2.464 0 11.481 4.88z"/><path fill="#00bac7" d="M182 114.016s-17.4.007-17.516.014a4.716 4.716 0 00-4.379 4.709v9.983c0 .62.122 1.234.359 1.808a4.736 4.736 0 002.557 2.556c.573.238 1.188.36 1.808.36H182a4.727 4.727 0 004.731-4.724v-9.983a4.725 4.725 0 00-2.921-4.366 4.722 4.722 0 00-1.81-.357zm-8.1 5.528a2.27 2.27 0 012.374 2.166 2.313 2.313 0 01-1.38 2.2h-.014v3.182h-1.654v-3.14a2.274 2.274 0 01-.742-3.826 2.268 2.268 0 011.416-.579v-.003z"/><path fill="#def6f8" d="M179.525 48.55v13.377a4.71 4.71 0 01-4.7 4.723h-21.271a4.72 4.72 0 01-4.369-2.908 4.73 4.73 0 01-.362-1.807V48.55a4.735 4.735 0 014.731-4.723c22.713-.01 21.332-.011 21.669.02a4.73 4.73 0 014.302 4.703zm-12.053 4.315a2.62 2.62 0 00-4.502-1.773 2.62 2.62 0 00-.734 1.864 2.687 2.687 0 001.723 2.542v3.683h1.908v-3.738a2.74 2.74 0 001.605-2.578z"/><path fill="#0e2238" d="M173.231 123.948a2.287 2.287 0 01-1.475-2.515 2.289 2.289 0 012.198-1.917 2.284 2.284 0 01.945 4.39h-.014v3.182h-1.654v-3.14z"/><path fill="#00bac7" d="M165.867 55.442v3.738h-1.908V55.5a2.708 2.708 0 01-.62-4.699 2.666 2.666 0 011.416-.513 2.643 2.643 0 012.717 2.583 2.73 2.73 0 01-1.605 2.571zM183 109.535c0 4.968.013 4.418-.028 4.579-.785-.12-1.58-.154-2.372-.1v-4.2a6.828 6.828 0 00-6.843-6.74 6.83 6.83 0 00-6.822 6.761v4.182c-2.383 0-2.14-.005-2.443.014v-4.492a9.254 9.254 0 0118.508 0v-.004zm-.483 46.91c-.4.125-2.306.534-2.478.571-1.486.3-3.478 1-5.006.69-.732-.148-1.218-.93-1.957-.979-.767-.056-1.38.683-2.154.472-1.465-.395-2.542-1.387-4.161-1.317-3.661.148-5.484 3.717-4.344 6.977 1.021 2.943 4.474 5.4 7.4 3.421a7.99 7.99 0 001.993-2.041c.245-.344.528-.866.936-1.035.648-.268.929 1.535 1.76.887.556-.437.613-1.443.7-2.091.05-.351.049-.852.387-.964.479-.106 1.317 1.161 1.873 1.217.979.106.76-1.612 1.485-1.809.683-.176 1.169 1.45 2 1.007.647-.345.306-1.372.838-1.788.6-.473 1.243-.147 2.611-.732 1.665-1.085.792-2.795-1.883-2.486zm-16.228 6.1a1.363 1.363 0 01-2.082.274 1.363 1.363 0 01.128-2.096 1.359 1.359 0 011.954 1.819v.003zM153.878 38.378a10.67 10.67 0 0110.672-10.776 10.676 10.676 0 019.89 6.66c.531 1.307.797 2.706.783 4.116v5.47c-.318-.032-.351-.021-2.774-.021v-6.111a6.76 6.76 0 00-6.758-6.76h-2.225a6.779 6.779 0 00-6.772 6.78v6.09h-2.816v-5.448zm-6.597-13.773c-.317-.35-1.477-1.9-1.753-2.28-1.014-1.38-2.689-3.127-3.049-4.774-.161-.789.465-1.57.191-2.323-.3-.8-1.38-1.14-1.507-1.993-.232-1.619.366-3.062-.443-4.674-1.831-3.619-6.6-4.126-9.66-1.782-2.759 2.12-3.887 6.5-.38 8.7a9.946 9.946 0 003.161 1.246 3.734 3.734 0 011.556.556c.585.55-1.267 1.5-.176 2.091a4.216 4.216 0 002.619-.063c2.621-.512.451 1.451.753 2.358.249.771 1.317.481 2.067.567.607.07.854.381.593.976-.247.56-.775 1.207-.189 1.661.89.685 2.043-.706 3 .8a6.55 6.55 0 001.344 1.74c1.95 1.277 3.443-.236 1.873-2.806zm-12.229-15.2a1.638 1.638 0 01-3.2-.6 1.638 1.638 0 013.2.6z"/><path fill="#fff" d="M138.389 181.08l.219-.035c1.323.267 3.667.154 4.822-.775l.035.035a8.465 8.465 0 01-5.5 7.618l-.127-.092c1.17-1.847.914-4.599.551-6.751z"/><path fill="#00bac7" d="M143.705 180.01a1.991 1.991 0 01-.275.26c-1.468 1.163-4.05.84-5.041.81-.19-1.148-.436-2.282-.634-3.317a26.868 26.868 0 006.442-1.013 4.73 4.73 0 01-.492 3.26zm-7.984-64.311c.021 1 .021 2.007 0 3.006l-.3-.007a12.884 12.884 0 01-6.068.761c-1.381-.163-2.46-.843-2.323-2.415.065-.753.958-.643 1.647-.655a42.246 42.246 0 004.794-.352c.155-.02 1.774-.127 1.831-.331l.419-.007zm-18.515 33.953a2.463 2.463 0 11-.002 4.927 2.463 2.463 0 01.002-4.927z"/><path fill="#fff" d="M115.453 34.982a4.28 4.28 0 01-1.7 3.7c.007-.873.014-1.746.042-2.619a4.145 4.145 0 011.658-1.08z"/><path fill="#0e2238" d="M114.087 32.3a4.346 4.346 0 011.366 2.683c-.63.22-1.197.59-1.653 1.078.024-1.293.145-2.404.287-3.76z"/><path fill="#fff" d="M117.91 35.245c-.021-.021-.05-.042-.071-.064a2.546 2.546 0 00-2.386-.2 4.28 4.28 0 01-1.7 3.7c.02 2.387-.206 4.77-.676 7.11l.2.043c5.923-1.38 7.075-8.524 4.633-10.59z"/><path fill="#0e2238" d="M117.769 109.4a122.182 122.182 0 00-7.512-20.254c-1.607-2.97-1.336-2.306-.549-4.57.338-.957.718-3.913-.071-5.47l.219-.211c-1.988-2.07-3.363-3.88-5-3.773a4.49 4.49 0 00-2.577 1.718 21.921 21.921 0 00-1.506 1.816l.084.064a16.815 16.815 0 001.951 6.138c.718 1.26 1.871 2.01 2.2 3.464.525 2.557-.647 6.145.232 14.524l-.091.042a196.218 196.218 0 019.272 26.218c.063.239.486 2.154.964 1.971.577-.232.732-2.147.824-2.633a128.65 128.65 0 001.88-19.037l-.32-.007z"/><path fill="#def6f8" d="M96.353 84.756c.042-.063.09.324.141.465.213.59 1.2 2.823 1.633 3.773l.479.2a17.666 17.666 0 00-1.746 2.471 10.373 10.373 0 01-3.46 3.588c-.247-.219-.282-1.429-.324-1.662a94.286 94.286 0 01-1.316-11.215l.105-.007c.648.86 2.239 2.517 3.443 2.471.201-.008.4-.053.584-.133l.461.05zM93.685 114a10.46 10.46 0 01-.12 7.251 37.966 37.966 0 01-1.943 3.478c-.992 1.9-1.478 4.041-2.69 5.829-2.618 3.865-7.727 5.779-12.207 6.132a16.703 16.703 0 01-10.54-2.8c-6.037-4.011-11.7-11.29-13.375-18.466-.912-3.9-.526-7.84-.824-11.793-.558-7.385-3.418-12.222-1.134-17.438a7.794 7.794 0 013.7-3.893l.373-.042c.556 5.477 2.9 7.287 4.885 11.764 2.75 6.2 3.675 19.987 10.913 23.746l-.028.479c.383.841.823 1.655 1.316 2.436a8.312 8.312 0 006.174 3.407c5.154.591 10.405-3.682 12.39-8.159l-.133-.24a10.783 10.783 0 002.8-2.048l.443.357z"/><path fill="#fff" d="M87.3 116.768a41.957 41.957 0 01-5.5.324l-.211-.373a13.668 13.668 0 01-6.3 2c-11.516.6-12.288-17.5-15.482-24.688-1.987-4.478-4.33-6.288-4.885-11.765a2 2 0 012.464-2.309c.435.08.85.243 1.225.479 2.636 1.64 3.015 4.762 4.73 7.2.253.36 2.192 3.127 2.852 2.154.763-1.125-.2-3.52-.584-4.619-1.476-4.248-3.595-8.2-5.168-12.418-.662-1.773-2.09-4.757-.042-6.168 3.973-2.734 5.863 3.153 6.984 6.175.374 1.008 1.6 3.984 2.724 6.35.409.86 1.74 4.522 3.2 4.1 1.719-.5.4-5.278.219-6.28-.426-2.293-1.963-10.56-2.24-12.41-.251-1.69-.676-4.028.796-5.316 2.569-2.248 4.52 1.02 5.027 3.2 1.162 5 1.419 8.85 3.056 14.446.376 1.287 1.077 3.99 2.73 4.252 1.635.258 2.175-2.166 2.36-3.296.776-4.745.075-6.97.774-11.706a5.671 5.671 0 011.218-2.718 1.738 1.738 0 012.417-.44c1.537 1.063 1.653 3.5 1.68 5.48.127 9.293.235 16.945 1.725 25.169.042.233.077 1.443.324 1.662a10.374 10.374 0 003.464-3.591 18.038 18.038 0 011.746-2.472 3.314 3.314 0 013.189-1.118c3.118.6 1.164 5.413.084 7.665-.145.3-1.019 2.044-1.344 2.69-3.551 7.061-4.127 16.59-13.232 18.341z"/><path fill="#fff" d="M114.831 82.237a1.214 1.214 0 001.093-.8c1.521-3.19.465-8.977-.584-12.13-.581-1.743-1.672-3.273-1.753-5.14-.108-2.724-.179-4.49-3.724-4.977A60.683 60.683 0 00110 66c-2.359 3.534-5.531 7.62-9.934 6.956a11.42 11.42 0 01-4.309-1.635 21.219 21.219 0 01-3.9-2.9l-.507.007c.084 4.172.17 9.814.41 13.954l.104-.008c.648.86 2.24 2.508 3.443 2.472a1.42 1.42 0 00.91-.353c.451 1.163 1 2.5 1.913 4.507l.48.2a3.275 3.275 0 013.188-1.12c3.126.564 1.147 5.407.084 7.666l.169.079c.1-.156.3.752.437 1.063.7 1.54 1.428 3.06 2.661 6.004l.091-.042c-1.042-9.93.813-13.335-.725-15.691-.514-.8-1.246-1.494-1.7-2.3a18.744 18.744 0 01-1.965-6.286c.449-.602.928-1.18 1.436-1.732a4.492 4.492 0 012.577-1.718c1.614-.106 2.907 1.59 4.975 3.748l-.195.237c.789 1.555.409 4.511.071 5.47a4.992 4.992 0 00-.613 2.005 7.244 7.244 0 001.162 2.564 122.203 122.203 0 017.512 20.253l.317.007c.45-17.346-3.003-25.84-3.261-27.17z"/><path fill="#fff" d="M86.5 58.068a19.187 19.187 0 008.244 4.68c1.333.338 2.716.434 4.083.283 5.245-.532 8.863-4 11.222-8.428l.105.056A67.208 67.208 0 00110 66c-4.122 6.177-7.879 9.142-14.243 5.323a22.76 22.76 0 01-3.9-2.9l-.507.007c-.014-1.957-.176-4.338-1.506-5.345a1.74 1.74 0 00-2.59.3c-.36-.617-.086.279-.663-3.934a11.43 11.43 0 01-.2-1.177.158.158 0 01.021-.1l.088-.105z"/><path fill="#fff" d="M86.588 59.447c.577 4.214.3 3.319.662 3.935a5.672 5.672 0 00-1.218 2.718 38.897 38.897 0 00-.359 6.026l-.521-.008c-2.028-3.125-2.693-5.641-1.971-8.912.227-1.032 1.421-5.15 2.414-4.943l.8.008c.043.395.107.788.193 1.176z"/><path fill="#def6f8" d="M83.138 63.2l.043.006c-.711 3.274-.057 5.787 1.971 8.913l.521.007a34.065 34.065 0 01-.415 5.681c-.185 1.13-.725 3.554-2.359 3.295-1.654-.262-2.355-2.965-2.731-4.252a79.913 79.913 0 01-2.2-10.236 22.97 22.97 0 003.513-2.267c.086-.067 1.546-1.148 1.657-1.148z"/><path fill="#fff" d="M112.644 22.3c-2.176-2.732-7.618-.936-10.49-.74-5.872.423-14.3.043-20.417-2.132-.042.138-3.888 5.456-2.485 15.087.955 6.549.4 7.8.444 10.722-.022 4.73 3.28 9.634 6.808 12.834a19.187 19.187 0 008.244 4.68 11.46 11.46 0 004.083.283c5.245-.528 8.863-4 11.222-8.427 4.33-8.363 3.563-15.83 3.787-19.593.233-4.023 1.543-9.261-1.196-12.714z"/><path fill="#fff" d="M79.7 45.235h-.127c-3.33-.79-8.43-4.478-5.766-8.294a3.222 3.222 0 013.505-1.387c.795.189 1.57.454 2.313.792.305 2.954.33 5.93.075 8.889z"/><path fill="#0e2238" d="M81.737 19.424a20.473 20.473 0 00-2.7 9.863 32.452 32.452 0 00.477 6.992 11.995 11.995 0 00-3.571-.74v-.38c-1.605-1.3-2.438-4.47-2.773-6.336-.746-4.152.615-7.1 2.076-10.829 1.306-3.323 2.259-6.19 5.238-8.475 7.5-5.756 17.418-5.255 26-2.7 4.246 1.266 8.433 3.1 10.723 7.116 3.39 5.952 2.464 14.911.753 21.247l-.049.057c-.022-.02-.05-.041-.071-.063a2.547 2.547 0 00-2.386-.2 4.351 4.351 0 00-1.366-2.682c.366-3.45.714-7.29-1.443-10-2.173-2.735-7.618-.942-10.49-.74-5.873.417-14.3.046-20.418-2.13z"/><path fill="#def6f8" d="M72.233 70.043c.423 2.295.87 4.592 1.3 6.885.185 1 1.5 5.782-.219 6.28-1.463.424-2.794-3.238-3.2-4.1-1.137-2.392-2.41-5.5-2.724-6.35l.2-.071c4.97-2.787 3.986-2.52 4.643-2.644z"/><path fill="#00bac7" d="M70.72 117.774a10.324 10.324 0 008.28.169 20.32 20.32 0 002.59-1.225l.211.373a42.132 42.132 0 005.5-.324 12.03 12.03 0 003.14-1.07l.134.24c-1.986 4.477-7.237 8.75-12.39 8.159a8.3 8.3 0 01-6.175-3.407 20.374 20.374 0 01-1.316-2.436l.026-.479z"/><path fill="#def6f8" d="M60.54 77.408c.184-.118 1.218-.55 1.3-.8l.16-.06c1.246 2.859 2.587 5.674 3.612 8.625.38 1.1 1.347 3.494.584 4.619-.66.973-2.6-1.8-2.851-2.155-1.716-2.44-2.095-5.561-4.731-7.2a3.486 3.486 0 00-1.225-.478l.02-.12a21.748 21.748 0 013.13-2.431z"/><path fill="#00bac7" d="M56.2 32.505v20.621a4.73 4.73 0 01-4.724 4.724h-30.65a4.73 4.73 0 01-4.726-4.724v-20.62a4.726 4.726 0 014.724-4.725h30.648a4.723 4.723 0 014.728 4.724zM38.367 43.08a3.593 3.593 0 002.087-3.393 3.481 3.481 0 00-3.527-3.4 3.566 3.566 0 00-1.063 6.872v4.85h2.5l.003-4.929z"/><path fill="#00bac7" d="M50.57 27.78h-3.61v-10.2a6.758 6.758 0 00-6.76-6.759h-7.045a6.772 6.772 0 00-6.773 6.772V27.78h-3.69V17.333A10.806 10.806 0 0133.5 6.533h6.272a10.79 10.79 0 0110.8 10.786L50.57 27.78z"/><path fill="#0e2238" d="M40.454 39.686a3.59 3.59 0 01-2.087 3.393v4.928h-2.5v-4.85a3.567 3.567 0 011.042-6.871 3.479 3.479 0 013.545 3.4z"/><path fill="#00bac7" d="M34.491 162.621a2.12 2.12 0 01-1.457-1.922 2.16 2.16 0 012.118-2.218h.022a2.173 2.173 0 011.585.542 2.182 2.182 0 01.731 1.507 2.119 2.119 0 01-1.358 2.048h-.014v2.971h-1.627v-2.928zm7.237-9.272v-3.534a6.714 6.714 0 00-4.151-6.192 6.714 6.714 0 00-5.135.008 6.702 6.702 0 00-3.625 3.637 6.706 6.706 0 00-.507 2.568v3.513c-2.07 0-2.115-.008-2.408.021v-3.753a9.091 9.091 0 0115.489-6.368 9.091 9.091 0 012.696 6.368c0 4.116.015 3.663-.035 3.844a9.375 9.375 0 00-2.324-.112z"/><path fill="#def6f8" d="M43.03 153.35c-17.937.044-16.815-.01-17.128.021a4.7 4.7 0 00-4.294 4.7v8.687a4.72 4.72 0 002.915 4.366 4.72 4.72 0 001.809.358h16.7a4.718 4.718 0 004.724-4.724v-8.687a4.72 4.72 0 00-4.725-4.721zm-6.9 9.229h-.013v2.971H34.49v-2.928a2.13 2.13 0 01-1.457-2.032 2.234 2.234 0 013.735-1.533c.418.382.676.908.72 1.474a2.114 2.114 0 01-1.357 2.048h-.001z"/><path fill="#00bac7" d="M34.484 93.614c-3.069-2.486-8.42-2.815-10.229 1.3a9.588 9.588 0 00-.76 3.561 3.72 3.72 0 01-.317 1.754c-.514.725-2.021-1.043-2.478.218-.457 1.26 1.074 3.1 1 3.811-.1.914-2.21-.177-2.942.181-1.113.556.274 2.26-.381 2.964-.605.655-2.224-.782-2.816.267-.457.81.578 1.683.3 2.5-.427 1.032-1.854 1.558-2.316 2.555-1.056 2.3 1.021 3.57 3.682 1.422.225-.264.468-.512.718-.753 3.2-3.1 4.581-4.963 6.463-5.674.88-.331 1.929.183 2.753-.261.858-.464 1.027-1.675 1.992-1.971 1.837-.563 3.654-.218 5.35-1.38 3.825-2.637 3.382-7.734-.019-10.495zm-.45 2.974a1.743 1.743 0 11-3.486-.012 1.743 1.743 0 013.486.012z"/><path fill="#0e2238" d="M115.949 34.924c-.435-3.695-4.969-5.567-8.719-5.567-4.189 0-7.71 2.023-8.546 4.743a4.35 4.35 0 00-5.308.135 5.98 5.98 0 00-2.162-2.242c-3.674-2.248-9.014-2.23-12.425 1.091a4.775 4.775 0 00.8 7.457C85.314 44.668 94 41.533 94 36.453a4.45 4.45 0 00-.193-1.215 3.234 3.234 0 014.687.022c-.1 5.216 9.539 8.51 15.573 3.814a4.76 4.76 0 001.882-4.15zm-35.787 4.8a4.128 4.128 0 01-1.818-3.268 3.9 3.9 0 011.14-2.652c4.55-4.472 13.5-1.918 13.511 2.65.005 4.26-7.78 6.91-12.833 3.27zm33.287-1.44a9.854 9.854 0 01-6.219 2.027c-3.648-.057-7.978-1.929-7.732-5.233.38-4.692 9.909-6.584 14.249-2.41a3.574 3.574 0 01.777 4.425 3.57 3.57 0 01-1.077 1.191h.002z"/><path fill="#0e2238" d="M85.917 37.653a.498.498 0 00.707-.013l4.69-4.871a.501.501 0 00-.72-.694l-4.694 4.87a.497.497 0 00-.095.548c.026.06.064.115.112.16zm2.954-6.403a.5.5 0 00-.707.015l-4.689 4.87a.5.5 0 10.721.694l4.689-4.871a.5.5 0 00-.014-.707zm2.536 10.81a2.113 2.113 0 00.757 3.1c.656.18 1.325.306 2 .379.755.239.91 1.053 2.7 1.053a4.62 4.62 0 004.077-2.45.497.497 0 00-.588-.699.5.5 0 00-.295.23 3.573 3.573 0 01-3.987 1.83c-.5-.128-.865-.69-1.693-.937a15.56 15.56 0 01-1.813-.327c-.49-.268-.724-.862-.28-1.687.777-1.227-.285-1.445-.878-.491zm11.605 8.817a38.97 38.97 0 00-10.52.256.5.5 0 10.16.986 38.035 38.035 0 0110.248-.248.502.502 0 00.446-.81.5.5 0 00-.335-.184h.001zM99.75 53.54a19.227 19.227 0 00-3.71-.161.505.505 0 00-.5.5.5.5 0 00.5.5 18.576 18.576 0 013.569.149.5.5 0 10.149-.988h-.008zm10.22-23.527a.497.497 0 00-.707.013l-4.689 4.875a.503.503 0 00.013.708.501.501 0 00.708-.014l4.689-4.879a.499.499 0 00-.014-.703zm-3.214 6.233a.496.496 0 00.707-.014l4.689-4.872a.5.5 0 10-.72-.693l-4.689 4.872a.492.492 0 00-.14.356.499.499 0 00.153.35zM34.527 96.585a2.238 2.238 0 10-4.477 0 2.238 2.238 0 004.477 0zm-3.478 0a1.239 1.239 0 112.478 0 1.239 1.239 0 01-2.478 0zm-5.639 7.051a.495.495 0 00-.348-.159.487.487 0 00-.36.133l-9.9 9.2a.505.505 0 00-.124.55.504.504 0 00.466.316c.293 0-.411.58 10.239-9.335a.498.498 0 00.027-.705zm15.544-63.984a3.962 3.962 0 00-4.086-3.865 4.054 4.054 0 00-1.5 7.67v4.55a.5.5 0 00.5.5h2.492a.5.5 0 00.5-.5c0-4.69.018-4.52 0-4.62a4.037 4.037 0 002.094-3.735zm-2.784 2.971c-.286.13-.314.434-.314.78v4.104h-1.492V43.4c0-.326-.01-.589-.315-.71a3.071 3.071 0 01-1.717-3.985 2.881 2.881 0 014.7-1.1 3.1 3.1 0 01-.862 5.02zm-18.457 11.44h32.33a.482.482 0 00.5-.478.518.518 0 00-.5-.522h-32.33a.482.482 0 00-.5.478.518.518 0 00.5.522zm2.979-25.803a.5.5 0 00.5-.5V17.332A10.318 10.318 0 0133.5 7.033h6.288a10.3 10.3 0 0110.286 10.3V27.76a.5.5 0 101 0V17.333a11.308 11.308 0 00-11.3-11.3H33.5a11.319 11.319 0 00-11.3 11.3V27.76a.5.5 0 00.492.5z"/><path fill="#0e2238" d="M46.96 28.188a.5.5 0 00.5-.5V17.58a7.267 7.267 0 00-7.26-7.259h-7.046a7.283 7.283 0 00-7.273 7.28v10.088a.5.5 0 001 0V17.593a6.28 6.28 0 016.273-6.273H40.2a6.266 6.266 0 016.258 6.26v10.108a.5.5 0 00.501.5zM163.959 59.68h1.908a.5.5 0 00.5-.5v-3.435a3.13 3.13 0 001.52-3.554 3.135 3.135 0 00-5.007-1.621 3.13 3.13 0 00-.852 3.77 3.137 3.137 0 001.431 1.46v3.38a.503.503 0 00.5.5zm-1.066-7.5a2.173 2.173 0 011.875-1.4 2.142 2.142 0 011.544.591 2.134 2.134 0 01.661 1.516 2.173 2.173 0 01-1.21 2.043.535.535 0 00-.4.51v3.24h-.908v-3.31a.49.49 0 00-.377-.48.488.488 0 00-.218 0 2.2 2.2 0 01-.967-2.714v.005zm13.45 11.72a.491.491 0 00.355-.844.513.513 0 00-.355-.155h-24.754a.491.491 0 00-.461.296.49.49 0 00-.039.188.517.517 0 00.5.516h24.754zm-22.466-19.59a.501.501 0 00.5-.5v-5.434a10.173 10.173 0 0120.346 0v5.434a.503.503 0 00.5.5.501.501 0 00.5-.5v-5.434a11.17 11.17 0 00-11.173-11.173 11.176 11.176 0 00-11.173 11.173v5.434a.503.503 0 00.5.5z"/><path fill="#0e2238" d="M172.449 44.264a.5.5 0 00.5-.5v-6.048a7.265 7.265 0 00-7.258-7.259h-2.225a7.285 7.285 0 00-7.272 7.28v6.027a.5.5 0 001 0v-6.027a6.287 6.287 0 016.272-6.28h2.225a6.266 6.266 0 016.258 6.259v6.048a.5.5 0 00.5.5zm-59.32 113.949c.113-7.976 2.347-18.414 2.416-21.836a.545.545 0 00-.043-.55.547.547 0 00-.497-.237c-.6.089-.414.81-.48 1.319-.591 5.861-2.293 14.047-2.4 21.29a.499.499 0 101 .014h.004zm1.363 12.938c-.628-5.21-.561-4.722-.6-4.869a.517.517 0 00-.849-.5.71.71 0 00-.112.777c1.151 9.575 2.3 18.2 1.962 25.919a.506.506 0 00.131.36.486.486 0 00.347.163.491.491 0 00.36-.131.494.494 0 00.162-.347c.301-6.77-.52-14.052-1.401-21.372zm30.36 4.611c-1.006 1.08-5.225 1.342-6.688 1.442-.052-.277-.106-.561-.146-.815-.6-3.958-1.747-7.923-2.116-11.872-.248-2.569.4-5.126-.156-7.765-.428-2.028-2.19-3.733-2.489-5.561-.3-1.8.544-3.818.907-5.7.929-5.068.755-6.606 1.435-15.655.621-8.269 1.2-15.865-.365-24a.501.501 0 00-.983.188c1.538 8.009.967 15.531.351 23.734-.683 9.072-.5 10.537-1.42 15.545-.364 1.886-1.25 3.99-.912 6.046.352 2.156 2.09 3.676 2.5 5.599.5 2.4-.106 5.1.139 7.653.376 4.025 1.529 7.984 2.123 11.93.506 3.258 1.9 7.62.669 10.5-.472 1.1-.059 1.513.42 1.364a8.923 8.923 0 005.839-7.934 3.598 3.598 0 00.8-2.482c.013-.444-.008-.772.018-.954.303-.147.577-.345.812-.586a.508.508 0 00.141-.361.513.513 0 00-.159-.354.506.506 0 00-.556-.085.499.499 0 00-.158.119l-.006.004zm-1.525 3.922c-.85.977-3.232 1.117-4.526.886-.109-.619-.415-2.195-.451-2.377a28.14 28.14 0 005.41-.769c.095.78-.056 1.57-.433 2.26zm-4.572 7.352c.5-1.769.576-3.631.222-5.434a7.931 7.931 0 003.93-.454 8.126 8.126 0 01-4.152 5.888zM106.993 86.182c-.8.087-2.234.4-2.352.426a.5.5 0 00.118.979c.1-.018.139-.008.343-.053.6-.131 1.359-.288 2-.358a.504.504 0 00.434-.356.501.501 0 00-.542-.638h-.001zm18.695 29.685a.51.51 0 00-.548.095.51.51 0 00-.112.159 56.143 56.143 0 01-5.792 10.076.501.501 0 10.811.586 57.271 57.271 0 005.895-10.256.497.497 0 00-.254-.66z"/><path fill="#0e2238" d="M116.375 81.656c1.677-3.515.367-9.717-.561-12.5-.4-1.192-1.06-2.357-1.428-3.477.945.51 3.206 1.263 5.753 2.606a9.598 9.598 0 013.338 3.026c.39.56 1.208 0 .765-.628a10.216 10.216 0 00-3.636-3.282 38.634 38.634 0 00-4.006-1.83c-.393-.169-1.579-.688-1.806-.807a.506.506 0 00-.614.06c-.379-2.052.676-5.015-3.8-6.12.088-2.71.317-3.855.254-4.169a32.247 32.247 0 002.841-8.24 8.009 8.009 0 006.12-7.389 5.3 5.3 0 00-1.107-3.78c.907-3.426 3.258-14.229-.852-21.433-2.455-4.312-6.945-6.135-11.014-7.349-7.493-2.233-18.167-3.564-26.442 2.78-3.2 2.46-4.142 5.5-5.722 9.508-1.331 3.38-2.489 6.3-1.78 10.28.315 1.738 1.071 4.742 2.62 6.306a4.188 4.188 0 00-2.431 5.448c.935 2.421 3.914 4.333 6.348 4.983.139 4.467 3.024 8.956 6.247 12.1-.58.023-1.35.662-2.363 3.837-1.353 4.221-.723 7.167 1.633 10.8a.5.5 0 00.422.226c-.017 2.037-.189 8.313-2.177 7.99-1.218-.19-1.879-2.4-2.235-3.587-1.658-5.51-2.031-9.945-3.143-14.73-.766-3.3-3.265-5.718-5.843-3.467-1.62 1.418-1.257 3.815-.991 5.566.686 4.524 2.36 13.041 2.383 13.144.9 4.036.509 5.052.024 5.193-.933.292-2.277-3.125-2.613-3.833-.84-1.764-2.116-4.7-2.894-6.812-.907-2.464-2.147-5.84-4.437-6.567a3.489 3.489 0 00-3.112.658c-2.239 1.538-1.035 4.4-.143 6.755 1.794 4.734 3.38 7.39 5.277 12.73.35.985 1.08 3.034.575 3.837-.145 0-.834-.39-2.074-2.146-1.676-2.392-2.068-5.634-4.871-7.337a3.81 3.81 0 00-1.367-.54 2.478 2.478 0 00-3.113 2.373.437.437 0 00-.071.018A8.194 8.194 0 0050.4 86c-1.541 3.426-.775 7.126-.157 10.115 2.282 9.461.659 13.318 2.084 19.435 1.762 7.508 7.6 14.835 13.584 18.766 8.363 5.615 19.5 2.348 23.44-3.471 1.261-1.863 1.732-3.989 2.718-5.879a39.21 39.21 0 001.967-3.528c.936-2.439.98-5.131.125-7.6a.484.484 0 00-.2-.248 24.216 24.216 0 004.206-7.889.473.473 0 00.117.06 2.018 2.018 0 011.392 1.362c.434 1.887-1.826 3.752-1.008 6.212.663 2 2.331 3.78 3.8 5.351 3.551 3.785 6.015 7.813 9.575 11.832a.502.502 0 00.706.043.502.502 0 00.043-.706c-2.856-3.226-5.308-6.87-8.095-10.2-1.709-2.03-4.27-4.186-5.083-6.637-.669-2.01 1.57-3.792 1.027-6.146a2.99 2.99 0 00-2.146-2.079 49.428 49.428 0 013.431-8c.65 1.973 6.487 12.8 12.035 32.524.244.993.664 2.59 1.614 2.225.689-.277.9-1.419 1.077-2.665a93.424 93.424 0 001.3-9.395c1.171-11.989 1.107-25.38-2.512-36.872a1.7 1.7 0 00.935-.954zm-4.269-21.093c1.026.821.93 2.238.981 3.63.073 2 1.213 3.574 1.778 5.276 1.027 3.085 2.036 8.762.592 11.8a.756.756 0 01-.545.48 3.671 3.671 0 01-2.12-.874c-3.525-2.6-5.294-6.41-7.965-6.25-2.525.155-5.333 5.182-7.47 7.98a5.05 5.05 0 01-1.665 1.648 1.184 1.184 0 01-.4.094h-.025c-.89 0-2.287-1.324-3-2.274-.141-.125-.409-12.752-.409-12.986 2.333 2.1 5.917 4.425 9.078 4.425 4.964 0 8.251-5.34 10.886-9.4a.497.497 0 00-.146-.692.503.503 0 00-.556.006.505.505 0 00-.136.14l-.556.86a60.608 60.608 0 01-.064-4.69 4.446 4.446 0 011.742.827zM93.666 94.45c-.021-.16-.1-.932-.1-.946a92.734 92.734 0 01-1.223-9.832c.74.75 1.937 1.727 2.987 1.67.222-.014.44-.063.646-.144.111.48 1.611 3.816 1.7 4.006.037.072.09.133.157.18a18.606 18.606 0 00-1.4 2.031 9.808 9.808 0 01-2.767 3.035zM87.471 62.5c-.091-.845-.364-3.04-.413-3.27 8.033 6.735 17.1 5.525 22.442-2.708a64.321 64.321 0 00-.012 9.333c-2.407 3.584-5.407 7.2-9.342 6.6A10.94 10.94 0 0196 70.885a20.756 20.756 0 01-3.8-2.832.499.499 0 00-.359-.136c-.048-2.065-.329-4.2-1.662-5.209a2.234 2.234 0 00-2.708-.208zm26.222-17.317c.257-1.332.418-2.68.483-4.035a7.24 7.24 0 01.679-.6c.3.28-.021-.146.519.666a.498.498 0 00.901-.18.499.499 0 00-.068-.373c-.157-.24-.276-.438-.391-.586a3.038 3.038 0 011.749-.077.499.499 0 00.636-.551.508.508 0 00-.383-.415 4.233 4.233 0 00-3.581.731c.009-.367.035-2.685.058-3.466a3.716 3.716 0 011.356-.85 2.044 2.044 0 011.885.138c2.201 2.004 1.119 8.03-3.843 9.597v.001zM73.662 28.735c-.742-4.169.693-7.092 2.337-11.292 1.154-2.947 2.144-5.494 4.79-7.527 7.939-6.084 18.278-4.78 25.551-2.616 3.879 1.157 8.151 2.88 10.431 6.885 3.794 6.651 1.779 16.67.844 20.334a3.392 3.392 0 00-3.27.45c.249-4.095 1.564-9.36-1.31-12.987-2.4-3.01-7.989-1.125-10.917-.926-6.7.484-16.47-.07-22.552-3.1a.498.498 0 00-.745.407.5.5 0 00.3.487c.614.306 1.249.583 1.894.828-2.55 4.547-2.9 10.622-2.134 15.786a4.257 4.257 0 00-2.481-.504.482.482 0 00-.138-.19c-1.637-1.317-2.404-4.953-2.6-6.035zm.138 11.572a3.214 3.214 0 013.992-4.22c.475.164.91.425 1.28.765.133 1.093.241 2.19.3 3.29-2.4-2.284-5.547-1.45-2.248-.26.206.076.407.166.6.271-.43.19-.785.517-1.01.93a.5.5 0 00.846.53c.376-.595.744-.592 1.057-.816.276.247.52.527.726.835-.1 1.943-.121 2.126-.139 2.973-2.158-.656-4.649-2.343-5.404-4.298zm6.6 7.093c-.5-2.5.048-4.83-.026-7.287-.186-3.269-.561-4.71-.747-6.7-.174-1.91-.5-8.43 2.337-13.369 6.243 2.111 14.5 2.436 20.22 2.023 2.83-.2 8.109-1.9 10.064.55 2.779 3.506 1.127 8.99 1.047 13.437-.105 3.238.112 5.5-.711 9.654a31.27 31.27 0 01-2.977 8.671c-2.641 4.96-6.285 7.707-10.83 8.165a11.028 11.028 0 01-3.9-.265C87.735 60.385 81.64 53.274 80.4 47.4zm3.657 14.468a9.282 9.282 0 011.4-3.115.5.5 0 00.487-.048c.041.286.089.565.147.815.523 3.824.362 3.606.576 3.826a6.153 6.153 0 00-1.133 2.7 38.743 38.743 0 00-.34 5.191 10.146 10.146 0 01-1.133-9.374l-.004.005zm9.04 59.2c-.478 1.186-1.3 2.24-1.922 3.434-.988 1.893-1.5 4.064-2.661 5.78-2.209 3.261-6.634 5.473-11.829 5.914a16.31 16.31 0 01-10.229-2.715C60.7 129.7 55 122.592 53.3 115.317c-1.434-6.163.294-9.57-2.081-19.425-.586-2.832-1.315-6.357.1-9.5a7.185 7.185 0 013.194-3.48 18.512 18.512 0 002.877 7.6c2.175 3.724 2.557 4.7 4.137 10.763 1.733 6.658 3.7 14.2 8.974 16.944a10.714 10.714 0 008.687.188c.76-.301 1.501-.645 2.221-1.032a.484.484 0 00.395.214 42.787 42.787 0 005.6-.332 11.644 11.644 0 005.863-2.946 10.068 10.068 0 01-.167 6.754l-.003.003zm6.992-22.868c-3.58 7.061-4.09 16.371-12.852 18.069a41.28 41.28 0 01-4.417.3c.393-.246.779-.5 1.152-.768a.505.505 0 00.202-.325.498.498 0 00-.412-.575.507.507 0 00-.373.087c-3.717 2.664-8.357 4.4-12.439 2.343-7.006-3.64-7.908-17.255-10.685-23.507-2-4.506-4.3-6.263-4.846-11.61a1.65 1.65 0 01.019-.715 1.503 1.503 0 011.273-1.1 1.5 1.5 0 01.589.048 2.9 2.9 0 011.055.415c2.485 1.51 2.836 4.572 4.593 7.078 1.811 2.564 2.623 2.541 2.89 2.556a.925.925 0 00.773-.426c.872-1.293-.015-3.606-.526-5.062-1.5-4.277-3.147-7.186-5.377-12.965-.814-2.106-1.435-4.073-.021-5.046 3.263-2.25 4.858 2.214 6.231 5.937.957 2.595 2.824 6.57 2.941 6.841.663 1.54 1.9 4.39 3.595 3.913 1.966-.572 1.093-4.489.674-6.37-.057-.254-1.739-8.922-2.37-13.078-.244-1.606-.547-3.6.66-4.662a1.85 1.85 0 011.825-.562c1.116.36 2.046 2.034 2.386 3.5 1.1 4.747 1.5 9.291 3.159 14.792.45 1.494 1.2 4 3.036 4.288 1.471.228 2.459-1.01 2.932-3.714.8-5.233.071-6.948.773-11.7a5.37 5.37 0 011.233-2.639 1.254 1.254 0 011.781-.066c1.134.86 1.3 3.1 1.308 4.956.2 9.693.163 16.55 1.733 25.247.033.448.09.893.172 1.335-2.264 1.09-7.195 1.577-10.66 5.245a.501.501 0 00.378.844.5.5 0 00.349-.157c3.352-3.548 8.262-3.9 10.674-5.186a.492.492 0 00.277-.134 11.668 11.668 0 003.521-3.71 17.694 17.694 0 011.7-2.407 2.779 2.779 0 012.715-.946c3.108.558-.193 6.822-1.621 9.636zm17.5 11.189a127.811 127.811 0 01-1.87 18.956 15.204 15.204 0 01-.387 2.019c-.828-1.88-3-13.162-12.388-33.694a7.33 7.33 0 00-.427-1.128c1.425-3.148 1.817-5.418 1.138-6.732a2.322 2.322 0 00-1.755-1.229 3.754 3.754 0 00-3.4 1 155.72 155.72 0 01-1.527-3.529c-.007-.019-.058-.273-.109-.42.52-.412.967-.908 1.321-1.469a74.634 74.634 0 014.474-6c1.834-1.955 2.665-2.19 4.825-.05a38.326 38.326 0 004.7 4.532 4.587 4.587 0 002.242 1.015c2.364 7.431 3.431 16.422 3.159 26.732l.004-.003z"/><path fill="#0e2238" d="M84.587 84.29a.5.5 0 00-.586-.4 35.5 35.5 0 00-15.394 6.919.5.5 0 10.635.772 34.47 34.47 0 0114.949-6.71.5.5 0 00.396-.581zm-50.096 81.759h1.627a.498.498 0 00.5-.5v-2.65a2.616 2.616 0 001.371-2.4 2.732 2.732 0 00-5.454.226 2.619 2.619 0 001.456 2.229v2.6a.501.501 0 00.5.495zm.713-7.07a1.686 1.686 0 011.616.931c.098.198.155.413.17.632a1.602 1.602 0 01-.747 1.4.492.492 0 00-.576.255.487.487 0 00-.049.22v2.634h-.627v-2.634a.502.502 0 00-.7-.454 1.62 1.62 0 01.909-2.984h.004zm9.841 9.421H23.959a.496.496 0 00-.461.301.51.51 0 00.461.699h21.085a.477.477 0 00.352-.14.496.496 0 00.003-.707.513.513 0 00-.354-.153zm-.958-14.566a.503.503 0 00.5-.5v-3.718a9.594 9.594 0 00-19.185 0v3.718a.501.501 0 101 0v-3.718a8.591 8.591 0 018.593-8.5 8.59 8.59 0 018.592 8.5v3.718a.501.501 0 00.5.5z"/><path fill="#0e2238" d="M41.728 153.791a.498.498 0 00.5-.5v-3.478a7.213 7.213 0 00-4.46-6.653 7.217 7.217 0 00-5.518.008 7.222 7.222 0 00-3.895 3.908 7.208 7.208 0 00-.545 2.759v3.456a.5.5 0 101 0v-3.456a6.207 6.207 0 016.198-6.22 6.21 6.21 0 016.22 6.198v3.478a.5.5 0 00.5.5zm131.503-26.202h1.654a.498.498 0 00.5-.5v-2.875a2.783 2.783 0 001.313-3.158 2.787 2.787 0 00-4.437-1.431 2.787 2.787 0 00.47 4.639v2.825a.501.501 0 00.5.5zm-.916-6.39a1.774 1.774 0 011.171-1.114 1.79 1.79 0 011.589.292 1.782 1.782 0 01-.07 2.879.485.485 0 00-.62.475v2.858h-.654v-2.858a.507.507 0 00-.234-.419.495.495 0 00-.479-.029 1.766 1.766 0 01-.703-2.083v-.001zm11.66 8.977h-21.466a.493.493 0 00-.5.49.51.51 0 00.5.51h21.466a.493.493 0 00.5-.49.51.51 0 00-.5-.51zm-10.238-30.389a9.76 9.76 0 00-9.75 9.751V114a.5.5 0 001 0v-4.47a8.756 8.756 0 0117.509.006V114a.5.5 0 001 0v-4.464a9.763 9.763 0 00-9.759-9.749z"/><path fill="#0e2238" d="M180.6 114.459a.5.5 0 00.5-.5v-4.148a7.335 7.335 0 00-7.344-7.237 7.335 7.335 0 00-7.321 7.26v4.125a.498.498 0 00.5.5.5.5 0 00.5-.5v-4.125a6.332 6.332 0 0112.665-.022v4.147a.498.498 0 00.5.5zm-14.455 45.8a1.868 1.868 0 00-2.075.036 1.863 1.863 0 00-.219 2.877 1.858 1.858 0 003.099-1.755 1.864 1.864 0 00-.805-1.158zm-.277 2.015a.877.877 0 01-1.2.271.862.862 0 111.2-.271zm17.555-4.798l-10.467 1.964a.493.493 0 00-.321.209.503.503 0 00.13.695.5.5 0 00.375.079l10.47-1.965a.473.473 0 00.185-.07.497.497 0 00.01-.84.511.511 0 00-.382-.072zM133.485 11.079a2.144 2.144 0 002.047-1.53.566.566 0 00.018-.1 2.139 2.139 0 00-1.737-2.284 2.138 2.138 0 00-2.444 1.504.563.563 0 00-.018.1 2.138 2.138 0 00.563 1.62 2.137 2.137 0 001.571.69zm-1.14-2.18a1.136 1.136 0 011.965-.342c.17.214.258.482.247.755a1.134 1.134 0 01-1.283.744 1.137 1.137 0 01-.929-1.157zm7.199 7.201a.5.5 0 00-.817.578l6.928 9.785a.511.511 0 00.324.207.501.501 0 00.492-.785l-6.927-9.785zm-2.155 118.29c.38 0 .756-.44 1.026-.739.425-.468 2.182-1.862 2.644-2.228a.5.5 0 10-.623-.783 25.04 25.04 0 00-3.191 2.771.494.494 0 00-.278.211.499.499 0 00.422.768zm.275-2.809a.501.501 0 00.416-.223 33.215 33.215 0 013.149-4.521.5.5 0 10-.723-.692 32.971 32.971 0 00-3.258 4.659.494.494 0 00-.024.513.506.506 0 00.183.193.507.507 0 00.257.071zM102.376 27.814c2.159-1.4 5.9-1.307 7.7.19a.5.5 0 00.64-.77c-2.13-1.77-6.366-1.893-8.886-.26a.5.5 0 00.544.84h.002zm-13.193.787a.502.502 0 00.845-.076.501.501 0 00-.079-.565 6.242 6.242 0 00-8.124-1.277c-.058.044-.82.717-.82.717l.663.748.716-.637a5.247 5.247 0 016.8 1.09z"/></svg>