<svg xmlns="http://www.w3.org/2000/svg" fill="none" viewBox="0 0 200 200" height="700" width="700"><path fill="#00bac7" fill-rule="evenodd" d="M35.258 103.92L13 118.481s4.294 36.182 11.45 42.777c7.156 6.595 20.269 14.721 24.915 16.15l11.36-10.166s-23.963-61.224-25.467-63.322z" clip-rule="evenodd"/><path fill="#0e2238" d="M49.215 177.886c-4.787-1.473-18.076-9.782-25.107-16.261a.5.5 0 01.678-.736c6.819 6.284 19.55 14.3 24.456 15.955l11.146-9.975a.501.501 0 01.667.747c-11.698 10.484-11.455 10.393-11.84 10.27z"/><path fill="#fff" fill-rule="evenodd" d="M173.444 116.639c-2.815-.924-36.545 26.5-36.545 26.5l-30.35-11.9-34.676 33.135v2.369l39.2 18.761s41.161-23.118 44.516-26.246c3.392-3.158 20.67-41.695 17.855-42.619z" clip-rule="evenodd"/><path fill="#0e2238" fill-rule="evenodd" d="M173.008 116.141c.18-.031.392-.043.592.023.245.08.404.258.498.447.089.179.129.384.145.584.033.399-.02.914-.127 1.501-.216 1.185-.683 2.806-1.323 4.708-1.284 3.811-3.292 8.828-5.49 13.905-2.199 5.08-4.593 10.231-6.651 14.313-1.029 2.04-1.976 3.818-2.774 5.188-.4.685-.764 1.272-1.086 1.742-.316.462-.608.835-.862 1.072-.459.428-1.51 1.155-2.946 2.08a225.758 225.758 0 01-5.508 3.403c-4.335 2.61-9.798 5.795-15.153 8.88a2430.672 2430.672 0 01-20.542 11.692l-.461.26-.002.001-.245-.436-.244-.436.001-.001.461-.259a2837.189 2837.189 0 006.019-3.4c3.911-2.216 9.16-5.203 14.513-8.287 5.354-3.085 10.811-6.266 15.137-8.871a219.944 219.944 0 005.482-3.387c1.457-.938 2.426-1.616 2.806-1.971.17-.158.411-.456.719-.905.303-.443.654-1.008 1.047-1.681.784-1.345 1.721-3.104 2.745-5.135 2.048-4.061 4.434-9.194 6.626-14.259 2.194-5.067 4.189-10.055 5.46-13.828.636-1.89 1.084-3.456 1.287-4.568.103-.561.136-.972.114-1.24a.908.908 0 00-.023-.156c.052-.006.073-.003.074-.003l-.009-.003c-.062-.02-.086-.06-.086-.06v.002c.005.01.013.031.021.064-.014.001-.03.004-.048.007a2.39 2.39 0 00-.43.126c-.368.137-.85.371-1.437.697-1.171.65-2.704 1.634-4.479 2.852-3.547 2.434-8.018 5.768-12.409 9.137a838.886 838.886 0 00-11.895 9.32 908.977 908.977 0 00-4.932 3.961l-.378.307-.316-.388.183-.465-.272-.107.154-.124 1.076-.87c.928-.748 2.258-1.817 3.862-3.095a827.004 827.004 0 0111.91-9.332c4.394-3.372 8.882-6.72 12.451-9.168 1.784-1.224 3.347-2.23 4.56-2.903.605-.335 1.136-.596 1.572-.759.217-.081.424-.143.613-.175zm-66.344 15.68l30.053 11.784a.504.504 0 00.498-.078l-.316-.388-.315-.388.226-.184-30.078-11.793a.497.497 0 00-.528.104l-34.676 33.135a.499.499 0 10.69.723l34.446-32.915zm4.409 53.683l-.244-.436a.5.5 0 10.489.872l-.245-.436z" clip-rule="evenodd"/><path fill="#0e2238" d="M167.249 119.266l-40.541-11.412a.496.496 0 00-.468.108c-86.141 76.826-80.283 71.7-80.257 72.076l.4 5.845a.5.5 0 001-.068l-.347-5L77.3 195.451a.5.5 0 00.435-.9l-30.356-14.678 79.321-70.982 40.276 11.338a.5.5 0 00.617-.346.501.501 0 00-.346-.617h.002z"/><path fill="#0e2238" d="M137.153 142.731a.495.495 0 00-.689.158L111.542 182.7l-39.454-18.777a.501.501 0 00-.666.237c-.068.142-.049.033-.049 2.583a.501.501 0 00.285.452l39.2 18.759a.51.51 0 00.416-.002.509.509 0 00.271-.315l.623-2.06 25.14-40.157a.5.5 0 00-.155-.689zm-64.78 22.435l38.746 18.434-.361 1.193-38.385-18.365v-1.262z"/><path fill="#fff" fill-rule="evenodd" d="M140.592 133.212s-5.607-33.926-4.349-65.907c0 0-29.59 1.894-34.362-.981-4.772-2.875-4.773-21.282-4.773-28.489 0-7.207-2.7-25.095 6.069-27.669 8.769-2.574 62.62-7.508 72.747-3.879 10.127 3.629 9.731 14.314 10.5 29.446.769 15.132 1.907 27.77-5.25 29.257-7.157 1.487-35.591 2.323-35.591 2.323s-5.051 37.494-4.991 65.899z" clip-rule="evenodd"/><path fill="#def6f8" fill-rule="evenodd" d="M119.65 175.791l20.55-32.656 29.568-20.935-15.068 33.753-35.05 19.838z" clip-rule="evenodd"/><path fill="#0e2238" d="M119.227 175.524c21.992-34.98 20.558-32.708 20.684-32.8l29.568-20.924a.503.503 0 01.607.022.504.504 0 01.138.591l-15.066 33.75c-.1.232 2.386-1.069-35.262 20.068a.498.498 0 01-.669-.707zm21.344-32.039l-19.442 30.894 33.183-18.78 14.256-31.934-27.997 19.82zm-8.142 1.387c-.619-.232-18.512-6.944-19.134-7.173a.5.5 0 00-.563.152l-24.373 29.915a.499.499 0 00.169.766c1.289.629 18.674 9.073 21.307 10.332a.501.501 0 00.633-.172l22.2-33.074a.508.508 0 00.061-.431.5.5 0 00-.3-.315zm-27.872 30.321l22.01-31.451 1.869.7-21.327 31.988-2.552-1.237zm-3.2-1.552l22.143-31.049 2.1.787-21.955 31.371-2.288-1.109zm-3.472-1.683l22.553-30.513 2.091.784-22.083 30.971-2.561-1.242zm-2.951-1.431l22.732-30.121 1.8.674-22.495 30.434-2.037-.987zm-2.878-1.4l23.215-29.623 1.42.532-22.672 30.046-1.963-.955zm21.224-30.37l1.009.378-23.153 29.55-1.6-.777 23.744-29.151zm-3.4 39.013l-1.863-.9L129.4 144.8l2.09.783-21.61 32.187zm-13.96-21.438c-.146 0 .407.2-8.872-3.583a.497.497 0 01-.292-.6.504.504 0 01.12-.209l9.873-10.28a.5.5 0 01.585-.1l6.686 3.353a.507.507 0 01.263.333.512.512 0 01-.088.415l-7.876 10.472a.504.504 0 01-.4.199zm-7.812-4.23l7.644 3.122 7.284-9.685-5.821-2.92-9.107 9.483z"/><path fill="#fff" fill-rule="evenodd" d="M50.915 176.041s-23.552-10.036-22.1-25.844l33.823-9.861a150.628 150.628 0 0120.625 6.764l-32.348 28.941z" clip-rule="evenodd"/><path fill="#0e2238" d="M50.72 176.5c-.977-.416-23.87-10.363-22.4-26.349a.507.507 0 01.543-.452.499.499 0 01.452.543c-1.314 14.331 18.843 24 21.513 25.209l31.5-28.188c-12.352-4.8-18.659-6.077-18.722-6.09a.506.506 0 01-.334-.207.5.5 0 01.528-.773c.066.012 6.7 1.357 19.651 6.434a.499.499 0 01.15.839C50.041 177.551 51.168 176.7 50.72 176.5z"/><path fill="#fff" fill-rule="evenodd" d="M66.275 146.9c-7.156-.323-6.275 8.58-6.275 8.58a82.897 82.897 0 008.779 3.27c3.926 1.126 3.088.687 4.279 1.666 1.191.979 1.142.305 2 .635a8.78 8.78 0 012.749 1.424c1.923 1.248 1.718 1.331 4.4 1.841 2.682.51 4.055.16 7.032 1.636 2.977 1.476 1.914-1.766-2.379-3.41 0 0 1.438-.094 4.97 1.478s4.337 2.041 4.276.967c-.061-1.074-2.277-3.775-7.672-5.073 2.72.492 5.31 1.535 7.611 3.064 3.813 2.54 4.343 1.439 3.755.159-.588-1.28-3.7-3.613-8.553-5.207a27.492 27.492 0 016.132 2.531c3.028 1.741 3.176.531 1.532-1.19-1.644-1.721-4.474-4.207-8.654-4.13-4.18.077-10.537 1.017-12.932-.369-2.395-1.386-7.846-5.693-11.05-7.872zm19.89-11.3a20.923 20.923 0 006.051 3.056c3.106.844 4.715 1.085 6.422 2.475 1.707 1.39 1.658 3.189 4.856 4.921 3.198 1.732 5.88 2.475 5.5 1.283-.38-1.192-3.293-1.812-4.222-4.946a5.523 5.523 0 013.729.116c2.077.781 5.44 2.954 6.727 2.477 1.287-.477.254-.852-.408-1.364 0 0 2.341-.049 2.506-.905.108-.562-1.3-.638-3.955-2.582-2.655-1.944 2.239.968 3.369.8 2.157-.32-1.38-1.95-3.787-3.473a6.215 6.215 0 002.7-.4c.913-.512.709-.8-.368-1.021-1.077-.221-2.4-.745-3.182-.794a11.721 11.721 0 01-3.165-.991c-1.042-.474-3.149 0-7.545.5-3.686.418-9.218-4.774-9.378-4.774-.16 0-4.852-.713-5.85 5.622z" clip-rule="evenodd"/><path fill="#def6f8" fill-rule="evenodd" d="M34.127 130.779a3.802 3.802 0 01-1.06 4.069c-1.951 1.613-1.913 1.767-2.076 3.656-.163 1.889.907 2.455-1.073 5.192s-1.694 3.969-1.111 6.375 11.135 8.7 24.252 2.784c1.22 1.23 2.2 2.093 3.973 1.927 0 0 1.535.364 2.949.749 0 0 1.986-8.127 6.3-8.616a5.421 5.421 0 01-.766-1.5 6.308 6.308 0 00-2.638-3.767 26.905 26.905 0 001.817-6.613 65.802 65.802 0 003.787-5.878c.96.12 1.848.575 2.505 1.286 1.53 1.331 1.076 1.582 2.723 2.393 1.647.811 2.273.376 4.058 1.615 1.785 1.239 2.238 1.547 4.028 1 1.79-.547 2.346-.68 2.346-.68l2.026.906c1.928-5.136 5.855-5.6 5.855-5.6a32.846 32.846 0 01-2.43-2.418c-1.374-1.5-1.72-4.429-3.524-6.4-1.805-1.971-4.556-1.826-6.063-2.4-1.507-.574-3.63-.752-4.516-7.028-.887-6.276-2.256-9.733-8.243-15.118s-16.614-7.37-16.614-7.37-3.917-2.196-6.326.986c-2.41 3.182.3 3.52-2.584 6.08s-3.141 3.758-4.238 5.317c-1.097 1.559-6.25 4.631-7.711 8.208-1.461 3.577-3.76 10.238 1.133 16.5 1.494 1.907 2.514 3.266 3.22 4.345z" clip-rule="evenodd"/><path d="M87.589 128.39a.497.497 0 00-.693-.138l-2.435 1.629a.5.5 0 00.279.916c.216 0 .11.032 2.71-1.713a.488.488 0 00.214-.318.503.503 0 00-.075-.376zM60.22 152.44l-2.383-1.7a.49.49 0 00-.373-.087.512.512 0 00-.405.381.5.5 0 00.197.52l2.384 1.7a.5.5 0 00.58-.814z" opacity=".75" fill="#fff"/><path fill="#fff" fill-rule="evenodd" d="M52.005 82.2s-4.158 1.26-5.314-3.4c-1.144-4.61 3.74-5.46 3.74-5.46s-3.876-21.82 22.555-17.722c0 0 8.055 6.358 7.425 12.305-.63 5.947-2.44 6.2-1.513 10.351.926 4.151-.734 6.625-2.942 9.228-2.208 2.603-2.792 7.428-6.52 7.428a16.126 16.126 0 01-7.806-2.1c-.9.943-7.438 7.282-15.136.421 5.977-11.699 5.542-10.93 5.51-11.051z" clip-rule="evenodd"/><path fill="#0e2238" fill-rule="evenodd" d="M47.415 58.012c-1.272-.4-7.547-2.68-7.505-9.036.046-7.073 2.136-8.158 5.815-8.2 0 0-.353-3.41 4.21-4.354 4.563-.943 3.437 1.032 6.253.536 2.816-.496 1.66-1.678 4.525.065 2.864 1.743 2.46 3.468 3.853 3.607 1.393.14 2.994.961 3.138 3.838a5.361 5.361 0 01-2.558 5 26.456 26.456 0 0111.173 5.7c13.03 10.506 6.79 29.417 6.79 29.417s-1.647-.725-2.536-1.186c0 0 1.285-5.6-.1-8.414a39.912 39.912 0 01-1.25 5.905l-.615-5.277 1.24-3.385.625-4.447-.625-4.216a38.379 38.379 0 00-5.238-6.386L47.383 75.02s-4.792-8.769.032-17.008zm26.426 32.58s-.968 4.943-.485 7.547c1.41.038 2.808.262 4.159.666 0 0-1.539-6.891-.769-10.882a28.167 28.167 0 00.769 6.972 4.572 4.572 0 002.51-.175s-1.962-7.5-1.84-10.828l-4.344 6.7z" clip-rule="evenodd"/><path fill="#0e2238" fill-rule="evenodd" d="M74.611 57.174s-6.6-8.289-17.939-2.074-6.965 18.3-6.241 18.243c6.494-.536 3.15 10.26 1.111 16.467a14.405 14.405 0 00.47 9.151c1.234-.814 2.6-1.41 4.035-1.761a6.942 6.942 0 003.053 1.152c.589-3.942.426-7.96-.48-11.842-.882-3.648-.1-5.341-.1-5.341.607 2.6 1.443 3.126 1.443 3.126 2.611 0 3.09-.944 3.09-.944s-1.594.234-2.628-3.531c-2.078-7.563 2.628-15.1 2.628-15.1-.761 2.026-2.264 7.738-2.264 7.738a8 8 0 003.246 0c2.768-2.107 5-8.9 5-8.9 0 3.276-2.158 7.579-2.158 7.579a5.29 5.29 0 004.091-.545c6.732-7.778 3.643-13.418 3.643-13.418z" clip-rule="evenodd"/><path fill="#0e2238" d="M77.68 99.17a15.506 15.506 0 00-4.01-.642.5.5 0 110-1c1.18.035 2.353.19 3.5.462-.383-1.962-1.234-7-.604-10.273a.507.507 0 01.542-.4.5.5 0 01.449.5 27.812 27.812 0 00.746 6.815.5.5 0 01-.572.641c.268 1.88.576 3.28.583 3.31a.5.5 0 01-.633.588zM72.49 84.8a4.39 4.39 0 01-.93-.1.5.5 0 01.225-.974 2.751 2.751 0 001.81-.192 1.11 1.11 0 00.48-.76c.14-.7-.153-.71-.95-1.854a2.73 2.73 0 01-.145-2.79.5.5 0 01.873.487 1.725 1.725 0 00.093 1.733c.739 1.06 1.35 1.407 1.11 2.619a2.329 2.329 0 01-2.566 1.83zm-.79 3.611a5.414 5.414 0 01-2.972-1.126.5.5 0 01.623-.782c.77.613 1.736.925 2.72.877a2.171 2.171 0 001.48-1.129.5.5 0 11.852.52 3.08 3.08 0 01-2.703 1.64zm-1.869 1.209a.5.5 0 01.695-.093c.079.056.754.483 1.75-.42a.5.5 0 11.671.743c-1.74 1.572-3.712.544-3.116-.23zm6.495-17.98a.5.5 0 01-.326-.883c.088-.074 2.182-1.816 3.79-.98a.5.5 0 11-.46.887c-.842-.434-2.224.472-2.686.859a.5.5 0 01-.318.117zM62.728 74.2c.159-.138 3.91-3.352 6.566-1.812a.5.5 0 01-.5.865c-2.041-1.184-5.375 1.672-5.408 1.7a.5.5 0 01-.658-.753zM47.607 58.209a.5.5 0 01-.425-.761c4.12-6.694 10.809-9.872 17.9-8.5a.5.5 0 11-.19.982c-6.762-1.3-12.907 1.625-16.86 8.044a.5.5 0 01-.425.235zm4.314 18.038c-1.575-1.881-4.029-.379-4.2 1.792a.5.5 0 00.457.537.508.508 0 00.54-.455 1.916 1.916 0 011.409-1.721c.608-.124 1.114.5 1.388 1.054-.415 1.546-2.406 2.086-2.427 2.091a.5.5 0 00.249.969 5.176 5.176 0 002.573-1.647 3.568 3.568 0 01-.188 1.609.5.5 0 10.937.351 4.942 4.942 0 00-.738-4.58zM42.017 141.2a.507.507 0 01-.404-.205.501.501 0 01-.072-.447 10.217 10.217 0 018.138-6.588.498.498 0 01.46.803.5.5 0 01-.333.19 9.03 9.03 0 00-7.313 5.9.497.497 0 01-.476.347zm7.017-9.244a.494.494 0 01-.22-.051 10.862 10.862 0 00-6.061-.648.5.5 0 11-.2-.98 11.686 11.686 0 016.7.731.503.503 0 01.265.561.503.503 0 01-.484.387zm5.091 18.989a8.218 8.218 0 013.867-7.395c-1.155-.266-3.265-.3-5.557 1.833a.495.495 0 01-.56.108.5.5 0 01-.122-.838c3.92-3.659 7.49-1.74 7.64-1.657a.501.501 0 010 .877 7.464 7.464 0 00-4.27 6.96.503.503 0 11-.998.112z"/><path fill="#0e2238" d="M100.254 162.946a4.13 4.13 0 00-.846-1.127.93.93 0 00.873-.318c.534-.681-.254-1.767-1.01-2.559-1.033-1.082-4.176-4.378-9.024-4.284-4.075.076-10.446.985-12.672-.3-2.118-1.228-8.088-5.854-10.935-7.794a7.754 7.754 0 01-.771-1.624c-.516-1.368-.471-1.865-2.675-3.674a2.924 2.924 0 00-2.1-.73c-.63-.012-1.12 0-2.2-1.75-2.125-3.43-2.241-3.423-5.268-4.161-2.432-.592-1.1-2.652-2.517-7.171-1.525-4.876.17-7.931.725-8.751a.508.508 0 00.077-.375.498.498 0 00-.766-.323.49.49 0 00-.139.137c-.793 1.171-2.464 4.452-.851 9.611 1.388 4.444-.05 7.051 3.235 7.845 2.769.669 2.706.57 4.653 3.715 2.171 3.5 2.929 1.425 4.517 2.726a6.047 6.047 0 011.864 2.013c-3.293.859-6.825 4.371-7.824 10.251-1.38-.007-2.2-.818-3.109-1.721-.992-.984-.79-1.3-3.442-2.082a14.152 14.152 0 01-2.12-.727c-1.93-.865-2.39-.729-3.231-.438a2.728 2.728 0 01-2.532-.288c-3.949-1.931-5.48-8.679-5.759-12.363-.283-3.727-.15-4.219-5.107-10.558-4.475-5.723-2.75-11.872-1.064-16 1.4-3.432 6.5-6.465 7.657-8.109a.502.502 0 00-.495-.781.5.5 0 00-.323.205c-1.057 1.5-6.246 4.588-7.765 8.306-1.134 2.777-4.147 10.152 1.2 16.994 1.463 1.87 2.463 3.2 3.155 4.25a3.274 3.274 0 01-.921 3.476c-2.053 1.7-2.079 1.972-2.255 4-.172 2 .876 2.38-.979 4.943-2.125 2.936-1.773 4.385-1.192 6.786.711 2.936 11.674 8.936 24.63 3.259a4.947 4.947 0 004.044 1.833c.328.08 1.637.4 2.855.727.649.176 4.635 2.041 8.792 3.233 3.407.978 3.135.759 3.763 1.29 1.077.912 1.4 1 2 .942.331-.034.3 0 .917.214a13.927 13.927 0 012.935 1.694c1.247.833 1.471.983 3.858 1.438 2.71.513 4.027.167 6.9 1.592.44.247.929.394 1.432.43a.918.918 0 00.405-.056.903.903 0 00.564-.995 3.565 3.565 0 00-1.326-1.932c.887.331 1.533.629 2.446 1.038 2.426 1.086 3.156 1.415 3.707 1.036a1.06 1.06 0 00.36-.962 2.82 2.82 0 00-.633-1.43c2.166 1.414 3.5 1.805 4.175 1.224.436-.371.475-1.035.112-1.825zM32.8 152.805c-2.349-1.147-3.388-2.332-3.513-2.847-.565-2.336-.823-3.4 1.031-5.965 2.093-2.892 1.015-3.689 1.166-5.442.155-1.808.108-1.836 1.9-3.314a3.85 3.85 0 001.372-2.293 9.817 9.817 0 01.62 3.363c.356 4.8 2.042 11.53 6.351 13.637 2.865 1.4 3.168-.218 4.6.274a31.72 31.72 0 003.438 1.239c1.775.523 2.047.76 2.456 1.222-9.763 4.141-17.304 1.159-19.421.126zm32.012-7.823c.188.543.41 1.075.665 1.591a4.55 4.55 0 00-1.01.451l-1.632-1.266a7.718 7.718 0 011.981-.776h-.004zm-2.864 1.355l1.675 1.3a9.584 9.584 0 00-1.8 2.169l-2.163-.938a9.549 9.549 0 012.292-2.531h-.004zm-2.324 8.581c-.793-.21-1.566-.4-2.033-.514.038-.219.094-.51.174-.855l2.071.671c-.083.272-.154.509-.208.698h-.004zm-1.6-2.337c.285-.983.666-1.935 1.139-2.843l2.162.939a20.253 20.253 0 00-1.157 2.6l-2.144-.696zM99.5 164.006s-.6.288-3.179-1.429a20.592 20.592 0 00-7.819-3.142.51.51 0 00-.559.4.5.5 0 00.374.579c5.074 1.221 7.241 3.762 7.29 4.616v.041a33.202 33.202 0 01-3.575-1.494c-3.605-1.608-5.142-1.511-5.206-1.519a.498.498 0 00-.4.751.504.504 0 00.254.215c2.458.941 3.591 2.34 3.731 2.818a2.767 2.767 0 01-.951-.324c-3.078-1.524-4.5-1.173-7.161-1.679-2.186-.416-2.334-.515-3.488-1.286a14.714 14.714 0 00-3.168-1.809 2.473 2.473 0 00-1.341-.263c-.2.02-.355.039-.928-.437-1.242-1.032-.595-.656-4.458-1.761a80.34 80.34 0 01-8.329-3.079c.47-1.628 2.307-7.2 5.562-7.767 2.889 1.978 8.647 6.464 10.924 7.782 2.57 1.489 8.887.515 13.191.437 3.914-.1 6.62 2.233 8.283 3.975.356.339.649.74.864 1.183a5.678 5.678 0 01-1.784-.773 27.702 27.702 0 00-6.259-2.581.501.501 0 00-.279.959c4.811 1.582 7.77 3.883 8.255 4.942.115.194.17.419.156.645z"/><path fill="#0e2238" d="M44.656 111.183a11.972 11.972 0 00-7.34-1.052 13.885 13.885 0 016.16-7.579.496.496 0 00.197-.644.5.5 0 00-.623-.256c-.2.093-4.794 2.316-6.9 8.785a9.465 9.465 0 00-3.995 2.471.5.5 0 00.762.647c1.98-2.322 6.343-3.7 11.324-1.456a.498.498 0 00.662-.25.499.499 0 00-.25-.662l.003-.004zm28.597 16.382c.072-.235 1.81-5.76 6.594-7.284a.497.497 0 01.607.333.498.498 0 01-.307.62c-4.29 1.366-5.926 6.571-5.942 6.624a.5.5 0 01-.952-.293zm5.505 1.88a.504.504 0 01-.471-.331.5.5 0 01-.029-.201c.3-4.726 2.8-6.455 2.9-6.526a.498.498 0 01.764.51.503.503 0 01-.205.319c-.1.068-2.2 1.568-2.463 5.76a.5.5 0 01-.496.469z"/><path fill="#0e2238" d="M116.808 141.43c.237-.035.957-.142 1.083-.717s-.418-1.053-1.333-1.648c-.618-.4-1.3-.812-1.921-1.177a3.792 3.792 0 001.255-.387c.274-.154.914-.514.824-1.09-.083-.531-.691-.726-1.337-.858-.986-.2-2.416-.75-3.251-.8a11.339 11.339 0 01-2.989-.946c-1.2-.548-3.3-.053-7.809.457-2.88.323-7.13-3.152-8.527-4.3-.534-.435-.59-.481-.794-.481a.5.5 0 00-.348.14 6.853 6.853 0 00-1.9.757l-1.123-1.3c.452-.252.922-.47 1.407-.652a.495.495 0 00.324-.451.503.503 0 00-.293-.472.499.499 0 00-.383-.013 8.917 8.917 0 00-6.008 6.865c-3.613.982-3.17 1.385-5.638-.329-1.966-1.368-2.456-.836-4.122-1.654-1.478-.727-1.092-1.01-2.687-2.375l-2.114-1.258c3.264-6.141 2.556-8.275 1.586-11.2l-.2-.6c-1.174-3.634-.106-5-.074-5.038a.504.504 0 00-.037-.7.5.5 0 00-.706.031c-.063.068-1.532 1.728-.134 6.014 1.137 3.485 1.895 5.174-1.607 11.558a.502.502 0 00.268.71c.091.033.19.039.283.017l2.151 1.272c1.471 1.282 1.082 1.606 2.83 2.466 1.8.884 2.262.372 3.993 1.577 1.26.875 1.941 1.347 2.916 1.347a17.924 17.924 0 003.7-.913c1.944.863 1.872.85 1.983.87 5.715 4.066 9.21 2.891 12.246 5.365 1.605 1.308 1.626 3.182 4.934 4.973 1.2.652 4.924 2.568 5.978 1.689a.868.868 0 00.233-1c-.442-1.373-3.019-1.886-4.052-4.453a5.27 5.27 0 012.907.244c2.175.819 5.517 3.055 7.077 2.477.406-.151.881-.385.935-.858a.756.756 0 00-.21-.613c.761-.157 1.556-.485 1.689-1.172.125-.652-.461-.943-1.2-1.311-.266-.123-.113-.017.195-.063zm-29.02-11.8l1.135 1.312a8.56 8.56 0 00-1 .889l-1.542-.919a8.06 8.06 0 011.407-1.285v.003zM85.893 135l-1.207-.538c.021-.124.051-.279.094-.457l1.32.533c-.07.148-.14.302-.207.462zm-.807-1.95c.186-.466.419-.913.694-1.334l1.487.887c-.255.334-.489.683-.7 1.045l-1.48-.598zm27.775 5.965a4.903 4.903 0 00-.962-1.071c-.957-.525-1.989-.9-3.06-1.113a.507.507 0 00-.531.202.493.493 0 00-.078.384.5.5 0 00.409.393 9.57 9.57 0 012.7.958c.346.341.657.716.929 1.118.249.243.521.463.81.656 1.166.827 2.4 1.552 3.689 2.168a4.147 4.147 0 01-1.818.411 19.14 19.14 0 01-2.011-1.627 20.105 20.105 0 00-4.245-2.755.501.501 0 00-.424.906 19.445 19.445 0 014.006 2.6c2.738 2.43 3.133 2.144 2.782 2.278-.991.361-4.51-1.774-6.378-2.476a6.011 6.011 0 00-4.091-.112.501.501 0 00-.293.606c.929 3.134 3.682 3.946 4.187 4.891-.489.025-2.072-.362-4.744-1.808-3.084-1.67-2.972-3.4-4.779-4.871-3.365-2.739-6.348-1.281-12.16-5.309.935-2.242 2.791-4.414 5.181-4.858 2.393 1.948 6.4 5.025 9.469 4.676 4.155-.471 6.4-.942 7.283-.541 1.059.502 2.183.85 3.34 1.034.551.08 1.094.21 1.621.388 1.392.412 1.358.354 1.771.46a5.063 5.063 0 01-2.371.372 12.502 12.502 0 00-4.129-1.543.501.501 0 00-.469.795.498.498 0 00.328.195 11.79 11.79 0 013.876 1.482 45.467 45.467 0 014.04 2.531c-.658.11-3.186-1.214-3.878-1.423v.003zM75.174 56.92c-.586-.569-1.285-.022-1 .5.028.053 2.831 5.4-3.535 12.805a4.643 4.643 0 01-3.018.533 19.951 19.951 0 001.922-7.19.5.5 0 00-.975-.157c-.022.065-2.167 6.513-4.741 8.586a9.09 9.09 0 01-2.422.112c.38-1.42 1.5-5.569 2.119-7.2a.5.5 0 00-.892-.44c-.2.315-4.8 7.81-2.686 15.5.588 2.14 1.379 3.114 2.028 3.552a5.45 5.45 0 01-1.817.287 6.161 6.161 0 01-1.147-2.737.5.5 0 00-.94-.1c-.036.075-.847 1.895.066 5.668a30.8 30.8 0 01.542 11.08 6.162 6.162 0 01-2.014-1.03c.188-1.477.948-7.655.651-8.883a.507.507 0 00-.6-.369.5.5 0 00-.368.6c.276 1.147-.7 8.661-.7 8.774a15.516 15.516 0 00-3.381 1.378 13.66 13.66 0 01-.241-8.214c.889-2.71 2.929-9.444 2.644-13.454a4.593 4.593 0 00-.918-2.68v-.017c-1.8-6.132 2.786-11.5 2.833-11.549a.5.5 0 00-.754-.658c-.193.221-4.471 5.206-3.308 11.368a5.528 5.528 0 00-5.835 2.153 4.643 4.643 0 00-.482 3.79c.7 2.832 2.619 4.075 4.93 3.922-1.36 2.744-3.832 7.69-4.735 9.5a1.3 1.3 0 01-.192-.862c.131-.81 1.132-1.355 1.143-1.36a.5.5 0 00-.468-.884 3.328 3.328 0 00-1.661 2.078c-.4 2.4 3.935 4.556 5.548 5.1.174.942.442 1.864.8 2.752a.5.5 0 00.777.19 13.16 13.16 0 013.962-1.69 8.198 8.198 0 002.791 1.183.5.5 0 00.495-.436c.163-1.249.267-2.449.312-3.613.599-.425 1.16-.901 1.676-1.424a16.538 16.538 0 007.84 2.051c4.105 0 4.735-5.049 6.9-7.606 2.165-2.557 4.038-5.223 3.048-9.659-.879-3.939.894-4.255 1.522-10.19.462-4.322-3.385-8.78-5.719-11.06zm-26.2 24.493a4.092 4.092 0 01-1.8-2.729 3.699 3.699 0 01.345-3c1.025-1.578 3.853-2.48 5.165-1.5a3.143 3.143 0 01.99 2.4 25.178 25.178 0 01-.81 6.721c-.433-1.27-.339-1.383-.616-1.54a.486.486 0 00-.39-.044 4.113 4.113 0 01-2.887-.308h.003zm1.613 13.87a12.519 12.519 0 01-3.469-2.155c.691-1.38 3.285-6.568 4.771-9.564.146.432.331.937.552 1.451a79.41 79.41 0 01-1.369 4.645 13.077 13.077 0 00-.488 5.622h.003zm9.353-1.752c0-.376 0-.75-.017-1.12.253.162.5.316.757.465-.192.183-.441.41-.743.655h.003zM79.9 67.874c-.621 5.858-2.465 6.21-1.5 10.513.891 3.994-.757 6.347-2.834 8.8-2.231 2.63-2.8 7.252-6.139 7.252a17.226 17.226 0 01-9.571-3.266c-.3-4.1-1.148-5.289-1.149-7.833.213.466.752 1.464 1.262 1.464 2.776 0 3.432-1.015 3.535-1.218a.513.513 0 00-.5-.723c-.021 0-1.219.024-2.095-3.166a15.98 15.98 0 01-.274-6.75 8.256 8.256 0 003.5.014.5.5 0 00.209-.093 12.426 12.426 0 002.965-3.95c-.807 2.091-1.047 2.082-.87 2.45a.5.5 0 00.348.27A5.752 5.752 0 0071.276 71a.497.497 0 00.079-.073c4.6-5.327 4.757-9.685 4.317-12.056 2.108 2.303 4.575 5.752 4.228 9.003zm-46.327 98.62a.494.494 0 01-.292-.094c-17.6-12.705-18.84-45.769-18.851-46.1a.5.5 0 011-.031c.01.327 1.237 32.906 18.437 45.322a.5.5 0 01-.294.903zM140.1 133.309c-.056-.338-5.541-33.974-4.374-65.49-4-.018-28.376-.232-32.908-2.962-6.138-3.7-6.21-26.775-6.21-27.007 0-5.776.742-24.839 10.272-27.636 8.672-2.547 56.766-3.6 67.033.082 10.612 3.8 12.056 10.78 12.823 25.79.843 16.493-3.01 27.65-10.057 29.114-6.678 1.387-27.34 2.444-30.649 2.607-.546 4.175-4.992 38.964-4.937 65.42a.5.5 0 01-.993.082zM107.166 11.173c-9.092 2.67-9.552 22.691-9.552 26.677 0 8.776 1.554 23.637 5.725 26.15 4.6 2.772 32.629 2.82 32.912 2.82a.501.501 0 01.5.52c-.922 23.417 1.884 48.127 3.416 59.457.594-27.07 4.886-59.189 4.932-59.536a.497.497 0 01.472-.433c.238-.01 23.875-1.146 30.911-2.607 6.43-1.337 10.065-12.36 9.261-28.085-.742-14.548-2.117-21.3-12.161-24.9-9.961-3.568-57.571-2.657-66.416-.063z"/><path fill="#00bac7" fill-rule="evenodd" d="M110.822 29.39c.11-3.57 2.409-5.038 6.495-5.71 4.086-.672 42.721-1.5 48.8-.434 5.809 1.017 6.615 2.665 6.429 6.02-.251 4.542-5.155 4.695-7.627 5.107-2.472.412-39.844 1.816-45.52.974-3.94-.584-8.686-2.39-8.577-5.957zm61.827 17.886c-.235-3.563-2.684-5.736-6.791-6.263-4.107-.527-42.747.009-48.788 1.288-5.769 1.222-6.517 2.9-6.213 6.244.412 4.529 5.318 4.51 7.8 4.834 2.482.324 39.884.408 45.526-.633 3.924-.723 8.702-1.908 8.466-5.47z" clip-rule="evenodd"/><path fill="#fff" fill-rule="evenodd" d="M120.892 28.9a1.633 1.633 0 01-.043-2.702 1.633 1.633 0 012.423 2.005 1.634 1.634 0 01-.71.765c2.516.744 2.741 4.28 2.741 4.28l-7.037.26s-.116-4.033 2.626-4.608z" clip-rule="evenodd"/><path fill="#fff" d="M123.959 47.937h-1.988l1.425-1.379a.506.506 0 00.116-.545.51.51 0 00-.268-.275.498.498 0 00-.548.101l-1.46 1.414.02-2.042a.503.503 0 00-.143-.355.5.5 0 00-.857.345l-.021 2.125-1.573-1.416a.5.5 0 00-.669.745l1.425 1.282H117.5a.501.501 0 100 1h2l-1.439 1.392a.504.504 0 00-.01.71.5.5 0 00.546.116.502.502 0 00.164-.107l1.459-1.413-.019 2.023a.5.5 0 101 .01l.02-2.116c1.674 1.506 1.65 1.548 1.913 1.548a.502.502 0 00.468-.32.5.5 0 00-.133-.552l-1.436-1.29h1.929a.5.5 0 100-1h-.003zm9.391 0h-1.988l1.424-1.379a.499.499 0 00-.695-.719l-1.461 1.414.02-2.042a.503.503 0 00-.143-.355.5.5 0 00-.857.345l-.02 2.125-1.573-1.416a.5.5 0 00-.669.745l1.425 1.282H126.9a.501.501 0 100 1h2l-1.439 1.392a.504.504 0 00-.01.71.5.5 0 00.546.116.502.502 0 00.164-.107l1.459-1.413-.019 2.023a.5.5 0 101 .01l.02-2.116c1.674 1.505 1.65 1.548 1.914 1.548a.498.498 0 00.486-.617.504.504 0 00-.152-.255l-1.435-1.29h1.929a.5.5 0 100-1h-.013zm9.391 0h-1.989l1.425-1.379a.499.499 0 00-.695-.719l-1.448 1.4.02-2.03a.503.503 0 00-.143-.355.5.5 0 00-.857.345l-.021 2.136-1.585-1.427a.501.501 0 00-.669.745l1.425 1.282h-1.919a.5.5 0 100 1h2l-1.439 1.392a.5.5 0 00.348.86c.271 0 .225-.022 1.82-1.567l-.02 2.036a.5.5 0 101 .01l.021-2.1c1.638 1.472 1.632 1.536 1.9 1.536a.499.499 0 00.334-.872l-1.435-1.29h1.929a.497.497 0 00.5-.5.5.5 0 00-.5-.5l-.002-.003zm9.316 0h-1.989l1.425-1.379a.499.499 0 00-.695-.719l-1.461 1.414.02-2.042a.503.503 0 00-.143-.355.5.5 0 00-.857.345l-.021 2.125-1.573-1.416a.5.5 0 00-.668.745l1.425 1.282h-1.92a.497.497 0 00-.5.5.5.5 0 00.5.5h2l-1.438 1.392a.504.504 0 00-.116.545.496.496 0 00.268.276.498.498 0 00.548-.102l1.46-1.413-.02 2.023a.5.5 0 101 .01l.021-2.117c1.674 1.506 1.65 1.55 1.914 1.55a.498.498 0 00.486-.618.504.504 0 00-.152-.255l-1.435-1.29h1.929a.5.5 0 100-1h-.008zm9.228 0h-1.975l1.424-1.379a.506.506 0 00.116-.545.493.493 0 00-.268-.275.496.496 0 00-.548.101l-1.461 1.414.02-2.042a.503.503 0 00-.693-.467.488.488 0 00-.307.462l-.021 2.136-1.585-1.427a.501.501 0 00-.669.745l1.425 1.282h-1.913a.5.5 0 100 1h2.009L155.4 50.33a.519.519 0 00-.112.16.506.506 0 00.26.66.496.496 0 00.547-.1l1.46-1.414-.02 2.023a.5.5 0 101 .01l.021-2.1c1.638 1.472 1.631 1.536 1.9 1.536a.498.498 0 00.486-.617.504.504 0 00-.152-.255l-1.435-1.29h1.929a.501.501 0 100-1l.001-.005z"/><path fill="#0e2238" d="M44.848 98.773a.499.499 0 01-.435-.746c.55-.927.982-1.92 1.287-2.955a.498.498 0 01.753-.374.5.5 0 01.237.512 13.685 13.685 0 01-1.41 3.31.5.5 0 01-.432.253zm2.982 1.115a.5.5 0 01-.477-.653c.313-.97.677-2.105.88-2.744a.506.506 0 01.63-.325.501.501 0 01.323.629c-.2.64-.568 1.777-.882 2.746a.5.5 0 01-.475.347zm2.758 1.681a.498.498 0 01-.493-.419 17.206 17.206 0 01-.1-2.916.478.478 0 01.524-.475.501.501 0 01.475.524c-.044.901-.014 1.804.09 2.7a.502.502 0 01-.496.586zm5.491 0a.503.503 0 01-.5-.449 17.179 17.179 0 01-.05-2.453.5.5 0 011 .05 16.12 16.12 0 00.046 2.3.5.5 0 01-.496.552zm4.431-1.935c-.6-1.134.014-4.034.144-4.6a.494.494 0 01.6-.376.5.5 0 01.376.6c-.29 1.267-.554 3.318-.237 3.91a.5.5 0 01-.883.466zm2.773-1.456c-.891-.587-.925-2.888-.9-3.85a.521.521 0 01.514-.485.5.5 0 01.486.514c-.038 1.379.177 2.8.45 2.987a.5.5 0 01-.55.834zm3.723-21.265a.623.623 0 00-.884-.162c-.614.423-.931 2.317 0 2.491.908.17 1.32-1.7.884-2.329zm9.372-1.641c-.923-.176-1.312 1.713-.885 2.328.35.505 1.181.42 1.423-.888.145-.8-.06-1.35-.538-1.44z"/></svg>