<?xml version="1.0" standalone="no"?><!DOCTYPE svg PUBLIC "-//W3C//DTD SVG 20010904//EN" "http://www.w3.org/TR/2001/REC-SVG-20010904/DTD/svg10.dtd"><svg xmlns="http://www.w3.org/2000/svg" version="1.0" width="1298.000000pt" height="272.000000pt" viewBox="0 0 1298.000000 272.000000" preserveAspectRatio="xMidYMid meet">
<metadata>
Created by potrace 1.16, written by Peter Selinger 2001-2019
</metadata>
<g transform="translate(0.000000,272.000000) scale(0.100000,-0.100000)" fill="#000000" stroke="none">
<path d="M4040 1400 l0 -1320 90 0 90 0 0 1320 0 1320 -90 0 -90 0 0 -1320z"/>
<path d="M1010 2239 c-70 -12 -144 -47 -197 -93 -56 -49 -111 -160 -119 -242 -12 -111 39 -271 122 -386 19 -26 34 -52 34 -56 0 -4 -26 -20 -57 -36 -155 -76 -343 -223 -503 -394 -118 -127 -290 -333 -290 -348 0 -10 157 -130 184 -140 8 -3 60 52 128 133 138 164 321 346 436 431 108 80 225 138 251 126 11 -5 82 -76 158 -159 265 -289 523 -541 583 -569 15 -7 31 5 87 61 37 38 79 81 92 95 l24 27 -34 28 c-154 127 -562 542 -726 739 -76 91 -147 204 -170 274 -21 65 -24 186 -5 222 24 44 69 63 152 63 65 0 84 -5 140 -32 36 -18 95 -59 132 -93 36 -33 69 -60 71 -60 6 0 65 51 137 117 l45 42 -45 47 c-156 162 -400 241 -630 203z"/>
<path d="M5515 1970 c-11 -4 -33 -22 -49 -38 -58 -62 -41 -173 33 -216 49 -28 145 -27 193 2 90 56 87 186 -5 242 -34 21 -133 27 -172 10z"/>
<path d="M6835 1970 c-11 -4 -33 -22 -49 -38 -58 -62 -41 -173 33 -216 49 -28 145 -27 193 2 90 56 87 186 -5 242 -34 21 -133 27 -172 10z"/>
<path d="M9415 1970 c-11 -4 -33 -22 -49 -38 -58 -62 -41 -173 33 -216 49 -28 145 -27 193 2 90 56 87 186 -5 242 -34 21 -133 27 -172 10z"/>
<path d="M11735 1970 c-11 -4 -33 -22 -49 -38 -58 -62 -41 -173 33 -216 49 -28 145 -27 193 2 90 56 87 186 -5 242 -34 21 -133 27 -172 10z"/>
<path d="M1665 1854 c-44 -36 -86 -71 -93 -78 -11 -11 49 -84 345 -417 198 -222 388 -428 424 -457 145 -120 284 -157 426 -114 82 25 162 79 262 175 58 57 658 723 709 788 11 14 -1 27 -83 94 -53 43 -97 76 -99 74 -9 -13 -551 -635 -600 -689 -75 -83 -170 -166 -220 -192 -53 -27 -116 -26 -169 5 -76 45 -175 146 -465 476 -158 179 -303 343 -322 363 l-35 38 -80 -66z"/>
<path d="M2585 1886 c-73 -33 -109 -94 -103 -177 8 -106 79 -165 188 -157 95 7 159 76 160 171 1 125 -132 213 -245 163z"/>
<path d="M4500 1365 l0 -515 140 0 140 0 0 46 0 47 22 -28 c36 -46 112 -75 199 -75 144 0 230 54 295 186 33 67 38 84 42 175 8 161 -26 268 -112 354 -106 106 -311 115 -410 19 l-36 -35 0 171 0 170 -140 0 -140 0 0 -515z m506 -7 c87 -81 54 -236 -57 -270 -32 -9 -44 -8 -81 10 -69 34 -98 105 -77 188 17 65 65 104 129 104 43 0 56 -5 86 -32z"/>
<path d="M5870 1365 l0 -515 140 0 140 0 0 152 0 152 103 -152 102 -152 174 0 c137 0 171 3 164 13 -6 6 -76 93 -156 193 l-145 181 149 189 c82 104 149 192 149 197 0 4 -75 7 -167 7 l-168 -1 -102 -146 -103 -147 0 272 0 272 -140 0 -140 0 0 -515z"/>
<path d="M8930 1709 l0 -171 -29 30 c-46 46 -98 66 -181 70 -212 11 -350 -149 -350 -403 0 -171 69 -305 187 -365 37 -19 67 -26 136 -28 79 -4 93 -1 142 23 30 14 64 38 75 52 l20 26 0 -47 0 -46 140 0 140 0 0 515 0 515 -140 0 -140 0 0 -171z m-55 -350 c81 -72 65 -218 -30 -263 -49 -24 -96 -14 -143 28 -32 30 -36 39 -40 95 -8 108 39 171 128 171 41 0 55 -5 85 -31z"/>
<path d="M7635 1631 c-40 -10 -86 -35 -124 -67 l-31 -26 0 46 0 46 -140 0 -140 0 0 -390 0 -390 140 0 140 0 0 208 c0 114 5 225 10 247 13 59 58 95 118 95 28 0 57 -7 71 -16 45 -32 51 -67 51 -309 l0 -225 141 0 140 0 -3 288 -3 287 -28 57 c-34 70 -94 124 -161 143 -52 16 -130 18 -181 6z"/>
<path d="M10215 1631 c-40 -10 -86 -35 -124 -67 l-31 -26 0 46 0 46 -140 0 -140 0 0 -390 0 -390 140 0 140 0 0 208 c0 114 5 225 10 247 13 59 58 95 118 95 28 0 57 -7 71 -16 45 -32 51 -67 51 -309 l0 -225 141 0 140 0 -3 288 -3 287 -28 57 c-34 70 -94 124 -161 143 -52 16 -130 18 -181 6z"/>
<path d="M10903 1619 c-60 -23 -132 -89 -162 -148 -68 -131 -68 -329 -2 -459 57 -112 140 -165 269 -170 96 -5 153 12 208 60 l34 30 0 -48 c0 -108 -36 -163 -113 -171 -61 -7 -114 12 -132 48 l-16 29 -139 0 -140 0 6 -27 c27 -126 91 -211 191 -256 117 -53 285 -59 402 -15 76 29 159 112 192 193 24 60 24 61 27 503 l3 442 -141 0 -140 0 0 -44 0 -44 -36 34 c-71 65 -206 83 -311 43z m292 -260 c81 -72 65 -218 -30 -263 -49 -24 -96 -14 -143 28 -32 30 -36 39 -40 95 -8 108 39 171 128 171 41 0 55 -5 85 -31z"/>
<path d="M12535 1631 c-40 -10 -86 -35 -124 -67 l-31 -26 0 46 0 46 -140 0 -140 0 0 -390 0 -390 140 0 140 0 0 208 c0 114 5 225 10 247 13 59 58 95 118 95 28 0 57 -7 71 -16 45 -32 51 -67 51 -309 l0 -225 141 0 140 0 -3 288 -3 287 -28 57 c-34 70 -94 124 -161 143 -52 16 -130 18 -181 6z"/>
<path d="M5450 1240 l0 -390 140 0 140 0 0 390 0 390 -140 0 -140 0 0 -390z"/>
<path d="M6770 1240 l0 -390 140 0 140 0 0 390 0 390 -140 0 -140 0 0 -390z"/>
<path d="M9350 1240 l0 -390 140 0 140 0 0 390 0 390 -140 0 -140 0 0 -390z"/>
<path d="M11670 1240 l0 -390 140 0 140 0 0 390 0 390 -140 0 -140 0 0 -390z"/>
</g>
</svg>