<?xml version="1.0" standalone="no"?>
<!DOCTYPE svg PUBLIC "-//W3C//DTD SVG 20010904//EN"
 "http://www.w3.org/TR/2001/REC-SVG-20010904/DTD/svg10.dtd">
<svg version="1.0" xmlns="http://www.w3.org/2000/svg"
 width="381.000000pt" height="218.000000pt" viewBox="0 0 381.000000 218.000000"
 preserveAspectRatio="xMidYMid meet">
<metadata>
Created by potrace 1.16, written by Peter Selinger 2001-2019
</metadata>
<g transform="translate(0.000000,218.000000) scale(0.100000,-0.100000)"
fill="#000000" stroke="none">
<path d="M1010 1859 c-70 -12 -144 -47 -197 -93 -56 -49 -111 -160 -119 -242
-12 -111 39 -271 122 -386 19 -26 34 -52 34 -56 0 -4 -26 -20 -57 -36 -155
-76 -343 -223 -503 -394 -118 -127 -290 -333 -290 -348 0 -10 157 -130 184
-140 8 -3 60 52 128 133 138 164 321 346 436 431 108 80 225 138 251 126 11
-5 82 -76 158 -159 265 -289 523 -541 583 -569 15 -7 31 5 87 61 37 38 79 81
92 95 l24 27 -34 28 c-154 127 -562 542 -726 739 -76 91 -147 204 -170 274
-21 65 -24 186 -5 222 24 44 69 63 152 63 65 0 84 -5 140 -32 36 -18 95 -59
132 -93 36 -33 69 -60 71 -60 6 0 65 51 137 117 l45 42 -45 47 c-156 162 -400
241 -630 203z"/>
<path d="M1665 1474 c-44 -36 -86 -71 -93 -78 -11 -11 49 -84 345 -417 198
-222 388 -428 424 -457 145 -120 284 -157 426 -114 82 25 162 79 262 175 58
57 658 723 709 788 11 14 -1 27 -83 94 -53 43 -97 76 -99 74 -9 -13 -551 -635
-600 -689 -75 -83 -170 -166 -220 -192 -53 -27 -116 -26 -169 5 -76 45 -175
146 -465 476 -158 179 -303 343 -322 363 l-35 38 -80 -66z"/>
<path d="M2585 1506 c-73 -33 -109 -94 -103 -177 8 -106 79 -165 188 -157 95
7 159 76 160 171 1 125 -132 213 -245 163z"/>
</g>
</svg>
