<svg xmlns="http://www.w3.org/2000/svg" fill="none" viewBox="0 0 200 200" height="700" width="700"><path fill="#def6f8" fill-rule="evenodd" d="M75.033 98.637l.556 35.614-.4.952-19.612-.772-.7-1.509 3.9-35.268 16.256.983z" clip-rule="evenodd"/><path fill="#0e2238" d="M73.557 101.067c0-.266-.094-.486-.359-.5l-12.507-.782a.5.5 0 00-.529.45l-2.98 30.192a.503.503 0 00.28.5.509.509 0 00.195.049l15.265.684a.52.52 0 00.512-.5v-2.86a.514.514 0 00.038-.135c0-.063.1-.124.085-.181v-26.917zm-7.193.072l-.1 2.021-2.056-.112.161-2.034 1.995.125zm-5.852 5.726l2.379.128-.159 2c-2.4-.13-2.275-.144-2.422-.077l.202-2.051zm3.378.183l2.173.117-.1 2.007-2.232-.121.159-2.003zm2.571 12.195l2.8.152-.032 2.015-2.869-.155.101-2.012zm-1.1 1.958l-2.581-.14.159-2.008 2.523.136-.101 2.012zm7.171-2.63l-2.255-.122.033-2.011 2.222.121v2.012zm-2.206-3.133l.032-2.011 2.2.119v2.012l-2.232-.12zm2.254-2.893l-2.206-.119.033-2.011 2.173.119v2.011zm-3.2-.173l-2.565-.139.1-2.007 2.5.135-.035 2.011zm-.016 1l-.033 2.012-2.666-.145.1-2.007 2.599.14zm-.049 3.012l-.032 2.011-2.768-.15.1-2.008 2.7.147zm.951 3.065l2.246.123v2.016l-2.279-.124.033-2.015zm2.344-9.917l-2.182-.118.033-2.011 2.149.117v2.012zm-3.181-.172l-2.464-.134.1-2.007 2.4.13-.036 2.011zm-3.512.811l-.1 2.008-2.318-.126.158-2 2.26.118zm-.15 3.006l-.1 2.008-2.407-.13.159-2.005 2.348.127zm-.15 3.006l-.1 2.008-2.493-.135.158-2 2.435.127zM62.02 118l-2.593-.141.2-2 2.554.138L62.02 118zm-.079 1l-.159 2.007-2.651-.143.2-2.006 2.61.142zm-2.909 2.859L61.7 122l-.158 1.991-2.709-.146.199-1.986zm3.67.2l2.61.141-.1 1.994-2.669-.145.159-1.99zm3.609.195l2.9.158-.033 2-2.969-.161.102-1.997zm3.9.212l2.271.124v2l-2.3-.124.029-2zm2.417-15.946l-2.157-.117.032-2.01 2.125.115v2.012zm-3.157-.171l-2.361-.128.1-2.007 2.294.124-.033 2.011zm-2.211-3.134l.1-2.013 2.192.137-.032 2-2.26-.124zm-1.049.945l-.1 2.007-2.144-.116.159-2 2.085.109zM62.97 106l-2.359-.128.2-2 2.32.126L62.97 106zm-2.746 3.793c.16.111.1.08 2.429.206l-.158 2-2.476-.134.205-2.072zM62.416 113l-.159 2-2.534-.138.2-2 2.493.138zm-3.678 11.848l2.728.148-.159 2.014-2.768-.15.199-2.012zm3.727.2l2.7.146-.1 2.017-2.756-.149.156-2.014zm2.547 3.163l-.1 2.088-2.848-.128.167-2.111 2.781.151zm1 .054l3.105.168-.033 2.053-3.176-.142.104-2.079zm.05-1l.1-2.017 3 .163-.032 2.021-3.068-.167zm4.1-1.8l2.294.125v2.021l-2.327-.125.033-2.021zm2.49-21.957l-2.134-.115.032-1.99 2.1.132.002 1.973zm-9.286-2.554l-.162 2.042-2.3-.125.2-2.058 2.262.141zm-4.928 26.9l2.787.15-.168 2.121-2.828-.125.209-2.146zm11.642 2.676l.033-2.044 2.319.126v2.023l-2.352-.105z"/><path fill="#0e2238" d="M76.087 134.1l-.554-35.47a.5.5 0 00-.47-.491l-16.256-.983a.515.515 0 00-.527.444c-4.21 37.782-3.946 35.337-3.855 35.533l.7 1.509a.496.496 0 00.435.29l19.631.771a.501.501 0 00.46-.305c.504-1.198.44-.98.436-1.298zM59.222 98.182l15.318.926.541 34.625-19.649-1.261 3.79-34.29z"/><path fill="#def6f8" fill-rule="evenodd" d="M169.984 54.5s20.975 5.126 23.839 12.253c2.864 7.127.407 90.308-6.311 97.933s-45.375 9.017-71.971 5.709l-1.185-48.882 41.771.495 5.9-67.508h7.957z" clip-rule="evenodd"/><path fill="#0e2238" d="M115.479 170.887a.503.503 0 01-.439-.483c-1.305-52.38-1.271-49.011-1.04-49.246.231-.235-2.258-.191 42.133.347a.499.499 0 01.494.506.533.533 0 01-.506.494l-41.252-.489 1.161 47.932c20.406 2.489 45.505 2.11 59.85-.918a.503.503 0 01.592.386.5.5 0 01-.386.593c-16.592 3.501-43.042 3.064-60.607.878z"/><path fill="#fff" fill-rule="evenodd" d="M175.751 138.973s-6.9 12.254-14.336 14.481c-7.436 2.227-41.458 3.075-46.36.5l-1.026-35.086 29.6 1.4 32.122 18.705z" clip-rule="evenodd"/><path fill="#0e2238" d="M114.822 154.394a.495.495 0 01-.267-.428l-1.026-35.086a.499.499 0 01.524-.514l29.6 1.4c.19.009-2.123-1.305 32.35 18.778a.503.503 0 01.184.677c-.286.508-7.085 12.456-14.628 14.715-7.667 2.291-41.71 3.101-46.737.458zm.723-.764c5.606 2.35 38.529 1.5 45.726-.655 6.386-1.912 12.5-11.659 13.8-13.822l-31.584-18.4-28.938-1.366.996 34.243z"/><path fill="#def6f8" fill-rule="evenodd" d="M81.425 99.851l27.523.312 2.464 25.486-30.325-.435.338-25.363z" clip-rule="evenodd"/><path fill="#0e2238" d="M111.91 125.6l-2.465-25.487a.502.502 0 00-.491-.45l-27.523-.313a.485.485 0 00-.506.493c-.1 7.369-.192 13.942-.339 25.363a.5.5 0 00.493.507l30.334.435a.498.498 0 00.497-.548zm-3.417-24.943l1.52 15.715-28.3-.561.206-15.455 26.574.301zm-26.9 24.063l.106-7.909 28.411.563.751 7.766-29.268-.42z"/><path fill="#fff" fill-rule="evenodd" d="M97.857 94.244a4.132 4.132 0 00-2.088.33c-2.891 1.3-4.269 3.483-4.47 5.224-.201 1.741.845 7.684 2 7.431.338-.073.567-.766.716-1.708l.117-.868a50.02 50.02 0 00.185-5.17 9.024 9.024 0 011.787-.5 285.19 285.19 0 011.753-4.74zm3.388.894l-1.459 4.03c1.372.256 2.309.484 2.309.484s-1.5.779-3.148 1.833l-3.8 2.989s-1.816 3.663 2.174.956c1.962-.886 3.567.3 6.983-2.137 2.777-1.979 3.466-1.693 7.242-1.424 3.776.269 21.961 1.264 25.442-1.54l-7.055-10.888s-9.774 2.493-13.957 4.333a24.972 24.972 0 01-10.717 2.134 11.672 11.672 0 01-4.014-.77z" clip-rule="evenodd"/><path fill="#0e2238" d="M93.227 107.744a.949.949 0 01-.646-.273c-1.215-1.1-1.947-6.258-1.778-7.724.2-1.779 1.563-4.189 4.761-5.622 3.133-1.4 6.138 1.392 9.685 1.282 10.155-.273 6.21-1.778 24.564-6.45a.5.5 0 11.247.97c-.1.023-9.783 2.5-13.88 4.3a25.566 25.566 0 01-10.9 2.175c-3.734.105-6.669-2.549-9.3-1.369-2.816 1.261-4 3.32-4.178 4.824-.2 1.707.741 6.16 1.4 6.828.441-.7.676-4.178.62-7.19a.5.5 0 01.305-.47 9.601 9.601 0 011.807-.517.5.5 0 11.184.984 9.34 9.34 0 00-1.29.34c.023 1.768.124 7.912-1.601 7.912zm-7.691-10.431c-.278 0 1.309 1.218-24.239-19.74a.5.5 0 01.121-.846l21.8-9.246a.5.5 0 01.47.042l24.972 16.424a.498.498 0 01.149.682.492.492 0 01-.185.175C84.192 98.109 85.733 97.313 85.536 97.313zM62.57 77.325l23.022 18.888 21.822-11.89-24.051-15.817-20.793 8.819z"/><path fill="#def6f8" fill-rule="evenodd" d="M97.857 94.244c-.382 1-3.7 10.308-3.722 10.409-.038.336-.668 4.3-.23 5.284.438.984 2.885-3.405 3.177-3.972l.246-.545c-1.474.647-2.731 1.934-2.722.195.006-1.15 2.293-2.854 4.342-4.141l5.741-15.854a1.823 1.823 0 00-2.461-.53c-.828.338-2.661 4.662-4.371 9.154z" clip-rule="evenodd"/><path fill="#0e2238" d="M94.613 106.885a1.367 1.367 0 01-.5-1.257c.01-1.846 4.281-4.488 6.572-5.772-.291-.06-.622-.126-.983-.194a.5.5 0 11.185-.982c1.387.26 2.334.49 2.334.49a.502.502 0 01.325.718.498.498 0 01-.211.211c-3 1.559-7.216 4.306-7.222 5.534a1.55 1.55 0 00.03.36 5.29 5.29 0 00.9-.45 5.985 5.985 0 013.39-1.025 7.692 7.692 0 004.591-1.628c2.66-1.9 3.645-1.816 6.571-1.59 4.278.329 22.718 1.361 26.089-1.356a.504.504 0 01.558-.057.5.5 0 01.07.835c-3.719 3-22 1.942-26.795 1.575-2.869-.22-3.549-.277-5.913 1.407a8.727 8.727 0 01-5.095 1.811 5.065 5.065 0 00-2.971.9c-.624.352-1.353.805-1.925.47z"/><path fill="#00bac7" fill-rule="evenodd" d="M166.08 65.9a8.667 8.667 0 012.085 3.105s7.52 10.358 9.458 19.84c1.938 9.484 1.928 37.401-1.8 50.101 0 0-24.147 8.39-33.341-12.005-2.083-4.62-5.766-10.363-6-14.594-.059-1.094 1.968-1.569 2.758-2.164A45.252 45.252 0 01140.727 99l-2.094 3.179s-6.451-6.811-9.159-13.888c0 0 6.049-5.178 8.242-8.246 2.193-3.068 10.22-10.117 14.731-11.98 4.511-1.861 13.633-2.165 13.633-2.165z" clip-rule="evenodd"/><path fill="#0e2238" d="M178.113 88.747c-1.872-9.155-8.958-19.216-9.51-19.988a9.093 9.093 0 00-2.2-3.242.5.5 0 00-.641.767 8.335 8.335 0 011.946 2.918c.045.105 7.52 10.413 9.429 19.745 1.97 9.64 1.853 37.08-1.719 49.6-2.531.789-24.062 6.854-32.479-11.816-2.084-4.622-5.728-10.314-5.952-14.416-.035-.638 1.832-1.19 2.559-1.738a.494.494 0 00.2-.392c.092-6.648 2.376-15.653 4.367-23.368a.492.492 0 00-.046-.387.487.487 0 00-.31-.237.496.496 0 00-.531.193.505.505 0 00-.081.182c-3.669 14.289-2.529 11.694-3.237 12.768-4.117-4.232-8.185-12.718-8.227-12.806a.5.5 0 00-.9.43c.176.37 4.281 8.933 8.566 13.23l-.772 1.172c-1.475-1.648-6.386-7.4-8.628-13.255a.512.512 0 00-.263-.278.502.502 0 00-.671.636c2.713 7.088 9 13.772 9.263 14.053a.504.504 0 00.619.085.504.504 0 00.161-.154l.558-.846a49.31 49.31 0 00-.861 8.3c-.975.572-2.836 1.079-2.762 2.463.24 4.372 3.95 10.135 6.039 14.773 5.143 11.405 14.944 13.963 22.7 13.962a38.603 38.603 0 0011.259-1.691.507.507 0 00.316-.331c3.676-12.519 3.811-40.534 1.808-50.332z"/><path fill="#0e2238" d="M154.534 79.935a.882.882 0 01-.743-.323c-.71-.918-.558-3.743-.344-5.722-1.348 1.684-3.2 3.678-4.26 3.476a.972.972 0 01-.761-.8c-.58-2.312 2.771-7.932 3.155-8.566a.5.5 0 01.855.519c-.983 1.622-3.446 6.186-3.04 7.8.041.164.04.1.04.1.494 0 2.548-2.14 4.346-4.618a.5.5 0 01.9.37c-.367 2.344-.642 5.927-.14 6.773 1.532.133 10.989-6.526 12.5-11.36a.5.5 0 01.954.3c-1.496 4.787-10.967 12.05-13.462 12.05z"/><path fill="#fff" fill-rule="evenodd" d="M147.121 36.676s-5.279 2.594-6.612 6.54c-1.333 3.946 1.31 3.843-.133 6.507-1.443 2.664-4.422 4.845-3.013 6.286a3.863 3.863 0 002.668 1.38s.475 5.287 2.694 8.526a5.274 5.274 0 003.168 2.367c2.15.477 4.4.145 6.321-.933l1.575 4.432s3.518 1.937 12.238-5.777l.994-25.065a26.537 26.537 0 00-19.9-4.263z" clip-rule="evenodd"/><path fill="#0e2238" d="M155.012 72.494a3.172 3.172 0 01-1.464-.27c-.24-.133-.129.013-1.609-4.152a9.6 9.6 0 01-6.15.7c-4.033-.87-5.72-6.89-6.211-10.928a4.87 4.87 0 01-2.572-1.485c-1.8-1.837 1.462-4.16 2.93-6.874a2.157 2.157 0 00.118-2.264 5.18 5.18 0 01-.019-4.165c1.384-4.1 6.644-6.715 6.867-6.824a.502.502 0 01.44.9c-.051.025-5.11 2.547-6.36 6.247a4.238 4.238 0 000 3.478 3.1 3.1 0 01-.169 3.108c-1.34 2.477-4.083 4.688-3.094 5.7a3.4 3.4 0 002.292 1.23.51.51 0 01.516.454c0 .052.491 5.2 2.609 8.29A4.784 4.784 0 00146 67.8a8.564 8.564 0 005.945-.867.498.498 0 01.741.253l1.5 4.213c.737.2 4.2.657 11.353-5.624l.065-1.623a.486.486 0 01.519-.479.5.5 0 01.48.52l-.074 1.836a.505.505 0 01-.168.355c-5.873 5.193-9.512 6.11-11.349 6.11z"/><path fill="#0e2238" fill-rule="evenodd" d="M148.2 35.116a5.479 5.479 0 00-6.735-1.032c-3.954 2.15-4.756 8.641-1.344 11.364a7.453 7.453 0 011.227-3.93 15.336 15.336 0 015.771-4.842s4.777.8 3.7 3.92a7.635 7.635 0 01-3.546 4.275 5.436 5.436 0 007.521-1.923s-.524 4.482-2.789 6.468a20.736 20.736 0 002.491-1.378s1.986 1.751 1.283 3.588c-.703 1.837-2.006 4.312-2.006 4.312s2.5.807 3.521.45c0 0 1.5-4.687 4.384-5.043 2.884-.356 6.025 2.422 2.683 6.641 0 0 .034 5.666 1.725 6.492a77.037 77.037 0 013.246-9.487c1.425-2.893 4.662-9.033 3.229-12.924-1.433-3.89-8.443-10.578-14.37-10.12-6.224.481-7.359 1.373-9.991 3.17z" clip-rule="evenodd"/><path fill="#0e2238" d="M151.677 49.038a8.959 8.959 0 002.258-4.336c-3.2 2.86-6.885.618-6.927.59a.498.498 0 01-.148-.702.498.498 0 01.2-.172c1.55-.88 2.72-2.3 3.288-3.99.101-.245.145-.511.128-.777a1.76 1.76 0 00-.228-.754c-.6-1.012-2.289-1.544-3.064-1.7a14.77 14.77 0 00-5.419 4.593 7.071 7.071 0 00-1.148 3.642.501.501 0 11-1 .037 7.93 7.93 0 011.306-4.22 15.698 15.698 0 015.982-5.028.5.5 0 01.292-.04c.118.02 2.9.508 3.91 2.21a2.728 2.728 0 01.18 2.37 8.367 8.367 0 01-2.98 4.055c1.293.489 3.95.959 6.069-2.148a.498.498 0 01.587-.186.503.503 0 01.322.526 15.328 15.328 0 01-1.5 4.877c2.253-1.372 5.6-3.955 5.545-7.146-.087-4.83-4.787-8.287-10.913-5.175a.5.5 0 11-.453-.891c6.664-3.386 12.263.363 12.366 6.048.1 5.439-7.8 9.005-8.132 9.154a.5.5 0 01-.521-.837zM143.6 62.127a3.75 3.75 0 01-1.458-.318.498.498 0 01-.196-.643.5.5 0 01.621-.257 2.23 2.23 0 001.687.081 1.747 1.747 0 00.79-1.324.5.5 0 11.983.187 2.43 2.43 0 01-2.427 2.274zm.824-9.855c.418-.035.715-.57.663-1.192-.052-.623-.432-1.1-.85-1.066-.418.034-.714.568-.663 1.19.051.624.432 1.102.85 1.068z"/><path fill="#0e2238" d="M161.307 50.962l-11.9-2.672v-.558a.5.5 0 00-.488-.5l-7.552-.163a.496.496 0 00-.47.302.508.508 0 00-.041.192l-.074 6.667a.501.501 0 00.468.5l7.616.493a.53.53 0 00.516-.5v-5.41c12.371 2.774 11.714 2.636 11.815 2.636a.5.5 0 00.11-.987zm-12.919 3.229l-6.6-.427.062-5.688 6.537.142.001 5.973z"/><path fill="#0e2238" d="M169.554 54.543a.501.501 0 00-.669.228 67.565 67.565 0 00-3.049 8.756 13.809 13.809 0 01-.972-5.372c2-2.613 1.484-4.464.989-5.344a4.236 4.236 0 00-4.235-1.963c-2.77.343-4.32 4.06-4.7 5.116a7.846 7.846 0 01-2.417-.335c.426-.838 1.239-2.484 1.751-3.824.818-2.137-1.328-4.061-1.419-4.142a.5.5 0 10-.662.75c.018.015 1.72 1.539 1.146 3.034-.682 1.787-1.968 4.233-1.981 4.258a.506.506 0 00-.02.421.499.499 0 00.309.287c.927.3 3.857 1.045 4.15.127.015-.044 1.442-4.386 3.971-4.7a3.28 3.28 0 013.24 1.46c1 1.773-.51 6.154-5.1 5.848a.5.5 0 00-.54.46.5.5 0 00.459.54 6.693 6.693 0 004.1-.97c.348 5.926 2.416 6.333 2.665 5.435a76.93 76.93 0 013.214-9.4.498.498 0 00-.074-.552.508.508 0 00-.156-.118z"/><path fill="#0e2238" d="M164.817 53.1a1.961 1.961 0 00-1.817-.75c-2.114.06-3.607 1.552-4.095 4.09a.502.502 0 00.397.586.498.498 0 00.585-.396 5.474 5.474 0 01.717-1.9c.718.464 1.49.836 2.3 1.109a.499.499 0 00.593-.709.497.497 0 00-.293-.245 9.063 9.063 0 01-1.932-.916c.498-.4 1.116-.62 1.754-.623.494-.02.813.087.959.3.272.4.022 1.213-.088 1.467a.498.498 0 00.259.658.498.498 0 00.658-.258 2.812 2.812 0 00.003-2.413z"/><path fill="#0e2238" d="M160.518 59.019c.651 0 1.178-.504 1.178-1.125s-.527-1.125-1.178-1.125c-.651 0-1.178.504-1.178 1.125s.527 1.125 1.178 1.125zM54.247 62.466l-5.392-.224a.5.5 0 11.042-1l5.37.224a.5.5 0 01-.02 1zm58.569 32.358l-.874-29.935-44.661-1.863a.5.5 0 11.042-1l45.126 1.882a.501.501 0 01.479.485l.888 30.4a.5.5 0 11-1 .029v.002zm2.384 81.191l-2.164-74a.483.483 0 01.033-.192.493.493 0 01.453-.322.537.537 0 01.514.485l2.164 74.005a.5.5 0 11-1 .029v-.005z"/><path fill="#0e2238" d="M94.084 110.577a.697.697 0 01-.635-.435c-.471-1.052.08-4.831.2-5.578 1.519-4.551 6.552-19.186 8.395-19.938a2.333 2.333 0 013.089.754.494.494 0 01.032.41l-5.693 15.71a.493.493 0 01-.258.283.499.499 0 01-.683-.624l5.6-15.453a1.456 1.456 0 00-1.71-.153c-1.034.574-4.782 10.238-7.805 19.248a24.672 24.672 0 00-.33 4.572 20.588 20.588 0 002.593-4.154.503.503 0 01.652-.244.499.499 0 01.264.644c-.462 1.048-2.576 4.958-3.711 4.958z"/><path fill="#fff" fill-rule="evenodd" d="M136.526 112.85l-2.988 2.663c-3.035.133-6.05.555-9.005 1.26-3.818 1.057-20.609 5.584-28.083 4.818-7.474-.766-21.162-4.835-25.555-2.6-4.393 2.235-6.181 4.162-5.045 4.713.478.232 2.037-.521 2.037-.521a7.171 7.171 0 00-2.181 2.653c-.64 1.549-.584 2.29.148 2.31.732.02 1.854-2.008 3.869-2.962a10.194 10.194 0 017.917-.536s-5.458.193-7.287 1.523c-1.829 1.33-4.43 3.869-3.122 4.336 1.308.467 6.531-5.727 12.681-2.189 0 0-4.37.65-6.293 2.4s-1.378 2.674-.557 2.713c.821.039 2.912-2.635 5.973-2.6 3.061.035 7.933.844 11.391.22s2.574-1.136 7.632-.729c5.058.407 21.846.869 31.416-.48a46.256 46.256 0 0018.881-6.7s-4.779-2.309-11.829-10.292z" clip-rule="evenodd"/><path fill="#0e2238" d="M176.606 103.888a.499.499 0 00-.681.19c-2.676 4.747-12.546 13.633-18.135 18.46-6.37-2.832-15.639-10.632-17.761-12.452 3.6-2.894 12.6-8.154 18.6-17.263a22.988 22.988 0 0115.209-10.21.499.499 0 00-.107-.993 23.544 23.544 0 00-15.937 10.654c-6.142 9.331-15.575 14.58-18.84 17.4a.495.495 0 00-.15.616.5.5 0 00.142.177c.67.588 10.783 9.405 18.009 12.786-1.4 1.2-2.434 2.064-2.867 2.424-9.482-3.642-17.1-13.068-17.175-13.164a.502.502 0 00-.782.625c.079.1 8.008 9.915 17.878 13.578a.5.5 0 00.492-.083c5.157-4.239 18.974-16.178 22.294-22.068a.501.501 0 00-.189-.677z"/><path fill="#0e2238" d="M142.134 108.4a.506.506 0 01-.372-.163.506.506 0 01-.128-.386c1.489-15.149 11.792-35.465 11.9-35.668a.504.504 0 01.488-.284.492.492 0 01.347.177c.043.051.075.11.095.175a.506.506 0 01-.04.387c-.1.2-10.32 20.352-11.791 35.311a.499.499 0 01-.499.451zm6.258 14.718a.504.504 0 00-.505-.234.5.5 0 00-.183.068 44.09 44.09 0 01-18.3 6.393c-9.51 1.341-26.248.884-31.306.477-3.643-.293-4.3-.115-5.6.24-3.441.939-5.31.836-9.974.471-.961-.075-2.568-.2-3.539-.2-3.067 0-5.31 2.531-5.9 2.6-.051 0-.222-.018-.26-.125-.065-.179.089-.77 1.131-1.718 1.786-1.625 5.987-2.267 6.029-2.274a.498.498 0 00.418-.402.5.5 0 00-.242-.526c-6.183-3.556-11.592 2.168-12.78 2.168-.067-.394 1.273-2.028 3.266-3.478 1.4-1.016 5.535-1.375 7.011-1.427a.496.496 0 00.478-.428.5.5 0 00-.337-.546 10.654 10.654 0 00-8.291.558c-2.007.951-3.144 2.843-3.721 2.911 0 0-.167-.29.381-1.616 1.34-3.246 5.876-4.383 9.392-4.129a.5.5 0 00.054-1 13.705 13.705 0 00-7.562 1.571c-.413.238-1.572.884-2.035.762-.05-.349 1.167-1.789 5.105-3.8 4.174-2.126 17.917 1.9 25.277 2.65 7.329.746 23.49-3.511 28.267-4.834a47.537 47.537 0 018.892-1.243c.255-.009.089.07 3.3-2.789a.498.498 0 00.154-.545.484.484 0 00-.26-.292.495.495 0 00-.559.091l-2.855 2.544a46.974 46.974 0 00-8.938 1.27c-4.735 1.312-20.74 5.534-27.9 4.8-7.591-.777-21.218-4.9-25.833-2.545-1.7.868-5.666 3.064-5.651 4.692a1.03 1.03 0 001.07 1.005 5.964 5.964 0 00-.843 1.4c-.524 1.267-.615 2.051-.3 2.543a1.02 1.02 0 00.892.458c1.04.009 1.733-1.675 3.946-2.826-.873.7-3.593 3.023-3.4 4.375a.962.962 0 00.675.783c1.682.6 5.828-4.772 11.252-2.85a12.262 12.262 0 00-5.032 2.219c-1.5 1.363-1.588 2.273-1.4 2.8a1.241 1.241 0 001.153.785c1.157.039 3-2.6 5.992-2.6 3.067.032 7.945.852 11.486.213 3.541-.639 2.534-1.124 7.5-.723 5.088.409 21.939.867 31.525-.484a45.014 45.014 0 0018.683-6.53.502.502 0 00.177-.683z"/><path fill="#def6f8" fill-rule="evenodd" d="M15.743 97.366s-4.767 16.134-2.337 18.16 32.444 1.723 32.444 1.723l5.094-12.88-16.42-.472-18.781-6.53z" clip-rule="evenodd"/><path fill="#0e2238" d="M13.086 115.91c-2.554-2.129 1.366-15.94 2.178-18.686a.502.502 0 01.919-.097.5.5 0 01.04.38c-1.941 6.569-4 16.383-2.5 17.634 1.667 1.391 20.585 1.667 32.12 1.608a.5.5 0 01.007 1c-3.228.032-30.27.239-32.764-1.839z"/><path fill="#def6f8" fill-rule="evenodd" d="M22.319 124.32h4.5l24.119-50.151-8.793-49.412L37.886 24 5 53.374l17.319 70.946z" clip-rule="evenodd"/><path fill="#0e2238" d="M51.164 73.719a.5.5 0 00-.668.234l-23.521 48.9-17.127-68.69 32.638-29.031a.5.5 0 10-.665-.747L9.132 53.462l-4.061-.585a.5.5 0 00-.557.615l17.319 70.947a.497.497 0 00.486.381h4.475a.503.503 0 00.481-.282L51.4 74.387a.5.5 0 00-.236-.668zM5.661 53.973l3.224.464 17.3 69.383h-3.474L5.661 53.973z"/><path fill="#fff" fill-rule="evenodd" d="M13.409 55.585l13.6 57.211 20.666-40.91-7.5-41.975-26.766 25.674z" clip-rule="evenodd"/><path fill="#0e2238" d="M26.523 112.912L12.923 55.7a.5.5 0 01.14-.477L39.829 29.55a.5.5 0 01.838.273l7.5 41.975c.046.255 1.5-2.666-20.711 41.224a.494.494 0 01-.505.271.501.501 0 01-.428-.381zM13.962 55.748l13.218 55.6 19.974-39.539-7.307-40.891-25.885 24.83z"/><path fill="#00bac7" fill-rule="evenodd" d="M42.154 100.123l.854 2.248 11.033.726 2.6-7.178-.562-2.211h-9.94l-3.985 6.415z" clip-rule="evenodd"/><path fill="#0e2238" d="M57.125 95.8l-.562-2.207a.5.5 0 00-.484-.381h-9.94a.5.5 0 00-.425.233l-3.985 6.418a.5.5 0 00-.043.442l.855 2.248a.502.502 0 00.435.321l11.065.727a.502.502 0 00.471-.33c2.846-7.847 2.668-7.261 2.613-7.471zm-10.708-1.592h8.511l-2.342 5.865-9.359-.73 3.19-5.135zm-3.658 6.1l9.841.769.6 1.463-9.838-.648-.603-1.584zm11.219 1.492l-.51-1.242 2.344-5.868.307 1.2-2.141 5.91z"/><path fill="#def6f8" fill-rule="evenodd" d="M63.126 57.452l3.446-13.678.341 1.5s.534-1.308.886-1.167c.352.14.454 2.03.454 2.03s.555-1.641.957-1.716c.402-.075-2.982 11.969-2.982 11.969a7.01 7.01 0 01-3.102 1.062z" clip-rule="evenodd"/><path fill="#00bac7" fill-rule="evenodd" d="M59.139 57.734l-1.913-14.283-1.267 1.262c-.46-.265-.936-.5-1.427-.7-.393-.115 1.714 13.291 1.714 13.291a2.834 2.834 0 002.893.43z" clip-rule="evenodd"/><path fill="#def6f8" fill-rule="evenodd" d="M59.239 56.341l1.913-14.283 1.267 1.262c.46-.265.936-.499 1.427-.7.392-.115-1.94 15.042-1.94 15.042-.593.453-1.773.917-2.346.381-.305-.282-.16-.843-.321-1.702z" clip-rule="evenodd"/><path fill="#0e2238" d="M74.989 66.37a.5.5 0 00-.271-.443c-.149-.077.064-.055-3.171-.055a.502.502 0 00-.372.166 37.563 37.563 0 00-2.921 3.3c-.061.148-.04.122.021 2.119a.5.5 0 00.465.483l2.765.194a.5.5 0 00.6-.279c2.97-3.97 2.835-3.726 2.842-3.952l.042-1.533zm-3.219.5h1.57l-2.1 2.25-1.44-.05 1.97-2.2zm-2.539 3.18l1.769.063.091.989-1.833-.128-.027-.924z"/><path fill="#def6f8" fill-rule="evenodd" d="M97 69.557a11.983 11.983 0 01-2.627-6.213c-.317-2.284-1.843-5.728-.49-7.091 1.551-1.562 3.244-2.248 6.328-2.424 2.624-.15 7.327 1.122 7.5 3.245a5.843 5.843 0 01-.178 1.926 2.458 2.458 0 012.231-.234c1.245.487 1.352 2.852.285 4.79a9.589 9.589 0 01-4.933 4.206 8.753 8.753 0 01-1.143 1.759c1.193.9 2.1 2.688.579 4.358-1.6 1.752-6.808 1.78-8.319-.383-1.511-2.163.767-3.94.767-3.94zm9.079-4.33l.812-4.084s1.031-1.181 1.894-.72c.863.463-.085 3.046-2.711 4.804h.005z" clip-rule="evenodd"/><path fill="#0e2238" d="M111.08 59.526a1.99 1.99 0 00-1.126-1.246 2.916 2.916 0 00-2.055-.03.5.5 0 00-.781.31c-.152.762-.466 1.58-.717 2.459a.5.5 0 00.911.39c.215-.221.848-.767 1.238-.557.01.005.04.058.046.179.034.7-.739 2.273-2.493 3.555a.496.496 0 00-.475.37c-.691 2.6-2.267 5.746-4.97 5.746-3.5 0-5.312-3.965-5.8-7.427a.502.502 0 00-.754-.377.5.5 0 00-.236.514 12.614 12.614 0 002.428 6.1c-2.38 2.472-.784 6.136 4.312 6.136a6.005 6.005 0 004.314-1.444 3.228 3.228 0 00-.257-4.762c.303-.411.573-.846.807-1.3a10.068 10.068 0 005.018-4.368 5.509 5.509 0 00.59-4.248zm-6.893 14.005c-.691.76-2.386 1.21-4.122 1.1-3.694-.24-4.721-2.6-3.073-4.385a4.913 4.913 0 007.028-.041 2.232 2.232 0 01.68 2.547 2.227 2.227 0 01-.513.779zm5.432-10.231a8.989 8.989 0 01-3.513 3.443c.147-.39.282-.8.4-1.214 2.079-1.448 3.142-3.4 3.087-4.542a1.242 1.242 0 00-1.8-1.078c.063-.2.122-.4.175-.6a1.946 1.946 0 011.62-.091 1.011 1.011 0 01.549.654 4.554 4.554 0 01-.518 3.428z"/><path fill="#00bac7" fill-rule="evenodd" d="M42.3 86.428l4.868-9.464s.583 5.443 2.6 7.393l-4.12 7.9s-3.074-3.713-3.348-5.83z" clip-rule="evenodd"/><path fill="#0e2238" d="M45.263 92.572c-.13-.156-3.17-3.846-3.461-6.08-.029-.22-.412.615 4.92-9.756a.5.5 0 01.942.175c0 .053.587 5.286 2.451 7.086a.5.5 0 01.095.591l-4.119 7.9a.5.5 0 01-.828.084zm-2.446-6.062c.266 1.381 1.786 3.584 2.743 4.83l3.6-6.9c-1.27-1.475-1.941-4.166-2.256-5.873l-4.087 7.943zm-14.88 13.464L17.788 58.24a.5.5 0 01.133-.472L37.2 38.528a.501.501 0 01.845.263l6.534 35.191c.054.292 1.018-1.441-15.73 26.133a.505.505 0 01-.503.233.496.496 0 01-.409-.374zm-9.111-41.7l9.8 40.286 14.94-24.586-6.329-34.068-18.411 18.368z"/><path fill="#0e2238" d="M33.989 52.626a1.057 1.057 0 00-.079-2.108 1.059 1.059 0 00-.845 1.66c-.526 2.416 1.366 9.052 1.127 11.367a.987.987 0 00-.512.12c-1.125-1.78-1.991-7.784-3.137-8.889a1.035 1.035 0 00-.962-.675 1.057 1.057 0 00-.854 1.646c-.767 2.7 1.453 9.414 1.642 12.045-.104.03-.203.076-.293.136-.767-1.143-1.426-3.508-2.212-4.373a1.041 1.041 0 00-1.016-.874 1.051 1.051 0 00-.99 1.35c-.882 2.005-.254 7.085.095 9.388a1.06 1.06 0 00.633 1.888 1.046 1.046 0 001.032-1.056 1.057 1.057 0 00-.677-.99c-.454-3.03-.752-6.91-.306-8.49a1.006 1.006 0 00.767-.145c.68 1.211 1.324 3.433 2.212 4.284a1.043 1.043 0 001.027.956 1.06 1.06 0 00.73-1.8c.034-2.386-2.279-9.139-1.733-11.855a1 1 0 00.531-.187c.914 2.138 1.639 7.081 2.961 8.5a1.038 1.038 0 101.936-.426c.596-2.027-1.349-8.898-1.077-11.472z"/><path fill="#0e2238" d="M36.26 53.24c-.158 0 .31.42-3.872-3.774a.856.856 0 10-.673.74l3.708 3.72a.856.856 0 10.837-.687z"/><path fill="#0e2238" fill-rule="evenodd" d="M106.984 57.026a.504.504 0 00-.472-.3.506.506 0 00-.352.157.5.5 0 00-.088.553c.179.352.246.75.192 1.14-1.814-2.413-8.246-2.776-11.277.424a1.591 1.591 0 01-.3-.483c-.353-.981 1.225-1.784 1.242-1.792a.503.503 0 00-.445-.9c-.891.441-2.261 1.575-1.738 3.027.589 1.637 3.724 3.1 6.615 3.1 3.713.001 8.149-1.53 6.623-4.926z" clip-rule="evenodd"/><path fill="#0e2238" d="M193.978 66.236a8.538 8.538 0 00-8.343 1.842c-5.295-5.127-16.836-9.122-17.336-9.294a.502.502 0 00-.324.947c.122.04 12.133 4.2 17.163 9.26.247 4.009 4.192 70.312-3.938 89.784-3.44.741-41.249 8.61-63.979 1.752a.504.504 0 00-.387.031.49.49 0 00-.154.125.506.506 0 00-.053.56.49.49 0 00.305.241c6.9 2.081 15.152 2.824 23.424 2.824 20.466 0 41.025-4.547 41.313-4.612a.506.506 0 00.349-.29c8.413-19.511 4.448-85.268 4.121-90.435a7.558 7.558 0 017.49-1.8.5.5 0 00.349-.937v.002z"/><path fill="#def6f8" fill-rule="evenodd" d="M16.318 146.564s1.777-4.779 10.713-5.585c0 0 .282-.362-.82-1.09-1.102-.728-9.907 1.7-12.907 8.019 0 0 .609 1.145 1.348 1.123.739-.022 1.366-1.553 2.906-.915l-1.24-1.552zM40.9 134.751s-4.867-1.523-10.976 5.048c0 0-.459 0-.36-1.316.099-1.316 7.413-6.789 14.243-5.292 0 0 .533 1.182.063 1.753-.47.571-2.064.129-2.5 1.736l-.47-1.929z" clip-rule="evenodd"/><path fill="#0e2238" d="M41.916 136.885a10.356 10.356 0 00-.034-.187c.4-1.168 1.73-.656 2.372-1.436.642-.78.075-2.127.008-2.276a.497.497 0 00-.349-.284c-6.865-1.507-14.713 3.91-14.85 5.744a4.294 4.294 0 000 .669 2.146 2.146 0 00-1.99.811 4.101 4.101 0 00-.582-.455c-1.521-1.01-10.6 1.842-13.635 8.223a.502.502 0 00.011.449 2.315 2.315 0 001.8 1.388c.708-.02 1.156-.729 1.747-.979-1.527 1.586-2.2 2.68-2.016 3.255a.726.726 0 00.625.492c1.166.151 2.863-1.491 3.663-2.349a4.695 4.695 0 002.935 1.367c2.26-.12 5.827-1.6 6.5-3.733.51-1.607-.2-4.994-.5-6.259a1.36 1.36 0 01.426-.995 1.909 1.909 0 011.557-.115c.1.053 2.89 3.764 4.866 4.49 2.108.775 5.463-1.152 6.933-2.855.453-.611.7-1.35.708-2.111.598.067 1.199.103 1.8.107.969 0 2.409-.084 2.506-1.028.124-1.186-2.351-1.706-4.501-1.933zM15.9 146.841c.067.095.241.339.5.666-.888.2-1.514 1.018-1.764 1.024-.213.055-.547-.327-.764-.648 2.267-4.473 7.33-6.494 8.849-7.013a6.908 6.908 0 013.213-.565c.143.095.423.41.509.482-7.152.843-9.648 4.137-10.313 5.3a.492.492 0 00-.299.321.497.497 0 00.069.433zm-.4 4.4a15.887 15.887 0 012.033-2.4c.134.143.273.288.417.431a9.015 9.015 0 01-2.45 1.969zm11.669-3.959c-.488 1.542-3.465 2.922-5.6 3.036-.98.072-2.464-1.218-3.643-2.546L16.9 146.5c.493-.927 2.721-4.22 9.744-4.975.356 1.488.925 4.498.526 5.757h-.001zm13.483-6.082c-1.4 1.62-4.311 3.131-5.831 2.571-1.24-.456-3.271-2.749-4.235-3.943 4.866-5.052 8.856-4.821 9.9-4.65.242.86.426 1.735.55 2.619.177 1.413.143 2.789-.384 3.403zm-.04-6.874c-1.365-.207-5.5-.284-10.51 4.816 0-.11-.055-.443-.043-.61.206-1.061 6.935-6.144 13.378-4.9.12.365.188.828.045 1-.157.191-1.186.189-1.887.764-.1-.4-.189-.691-.223-.8a.494.494 0 00-.31-.33.493.493 0 00-.45.056v.004zm1.515 4.411a11.878 11.878 0 00-.064-.824 10.39 10.39 0 013.263.8 9.757 9.757 0 01-3.199.02v.004z"/><path fill="#def6f8" fill-rule="evenodd" d="M84.111 85.222l-.2-5.095.521-.521 5.357 4.045-5.678 1.571z" clip-rule="evenodd"/><path fill="#fff" d="M83.911 80.63c.852 0 1.542-.451 1.542-1.008 0-.557-.69-1.01-1.542-1.01-.852 0-1.543.452-1.543 1.01s.691 1.009 1.543 1.009z"/><path fill="#0e2238" d="M92.666 80.063c0-2.533-3.11-5.665-8.995-5.665-3.841 0-9 1.9-9 5.665 0 3.792 5.108 5.666 9 5.666 3.936 0 8.995-1.914 8.995-5.666zm-1.286-1.238h-5.733a1.636 1.636 0 00-.165-.167l2.5-2.524a5.927 5.927 0 013.398 2.69zm-8.98-3.367l.683 2.783c-.181.058-.353.14-.513.244l-4.508-1.741a10.812 10.812 0 014.338-1.286zm1.515 3.654c.626 0 1.042.307 1.042.51s-.416.5-1.042.5c-.626 0-1.043-.3-1.043-.5s.412-.51 1.039-.51h.004zm-.967 1.837c.161.064.329.112.5.142l.142 3.637c-1.28 0-2.552-.195-3.773-.578l3.131-3.201zm1.5.124c.259-.049.508-.14.736-.272l3.7 2.8a11.346 11.346 0 01-4.3 1.1l-.136-3.628zM86.9 75.8l-2.361 2.39a2.832 2.832 0 00-.459-.066l-.667-2.724c1.175-.025 2.348.11 3.487.4zm-9.835 1.637l4.811 1.86-6.157.256c.194-.84.67-1.589 1.35-2.12l-.004.004zm-1.351 3.117c6.837-.284 6.335-.3 6.409-.2L78.8 83.76a4.845 4.845 0 01-3.082-3.21l-.004.004zm14.1 2.494l-3.954-2.99a1.17 1.17 0 00.066-.233h5.73a3.678 3.678 0 01-1.841 3.22l-.001.003zM69.83 44.432c0-.126-.117-3.86-.124-4.1a.5.5 0 00-.9-.289L66.228 43.4c-.166.149.027-.415-1.852 7.043a9.6 9.6 0 00-.941-.192c1.013-7.79.992-7.44.951-7.6l-1.139-4.345a.5.5 0 00-.943-.071l-1.487 3.467c-.043.1.042-.432-1.191 8.463a15.27 15.27 0 00-1.118.136l-.908-7.067c-.013-.1.064.1-1.524-3.6a.5.5 0 00-.943.07c-1.205 4.6-1.151 4.357-1.154 4.459 0 .121-.038-.239.963 7.461a4.113 4.113 0 00-1.835 3.7c1.816 15.737 1.4 14.752 1.438 14.857a6.738 6.738 0 005.776 3.885c.217.016.427.023.632.023a6.61 6.61 0 006.365-4.537c.028-.1-.037.713.975-14.189a4.14 4.14 0 00-.576-2.7c2.258-8.714 2.115-8.119 2.113-8.231zm-5.7 6.987c-1.589 6.31-1.5 5.937-1.5 6.037l-.13.02.809-6.229c.291.046.562.104.822.172h-.001zm-2.03-10.17a1.7 1.7 0 00.884.011l.211.8a1.4 1.4 0 00-.7.545 3.627 3.627 0 00-.585-.916l.19-.44zm-.485 1.839c.114.208.384.747.885.747s.675-.5.851-.7l-1.876 14.451c-.63.049-1.263.05-1.893.005l2.033-14.503zm-2.132 8.1l-.447 3.23-.4-3.117c.272-.045.555-.082.849-.113h-.002zm-4.094-8.534c.29.075.596.071.885-.011l.19.444c-.24.273-.437.581-.583.914a1.362 1.362 0 00-.7-.546l.208-.801zm.5 2.575c.412 0 .654-.347.865-.73l1.664 12.923a8.655 8.655 0 01-1.792-.586l-1.6-12.31c.183.216.333.707.861.703h.002zm-.8 7.562l.448 3.448a6.959 6.959 0 01-1.455-1.247 3.04 3.04 0 011.009-2.201h-.002zm11.25 16.536a5.554 5.554 0 01-5.95 3.745 5.758 5.758 0 01-4.893-3.2L54.22 56.5c3.383 3.31 11.453 2.42 13.017-.349l-.898 13.176zm-.616-12.977a6.075 6.075 0 01-2.025.885l2.864-11.375a.508.508 0 00.749-.272c.065-.205.144-.406.237-.6.032.694-.026 1.154.264 1.405a.569.569 0 00.416.127c.1-.008.249-.777-2.505 9.83zm2.771-11.95c-.08-.471-.27-.846-.746-.846a.835.835 0 00-.52.193l.7-.912c.277.098.565.162.857.191l.029.941a1.62 1.62 0 00-.32.433z"/></svg>