<svg xmlns="http://www.w3.org/2000/svg" fill="none" viewBox="0 0 200 200" height="700" width="700"><path fill="#0e2238" d="M156.916 57.839a5.513 5.513 0 00-2.1-4.012c-.511-.393-1.27-.6-1.687-1.1-.872-1.04-1.209-2.542-2.046-3.652-1.84-2.444-4.848-3.564-7.783-3.992a20.648 20.648 0 00-9.922.692c-1.276.476-2.292 1.7-3.567 2.044-1.3.345-3.542-.745-4.6.28-.489.473.378 1 .133 1.308-.4.5-1.9-.311-2.152.65-.172.652.926 1.242 1.6 1.54a15.15 15.15 0 005.991.858c.558 0 1.813-.245 2.2.272.624.824.4 2.74.611 3.719.676 3.137 2.895 7.032 5.751 8.017.372.152.779.2 1.176.139.823-1.022 2.126-1.761 3.334-.876 2.844 2.083 1.029 6.614-1.408 8.42a19.28 19.28 0 012.278 3.693 30.931 30.931 0 014.668-2.138c.713-.236 2.043-.335 2.571-.916.47-.517-.236-1.354 1.288-4.284 1.728-3.328 3.927-6.733 3.664-10.662z"/><path fill="#fff" d="M124.048 75.523c-.583-.831-1.933-.815-2.709-.644-.869.191-1.234.329-1.568.425.174.578.444 1.122.8 1.609.8 1.121.433 2.346.791 3.658 2.089-.466 4.01-3.163 2.686-5.048zm-16.108 56.213l-1.451-.1a72.96 72.96 0 01-9.975 3.726c-1.7.486-4.895 2.357-7.432-.578-.078-.348-1.717-1.2-2.457-5.744l-.628.106c-1.14 0-21.041.272-21.161.325 2.369 5.1 2.218 4.538 2.1 4.6-1.906.1-19.393.087-22.946.114-.1-.094-.357.468 2.464-4.94-.488-.261 1.832-.134-41.214.763l1.838 26.7c1.581-.033 109-1.587 112.005-1.614-.001-.362-7.458-15.112-11.143-23.358zm73.11-43.109c3.453-3.272 9.919-6.593 13.11-16.164.45-1.35 1.656-4.372.744-5.785-.622-.964-1.721.956-1.966 1.442-1.206 2.388-1.207 4.477-3.075 6.4-.67.69-1.649 1.315-1.547.863.929-4.128 3.5-13.027 1.786-14.06-.924-.555-1.879 1.967-2.1 2.558-1.234 3.22-1.707 6.755-2.63 10.088a9.201 9.201 0 01-1.375 2.537c.147-3.571 1.518-13.91-.268-14.923-1.912-1.085-2.094 8.142-3.819 13.747-.153.5-.338 1.636-.9 1.773-.332.08-.425-1.3-.419-1.475.247-2.297.258-4.614.033-6.913-.062-.585-.232-2.131-.963-2.212-.837-.092-1.33 1.634-1.5 2.286-.693 2.654-.028 5.072-.73 7.729-.826 3.128-2.523 3.122-3.918 5.786a8.782 8.782 0 00-.475 3.926c.33 9.007.023 24.728 1.369 39.507a96.308 96.308 0 002.971 16.669l.04-.014c1.779 3.739 6.753 3.2 9.53 2.676 1.135-.215 1.865-1.481 2.55-2.3 2.05-2.444 4.142-4.815 4.264-8.168.2-5.579-1.7-10.884-3.907-16.118-3.981-9.426-5.09-10.9-6.894-21.57-1.033-6.111-.887-7.061-.987-7.061l.139-.054c-.105-.22.699-.944.937-1.17z"/><path fill="#fff" d="M149.863 73.572a4.33 4.33 0 00-.472.126 30.147 30.147 0 00-4.668 2.138 19.544 19.544 0 00-2.278-3.692c2.437-1.807 4.252-6.338 1.408-8.421-1.208-.885-2.511-.146-3.334.876 0 0-.166.207-1.176-.14-2.89-.991-5.083-4.914-5.751-8.016-.211-.978.013-2.895-.611-3.72-.392-.516-1.647-.271-2.2-.271a15.087 15.087 0 01-5.991-.857c-.819 2.355-3.894 4.247-4.755 7.564-.657 2.532 1.5 5.113-.531 7.385-1.118 1.248-2.944 2.138-3.208 3.765-.294 1.814 2.378 1.594 3.733 1.7a5.257 5.257 0 00-.253 3.294c.509-.147.737-.241 1.568-.425.775-.172 2.126-.187 2.709.644 1.324 1.885-.6 4.583-2.689 5.048a6.05 6.05 0 002.072 3.412 6.779 6.779 0 005.153 1.07c3.376-.38 4.632-1.29 6.217-.9a3.93 3.93 0 011.68.9l-.173.213c-.558.14-1.124.849-1.481 1.248-2.184 2.447-.863 5.32-.75 8.269.039.96.127 1.918.265 2.869.035.245.053.884.332 1.01.321.145.65-.867 1.594-2.2.344-.486 1.447-1.255 1.534-1.86.179-1.237-2.41-1.9-.2-4.2a7.059 7.059 0 012.338-1.633c0-.021.187-.126.246-.18 2.381-2.182 9.224-10.053 11.051-11.383-.41-.636-1.027-.924-1.379-3.633zm-42.918 40.386l-.114.265c-2.083 2.414-4.466 4.487-5.559 5.625-.088.092-.611.691-.611.718l-.458.034c-.352-5.288-1.437-10.561-1.793-15.854-.391-5.807.784-7.824 1.428-10.287a8.165 8.165 0 011.188-2.749c2.466-2.864 6.157-4.359 9.119-8.548.564-.8 1.407-2.018 1.169-3.068-.207-.91-1.261-.688-1.853-.292-.868.58-1.149 1.8-2.066 2.271-.815.323-1.664.555-2.53.691l-.007-.026c-.259-.166.026-.566.153-.844a87.34 87.34 0 004.589-10.022c.242-.708.778-2.252.106-2.889-.862-.818-2.265.87-2.663 1.461-1.382 2.051-1.507 4.682-2.862 6.753-.239.366-1.109 1.8-1.694 1.575-.278-.107-.271-.63-.279-.87-.011-.853.025-1.707.107-2.557.163-2.033.735-10.265-1.136-11.09-1.762-.779-1.57 5.727-2.218 10.107-.078.525-.152 2.2-.824 2.4-.71.208-1.5-1.82-1.687-2.239-1.4-3.107-2.028-7.176-3.62-7.359-1.128-.129-1.317 1.666-1.272 2.8.11 2.81 1.9 7.347.929 8.467-.787.906-2.553-2.809-4.29-4.463-.32-.3-1.056-1.016-1.514-.55-.412.417-.171 1.245-.007 1.712 1.308 3.71 3.424 4.53 3.824 8.47.194 1.9-.264 3.833-.04 5.745.139 1.193 1.1 2.442 1.069 3.068.81 2.131-6.18 19.275-5.255 33.5.494 7.609 2.688 8.35 2.806 8.873 2.537 2.935 5.73 1.064 7.432.578a92.033 92.033 0 0011.373-4.324c2.485-1.051 4.963-2.147 7.558-3.528.073-.039.285-.086.285-.105l.267-.185c-6.653-9.552-6.786-12.216-9.05-13.264z"/><path fill="#def6f8" d="M163.385 154.914c-.837.405-1.671.76-2.381 1.106a24.513 24.513 0 01-6.552 3.1 16.234 16.234 0 01-.452 5.007l.333.107a10.555 10.555 0 007.338-3.162c1.581-1.876 1.234-4.173 1.8-5.991l-.086-.167zm-23.517 7.538c-.086.293-.173.757-.306 1.2a50.34 50.34 0 0011.975 1.228l.033.014c.546-1.822.93-3.689 1.149-5.579-3.56.093-7.12-1.142-10.42-2.411-.511.969-1.125 1.106-2.431 5.548zm-6.834-8.128v-.033c-.89-.013-1.773-.023-2.657-.034-4.476-.056-4.237-.279-4.263-.145-1.643 1.166-2.394 5.313-2.962 6.541l.312.006c.125.036 1.514.249 2.278.386 1.009.18 2 .465 3 .677 3.28.4-.253 2.595 3.918-6.648.064-.138.374-.737.374-.75zm-9.59-.984a21.792 21.792 0 01-3.832-1.852 10.962 10.962 0 01-.968 2.549c.514 1.029.438.838.438 1.057.146 0 .075-.439.092 3.964h.239c0 .048 1.341.552 1.706.718.08-.352.349-.805.558-1.474.177-.566 1.112-3.418 1.315-3.979.229-.629.317-.623.452-.983zM16.227 118.075c.14 3.446.259 6.183.372 7.75l31.872-.757c.014.424.35-.49-4.555 9.053l.073.066c3.553-.027 21.04-.014 22.946-.114.115-.062.274.491-2.1-4.6-2.35-5.044-2.11-4.393-2.12-4.735l23.475-.5a51.17 51.17 0 01.393-7.737c-1.238-.174-68.483 1.527-70.356 1.574z"/><path fill="#00bac7" d="M193.4 112.582a37.416 37.416 0 00-5.274-5.425c-.425-.27-.263-.306-.411-.207-5.31-7.406-6.593-10.055-6.76-10.035 1.826 10.735 2.871 12.042 6.894 21.57l.377-.157a12.844 12.844 0 015.745-3.833c.08-.019.535-.026.551-.212.04-.504-.922-1.447-1.122-1.701zm-22.323-25.409c-.233.016-12.763-5.439-13.53-5.724a13.37 13.37 0 01-3.281-1.819c-.722-.6-1.248-2.37-2.152-2.623a1.115 1.115 0 00-.876.2c-1.651 1.23-4.769 4.841-6.349 6.522a483.385 483.385 0 01-4.7 4.861c-.059.054-.246.16-.246.18l-.179.06c-1.279.637-3.392 2.262-3.016 3.638.18.658 1.155 1.45 1.056 2.132-.087.605-1.19 1.374-1.534 1.86-.929 1.311-1.269 2.345-1.594 2.2-.279-.126-.3-.765-.332-1.01a27.85 27.85 0 01-.265-2.869c-.112-2.935-1.432-5.823.75-8.269.357-.4.923-1.108 1.481-1.248l.173-.212c-1.8-1.618-3.547-.815-5.234-.466-1.315.272-2.643.66-2.643.66a30.58 30.58 0 01-2.592 1.95c-2.7 1.752-5.216 2.5-7.177 4.378-3.577 3.422-3.648 7.627-13.94 18.7-.557.6-1.677 1.426-1.946 2.224-.161.478 1.913 1.1 2.258 1.1 4.308-.051 3.5 4.416 13.92 17.871.24.067.088.086.385-.16.669-.639 1.784-1.786 1.893-1.813.538 3.626.934 7.321-.5 10.8-2.028 4.923-4.109 6.763-3.566 8.588a5.238 5.238 0 002.271 2.6 25.808 25.808 0 003.832 1.852c1.787.681 1.192.509 1.773.618 1.991.374 7.568.274 11.038.424 0 0 1.2.644 1.561.784 4.69 1.836 11.838 5.029 16.636 3.959a24.756 24.756 0 006.552-3.1c.71-.346 1.543-.7 2.381-1.106 7.037-3.385 3.7-5.313 3.958-7.937.52-5.351 2.407-8.789 2.856-18.237.061-1.291.053-2.964.033-3.347-.006-.113-.133-.418-.08-.372l.565-.724c1.832 1.507 1.468 1.462 1.681 1.441-1.418-14.754-1.011-33.256-1.321-38.566zM19.875 149.747c-.021-.154-6-9.118-6.733-10.214-3.018.661-2.737.5-2.7.677.81.984 8.4 13.248 8.428 13.349 2.437-.6 18.635-3.327 22.527-4.038l-.028-.644c-5.47.206-19.22.637-21.494.87z"/><path fill="#fff" d="M119.174 155.094s-110.516 1.581-112.1 1.614l.716 11.743c2.065-.026 107.037-1.621 111.3-1.608.004-1.243.047 3.973.084-11.749z"/><path fill="#0e2238" fill-rule="evenodd" d="M119.589 166.867a.499.499 0 01-.5.476c-3.392-.01-70.69 1-98.973 1.424-7.22.108-11.898.179-12.32.184a.5.5 0 01-.505-.47l-.716-11.743.998-.06.687 11.266 11.747-.175c27.387-.411 91.703-1.377 98.614-1.424.015-.86.035-3.525.053-11.252l1 .002c-.018 7.859-.038 10.491-.054 11.313a5.955 5.955 0 01-.017.393l-.004.026-.01.04z" clip-rule="evenodd"/><path fill="#00bac7" d="M62.092 59.757c1.242.54 2.117-.718 2.822-1.567 1.459-1.755 5.683-5.033 5.054-7.9-.406-1.853-3.5-3.075-3.214-4.975.41-2.716 3.77-5.692 4.954-7.975.862-1.66-.944-3.393-3.865.34a30.543 30.543 0 00-3.719 5.623c-.533 1.08-1.216 2.61-.4 3.886.876 1.368 3.319 2.21 2.776 4.177-.692 2.5-3.28 3.9-4.649 5.845-.513.736-.908 2.05.241 2.546zm-13.25-14.032c1.426.8 3.854.332 4.437 2.391.739 2.61-.653 5.173-.744 7.631-.034.924.326 2.32 1.52 2.191 1.3-.138 1.35-1.72 1.482-2.842.274-2.33 2.006-7.425.007-9.7-1.3-1.482-4.453-1.03-5.207-2.89-1.084-2.67.1-7.059-.126-9.722-.162-1.94-2.53-2.6-2.97 2.251a34.277 34.277 0 00-.1 6.967c.128 1.246.37 2.976 1.7 3.723zM19.875 149.748c2.815-.287 21.428-.844 23.043-.929l.113-.133c-2.53-2.139-13.82-11.569-15.461-13-.1.008-16.005 1.294-16.1 1.394.091.131 8.382 12.499 8.405 12.668z"/><path fill="#fff" d="M153.6 159.264c-1.008.1-.876-.024-.876.193a26.342 26.342 0 01-1.455 6.216l.06.026c1.474.718 2.258-.212 2.676-1.567.363-1.534.537-3.106.518-4.682l-.066-.325a6.71 6.71 0 01-.857.139zm-17.345-4.882a134.21 134.21 0 00-3.221-.092c0 .117-.115.213-.372.783-.835 1.851-2.33 5.661-2.464 7.677a1.353 1.353 0 00.445 1.27c.884.6 2.3.587 3.314.743 1.1.169 4.031 1.234 5.094.762.8-.557.756-1.327 1.069-2.391 1.447-4.923 2-5 2.563-6.07-.212-.08-6.428-2.682-6.428-2.682zm-11.616-.577c-.352-.14-.757-.293-1.195-.465-.254.677-.111-.341-1.767 4.962-.506 1.621-1.357 1.968.943 2.7.486.155.775-.9.89-1.395.492-1.461 1.229-4.523 2.6-5.5l.006-.034c-.33-.032-1.653-.206-1.477-.268zM91.558 69.96c-.027-.665.013-2.366.823-2.73v-.12c-5.341.134-77.311 2.37-77.876 2.457.379 3.7 1.136 33.16 1.727 48.508 1.432-.036 69.116-1.748 70.357-1.574.664-4.668 1.59-9.295 2.775-13.86 1.823-7.138 2.487-9.4 2.172-10.229.03-.607-.931-1.88-1.069-3.068-.362-3.095 1.123-6.3-1.621-10.208-.772-1.1-3.1-4.767-2.158-5.724.967-.983 3.441 3.051 4.343 4.171.225.28 1.017 1.355 1.461.843.943-1.09-.83-5.807-.934-8.467z"/><path fill="#0e2238" fill-rule="evenodd" d="M92.73 66.752a.5.5 0 01.151.358v.12h-.497l.01.38c-2.669.067-21.994.66-40.726 1.246-9.366.294-18.581.585-25.491.81-3.455.111-6.334.206-8.365.276a753.236 753.236 0 00-2.765.1c.19 2.597.455 10.392.742 19.395l.205 6.51c.25 7.939.506 16.105.738 22.109l-1 .039c-.231-6.009-.488-14.179-.737-22.119l-.206-6.507c-.31-9.761-.594-18.024-.781-19.85a.5.5 0 01.42-.546c.038-.006.092-.009.124-.01h.004l.185-.01.654-.026a4740.667 4740.667 0 0110.75-.361c6.91-.224 16.126-.516 25.491-.81 18.73-.586 38.06-1.178 40.732-1.245a.5.5 0 01.362.141z" clip-rule="evenodd"/><path fill="#fff" d="M140.574 106.908l4.564-3.353a1.06 1.06 0 00.223-1.486c-.238-.322-.045-.18-5.611-2.617a1.065 1.065 0 00-1.482 1.089l.623 5.628a1.067 1.067 0 00.629.854 1.06 1.06 0 001.054-.115zm.216 11.873a1.07 1.07 0 00-.919-.528 1.069 1.069 0 00-.918.528l-5.489 9.506a1.07 1.07 0 00.077 1.178c.085.11.191.203.312.273.353.2-.431.149 11.507.143a1.068 1.068 0 00.919-.532 1.067 1.067 0 000-1.062l-5.489-9.506zm-22.514-16.35l6.066-2.335a1.06 1.06 0 00.607-1.374c-.145-.376-.054-.226-4.268-3.633l-3.835 6.187a1.066 1.066 0 001.43 1.155zm.523 10.098l-6.281-1.681a1.05 1.05 0 00-.806.108 1.06 1.06 0 00-.494.647c-.105.394-.064.309.9 3.89l2.192 3.653c.3-.115-.038.146 4.963-4.838a1.058 1.058 0 00.003-1.503 1.068 1.068 0 00-.477-.276zm38.552 14.686l3.772-.439a1.06 1.06 0 00.932-1.179c-.05-.427-.111-.395-2.468-3.556a1.077 1.077 0 00-.431-.339 1.073 1.073 0 00-1.395.552l-1.5 3.486a1.067 1.067 0 00.55 1.391c.17.075.356.104.54.084zm2.249-34.99l9.272-1.08-7.8-6.345-2.57 5.95a1.064 1.064 0 001.098 1.475zm2.125 53.875l-10.135 5.06a1.053 1.053 0 00-.532.615 1.06 1.06 0 00.059.811c.182.362-.2.036 7.125 4.882l4.532-2.405.484-7.946a1.06 1.06 0 00-.473-.951 1.069 1.069 0 00-1.06-.066zm-35.157-5.033l-5.817 2.9a1.072 1.072 0 00-.533.615 1.065 1.065 0 00.059.811c.177.352-.117.1 5.784 3.995a1.056 1.056 0 001.47-.3c.103-.155.163-.335.175-.521l.395-6.488a1.06 1.06 0 00-.476-.946 1.07 1.07 0 00-1.057-.066z"/><path fill="#def6f8" d="M74.372 103.074c-42.475 2.63-39.367 2.411-39.695 2.51-2.132 1.645-1.53 4.9.6 5.479l39.383-2.5c3.24-.796 2.733-4.88-.288-5.489z"/><path fill="#0e2238" d="M47.438 77.67c8.265-2.633 17.627 3.438 15.115 11.156-.121.372-.066.352-.279.266-.842-.34-3.288-1.436-3.453-1.255a74.567 74.567 0 002.172 9.118c.094.092 9.633-3.455 10.061-3.9.1-.1-4-2.1-4.549-2.405-.549-.305.38-3.546.405-4.562.092-3.766-2.791-7.889-3.726-8.74-3.366-3.068-7.257-5.11-12.645-4.39-1.009.135-5.2.97-5.153 1.3.3 2.131.458 2.776.617 4.025a8.492 8.492 0 011.435-.614zM36.483 88.076c-.022 3.766 2.922 7.85 3.872 8.694 3.406 3.023 7.346 5.019 12.718 4.212 1.01-.152 5.186-1.044 5.134-1.37-.343-2.124-.512-2.761-.691-4.011-7.749 4.2-19.389-1.9-16.729-10.326.117-.373.06-.349.279-.267.847.322 3.308 1.39 3.473 1.21a72.919 72.919 0 00-2.331-9.093c-.094-.085-9.582 3.582-9.995 4.046-.094.104 4.044 2.045 4.595 2.343.551.299-.319 3.555-.325 4.563zm-20.05 30.493a.501.501 0 01-.011-1c3.191-.073 65.671-1.6 69.734-1.627a.475.475 0 01.358.142.493.493 0 01.142.358.5.5 0 01-.5.5c-4.047.028-69.723 1.627-69.723 1.627zm77.324 43.393a.5.5 0 11-.026-1c.914-.048 6.476-.19 7.149-.293a.5.5 0 01.153.988c-.684.105-4.315.248-7.276.305zm-58.091.047a.486.486 0 01-.357-.138.487.487 0 01-.155-.35.498.498 0 01.298-.469.5.5 0 01.19-.043c.939-.044 6.484-.19 7.15-.287a.503.503 0 01.582.42.504.504 0 01-.247.508.485.485 0 01-.19.061c-.677.099-4.527.248-7.271.298zM146.068 77.59c-.119-.74 3.224-2.447 3.911-2.776a21.372 21.372 0 011.892-.82.5.5 0 11.354.935 23.978 23.978 0 00-4.81 2.511c-.056.058-.108.12-.156.184-.608.756-1.121.39-1.191-.034zm-38.907 36.254a.5.5 0 00-.7.052c-2.176 2.543-4.728 4.687-5.809 5.9-.4-4.836-1.3-8.667-1.736-15.094-.368-5.469.622-7.118 1.413-10.115a.499.499 0 00-.966-.254c-.831 3.142-1.826 4.778-1.445 10.436.641 9.5 2.578 15.126 1.651 22.55a.5.5 0 00.992.124 33.67 33.67 0 00.194-6.244c2.557-2.8 4.223-4.053 6.463-6.648a.507.507 0 00.119-.365.515.515 0 00-.176-.342zm14.896-31.521c-.659-.01-.78-1.117.189-.984l.176.025a3.42 3.42 0 00.657-.148.5.5 0 11.318.948 2.427 2.427 0 01-1.34.159zm71.895 30.136a40.427 40.427 0 00-4.221-4.555 17.028 17.028 0 00-1.535-1.315.509.509 0 00-.275-.2c-2.323-3.257-4.968-7.218-6.5-9.734a.504.504 0 00-.508-.251.496.496 0 00-.416.385.497.497 0 00.07.385c1.847 3.041 5.557 8.56 8.164 12.009a.502.502 0 00.665.122.497.497 0 00.169-.178 37.051 37.051 0 013.436 3.77c.323.351.627.719.909 1.103a7.512 7.512 0 00-2.072.794 16.834 16.834 0 00-3.983 3.2.501.501 0 00.736.676 12.41 12.41 0 015.518-3.685c.232-.026.86-.1.909-.665.049-.565-.483-1.209-1.066-1.861zm-55.211 43.834a29.26 29.26 0 00-3.057-.768 1.858 1.858 0 00-1.639.235 2.283 2.283 0 00-.6 1.293 3.08 3.08 0 00-.134.535.674.674 0 00-.381.267c-.22.369-.396.762-.525 1.171a2.876 2.876 0 00-.207 2.055c-.4.815-.483 1.3-.294 1.631.388.706 1.241.482 3.888.968a4.49 4.49 0 001.91.162c.834-.2 1.043-.942 1.278-1.7 1.254-4.023 3.042-5.133-.239-5.849zm-5.04 2.216a.491.491 0 01.421.041 2.1 2.1 0 01-.286 1.491c-.151.276-.472.7-.758.579-.159-.264.441-1.78.622-2.111h.001zm5.376.563c-1.3 2.994-1.167 3.69-1.552 3.786a3.61 3.61 0 01-1.5-.147c-2.356-.446-2.852-.35-3.214-.481.052-.208.127-.409.224-.6 1.749.207 3.032-3.483 1.293-4.074.037-.146.089-.265.1-.346.023-.257.123-.5.286-.7a1.08 1.08 0 01.737-.017c1.038.207 2.064.465 3.076.775.379.062.747.183 1.088.36-.089.51-.271 1-.538 1.444zm5.842-12.02a100.377 100.377 0 01-13.543-7.028c-.932-.6-3.734-1.966-3.886-3.144a.493.493 0 01.099-.37.505.505 0 01.332-.191.494.494 0 01.498.246c.033.057.054.12.063.185.141.6 3.022 2.164 3.43 2.43a99.291 99.291 0 0013.4 6.952.507.507 0 01.268.273.5.5 0 01-.278.651.504.504 0 01-.383-.004zm-4.278-6.428c-3.86-.363-4.538-.7-4.6-1.323a.499.499 0 01.939-.283c1.217.375 2.479.58 3.752.611a53.15 53.15 0 0013.927.31.5.5 0 01.114.993c-4.704.514-9.455.41-14.132-.308zm2.836-74.5a.497.497 0 00-.521-.2.498.498 0 00-.179.08 8.302 8.302 0 00-2.443 2.733c-.13.224-.493.81-.016 1.1a.529.529 0 00.771-.374c.181-.37.397-.72.645-1.047.209.313.305.608.662.608a.5.5 0 00.411-.784 6.741 6.741 0 00-.409-.608c.294-.298.614-.57.957-.813a.502.502 0 00.122-.695z"/><path fill="#0e2238" d="M143.157 72.214a7.918 7.918 0 002.647-5.522c-.008-3.175-3.208-5.466-5.67-2.407a6.218 6.218 0 00-1.146 2.38c-.212.85-.319 1.276.146 1.457a.552.552 0 00.7-.654 5.773 5.773 0 011.08-2.554c.323-.4 1.47-1.65 2.648-.786 2.719 1.992.459 6.843-2.135 8.063a.5.5 0 00.213.952 1.89 1.89 0 00.716-.322c.176.316.064.078.625.919 1.384 2.172 1.208 2.6 1.744 2.6a.498.498 0 00.499-.474.507.507 0 00-.05-.245 24.76 24.76 0 00-2.017-3.407zm-21.439-9.63c-.356-.238-.209-.65-.146-.825 1.423-3.812 4.711-5.4 6.212-1.373a.498.498 0 01-.3.626.498.498 0 01-.636-.276c-.279-.744-.882-1.953-1.852-1.661-1.13.34-2.083 1.96-2.472 2.99-.055.157 0 .224-.113.383a.502.502 0 01-.693.136zm2.775 1.634c-.17-1.2-1.372-.82-1.428.187-.251 3.042 1.857 2.57 1.428-.187zm-50.511 38.327c-.907.08-34.5 2.135-39.095 2.574-2.393.23-3.054 5.286.1 6.381.273.1 39.685-2.423 39.785-2.448a3.139 3.139 0 002.549-3.629 3.508 3.508 0 00-3.339-2.878zm.554 5.536c-.12-.013-26.881 1.691-39.215 2.476-1.626-.565-2.128-3.146-.384-4.543 24.269-1.533 39.262-2.465 39.336-2.45 2.472.5 3.011 3.841.263 4.517zM55.773 85a4.774 4.774 0 00-1.714-.271c-.1-1.6-.124-3.172-1.317-4.4a2.7 2.7 0 00-4.407.442 6.671 6.671 0 00-.578 4.548 4.392 4.392 0 00-1.218.248c-1.537.975-2.479 4.93-.59 7.353.983 1.25 8 .28 9.551-.07 3.155-.715 2.774-6.387.273-7.85zm-6.561-3.75A1.7 1.7 0 0152 81c.992 1.023.977 2.459 1.057 3.78-1.381.073-2.927.238-4.311.408a5.61 5.61 0 01.466-3.94v.003zm6.067 10.625c-1.09.221-2.192.38-3.3.476-3.363.306-5.007.14-5.239-.048-1.5-1.92-.724-5.122.3-5.863a63.89 63.89 0 016.617-.685 4.444 4.444 0 011.67.138c1.741 1.107 2.104 5.453-.048 5.979v.003z"/><path fill="#0e2238" d="M44.184 107.454a31.566 31.566 0 00-.606-.025c.144-.152.27-.284.366-.382a.502.502 0 00-.555-.811.506.506 0 00-.161.111l-.225.234.019-.259a.501.501 0 10-1-.076 54.36 54.36 0 00-.043.622 23.355 23.355 0 01-.465-.414.498.498 0 00-.707.029.5.5 0 00.029.707l.186.167c-.094 0-.178-.007-.25-.011a.505.505 0 00-.527.471.5.5 0 00.47.527c.159.009.37.016.616.024-.144.153-.27.285-.365.383a.496.496 0 00-.103.543.504.504 0 00.462.306c.48 0 .536-.622.485-.082a.5.5 0 00.995.094c.016-.164.033-.39.05-.653.212.185.395.349.523.468a.5.5 0 00.68-.733c-.077-.072-.174-.16-.285-.26l.38.017a.503.503 0 00.48-.485.5.5 0 00-.45-.512zm95.382-42.083c-1.894.215-19.015 2.08-19.188 2.1-1.224-3.2-1.1-3.6-1.656-3.6a.504.504 0 00-.426.237.512.512 0 00-.074.241.511.511 0 00.053.246c.05.1 1.167 3.445 2.084 5.462a.495.495 0 00.474.303.505.505 0 00.456-.33.492.492 0 00-.02-.387c-.179-.395-.349-.8-.513-1.207.759-.053 18.822-2.062 18.923-2.074a.5.5 0 00-.113-.99z"/><path fill="#0e2238" d="M157.05 80.928c-.263-.676-1.047-.525-2.461-1.682-.773-.65-1.425-3.282-3.206-2.673a4.817 4.817 0 01-.879-2.095c-.073-.3-.137-.526-.159-.687a.506.506 0 00-.119-.53.5.5 0 00-.533-.109c-.518.2-.343.827-.19 1.438.152.91.506 1.775 1.037 2.53-1.572 1.282-9.7 10.345-10.861 11.22-.475.08-3.981 2.195-3.415 4.264.131.371.325.718.573 1.023.21.3.5.7.47.907-.03.207-.521.69-.815.97a5.862 5.862 0 00-1.341 1.79c-.333.554-.289.513-.3.438-.036-.366-.221-1.406-.279-2.968-.144-3.623-1.306-5.734.623-7.914.328-.473.77-.856 1.284-1.115a9.761 9.761 0 011.318 1.588.497.497 0 00.515.222.51.51 0 00.322-.214.503.503 0 00-.004-.561 10.72 10.72 0 00-1.816-2.087 4.533 4.533 0 00-1.9-1.019 6.767 6.767 0 00-3.132.281c-2.629.665-5.973 1.274-8.028-.344a5.71 5.71 0 01-1.786-2.692c2.247-.84 3.907-3.648 2.488-5.673-.692-.984-2.169-1.07-3.229-.843-.341.077-.958.233-1.073.268a5.925 5.925 0 01.174-2.1c.507.105.982.61 1.8.61.91 0 2.235-1.263 1.437-1.73a.5.5 0 00-.684.178 1.157 1.157 0 01-.768.557 2.16 2.16 0 01-.754-.264 3.659 3.659 0 00-1.994-.434c-.837-.03-2.1-.078-2.478-.537a.622.622 0 01-.1-.549c.29-1.78 3.005-2.612 3.845-4.725.842-2.21-.642-4.35-.116-6.38.738-2.843 3.118-4.439 4.548-6.988a.5.5 0 00-.872-.489c-1.366 2.433-3.838 4.121-4.643 7.225-.576 2.22.826 4.5.152 6.27-.731 1.83-3.527 2.637-3.9 4.927a1.637 1.637 0 00.315 1.344c.661.8 2.073.86 3.209.9a5.36 5.36 0 00.839 4.72c.608.848.408 1.785.625 3.066a6.194 6.194 0 002.431 4.185 6.204 6.204 0 004.696 1.167 24.84 24.84 0 00-.463 3.021 45.397 45.397 0 00-.149 6.524c-.016.812-.011 2.137.847 2.137.912 0 1.709-3 5.017-5.984.122 1.143.368 2.371.413 3.49.041 1.015.135 2.028.283 3.033.042.4.109 1.057.609 1.283.7.316 1.139-.642 1.54-1.31a4.91 4.91 0 011.175-1.582c1.3-1.244 1.5-1.727.467-3.18a2.858 2.858 0 01-.422-.705c-.151-.549.4-1.232.732-1.585A7.659 7.659 0 01140 89.271a.483.483 0 00.332-.17c.364-.242 4.823-4.923 4.921-5.027 1.479-1.576 4.766-5.359 6.287-6.466.885-.675 1.44 1.592 2.409 2.408a8.196 8.196 0 001.973 1.2 23.665 23.665 0 00-6.5 4.961 35.41 35.41 0 00-4.865 7.037c-.21.417-.766 1.523-1.03 1.594a6.852 6.852 0 01-1-1.875c-.712-1.508-1.443-2.789-3.227-2.634a.508.508 0 00-.339.182.496.496 0 00-.092.173c-.019.063-.026.13-.019.195a.496.496 0 00.355.431c.063.02.129.026.195.02 1.18-.122 1.708.97 2.225 2.065.3.64.228.46.379.8.332.758.81 1.782 1.629 1.625 1.057-.2 1.671-1.924 2.079-2.606 3.111-5.568 6.106-8.386 9.578-10.462.697-.422 2.039-.906 1.76-1.794zm-35.386-1.839c-.171-2.486-.686-2.088-1.249-3.462.15-.047.777-.2 1.028-.258.566-.122 1.755-.185 2.2.442.987 1.408-.313 3.442-1.9 4.112-.043-.283-.06-.56-.079-.834zm11.412 10.976a22.627 22.627 0 00-4.774 5.75c-.01-.243 0-.496 0-.636a45.027 45.027 0 01.147-6.466c.08-1.001.237-1.995.469-2.973a.888.888 0 01.122-.233c3.624-.475 4.8-1.562 6.591-.468a6.43 6.43 0 00-1.176 1.145 5.512 5.512 0 00-1.379 3.881zm-13.524 64.681c-.037-.1-8.187-16.58-11.155-23.213a.498.498 0 00-.661-.253.507.507 0 00-.263.278.504.504 0 00.011.383c2.051 4.583 7.52 15.863 10.714 22.321.338.682-110.539 1.934-110.656 1.936l-1.771-25.697c2.053-.043 36.253-.82 39.916-.866-.949 1.819-1.889 3.621-2.217 4.261a.572.572 0 00.05.532.575.575 0 00.468.262s21.655-.044 22.971-.113c.454-.024.6-.568.405-.938-.344-.669-1.219-2.54-1.762-3.706l20.392-.284a.5.5 0 000-1c-1.164-.006-19.626.274-20.856.29a1994.12 1994.12 0 00-1.739-3.715c10.542-.241 20.071-.456 22.317-.469a.5.5 0 00.5-.5.538.538 0 00-.5-.5c-2.3-.037-66.183 1.51-69.084 1.574a.497.497 0 00-.495.505.5.5 0 00.506.495l31.131-.736c-.249.5-.714 1.412-1.559 3.036-2.43.011-39.1.845-40.985.884-.27.006-.462.166-.463.533 0 1.055.363 5.63 1.813 26.7a.498.498 0 00.5.466l9.159-.164c-.01 2.547.051 10.163-.071 11.066a.497.497 0 00.428.562.492.492 0 00.37-.098.486.486 0 00.193-.33c.135-1 .069-8.57.081-11.217l55.53-.808c-.01 2.25.057 10.193-.065 11.1a.494.494 0 00.098.37.504.504 0 00.702.094.502.502 0 00.192-.331c.025-.184 0-11.233 0-11.233l45.5-.627a.504.504 0 00.459-.308.502.502 0 00-.104-.542zm-70.659-29.182l13.414-.317c.344.725 3.561 7.612 3.92 8.348-2.491.051-20.218.082-21.523.088.47-.905 3.98-7.665 4.189-8.119z"/><path fill="#0e2238" d="M175.848 142.276c-3.129-11.452-3.505-21.445-3.9-34.584-.1-3.359-.243-14.849-.232-16.05a10.79 10.79 0 00.132-1.777.5.5 0 00-.5-.5.577.577 0 00-.5.818c-.012.459-.054.916-.124 1.37-.02 1.504.008 3 .029 4.686-3.347-1.7-11.238-5.19-12.835-6.377a.5.5 0 00-.6.8c1.7 1.262 9.717 4.818 12.884 6.418a58.706 58.706 0 00-6.166 16.726.492.492 0 00.073.376.504.504 0 00.317.214.492.492 0 00.376-.073.487.487 0 00.138-.137.487.487 0 00.076-.18 57.677 57.677 0 015.756-15.88c.091 7.899.322 18.523 1.013 26.421a34.82 34.82 0 00-5.828-4.033.501.501 0 00-.64.75.491.491 0 00.155.124 36.204 36.204 0 014.335 2.831 68.944 68.944 0 01-1.831 16.53c-1.388 6.1-1.285 6.577-.838 8.287a3.135 3.135 0 01.052 2.4c-1.325 2.245-5.362 3.5-6.606 4.244-7.051 4.227-8.172 4.3-20.507-.516 1.552.169 1.806.241 1.939.241a.5.5 0 00.414-.828.5.5 0 00-.343-.172c-6.872-.99-14.262-.354-17.158-1.017a35.133 35.133 0 01-5.071-2.345 4.726 4.726 0 01-2.036-2.309c-.284-.956.532-2.277.732-2.644 4.031-7.409 4.39-9.561 3.189-17.745-1.325-9.026.692-16.112.5-18.264a.504.504 0 00-.137-.67.604.604 0 00-.592-.038c-.419.241-.238.783-.255.993-.643 7.994-1.48 11.395-.388 18.912-.355.323-.69.665-1.034 1-.941.925-1.047.957-1.047 1.229a.504.504 0 00.924.281c1.452-1.415 1.319-1.289 1.335-1.305.9 6.675 0 8.928-3.376 15.127-.646 1.184-1.155 2.249-.8 3.445a5.61 5.61 0 002.046 2.581.487.487 0 00-.024.151c-.066.308-.435 1.61-.511 2.032a.496.496 0 00.082.374.5.5 0 00.903-.197c.061-.343.358-1.4.456-1.811a22.14 22.14 0 002.921 1.414c-.3.606-1.241 3.567-1.552 4.545-.455 1.484-1.6 2.412 1.268 3.326.887.282 1.311-.8 1.518-1.712.459-1.369 1.165-4.222 2.318-5.173 1.391.126 2.616.145 4.071.161 2.159.025 1.886-.008 1.837.1-.369.829-.471 1.095-.684 1.592a27.352 27.352 0 00-1.824 6.185 1.868 1.868 0 00.656 1.775 6.037 6.037 0 002.743.73c.71.056 1.411.196 2.088.415 1.257.342 3.177.908 4.231.429a3.103 3.103 0 001.153-2.215 18.413 18.413 0 012.654-6.319c3.82 1.436 6.579 2.3 8.939 2.365a32.976 32.976 0 01-1.071 4.923c-.25.744-.339.745-.339.949a.5.5 0 00.414.492c1.367.633 2.655.217 3.316-1.933a19.86 19.86 0 00.532-4.748 29.766 29.766 0 006.207-3.026c2.33-1.132 5.484-2.254 6.827-4.528.991-1.694-.357-3.448-.213-4.92.353-3.649 1.578-7.325 2.1-11.036.598-3.649.855-7.347.768-11.044.442.375.841.739 1.211 1.106a84.243 84.243 0 003 16.633c.176.563 1.12.288.934-.395zm-53.182 18.217c-1.114-.365-1.077-.528-1.059-.607.037-.164.383-.9.547-1.434.333-1.051 1.249-3.943 1.536-4.481.438.232.911.391 1.4.471-1.421 1.881-1.99 5.385-2.424 6.051zm17.06 2.548c-.641 2.17.053 2.726-4.274 1.55a10 10 0 00-2.246-.445 5.538 5.538 0 01-2.241-.528.884.884 0 01-.272-.857c.131-2.033 1.828-6.33 2.664-7.965.957.019 3.15.1 3.284.1 0 0 4.57 1.783 5.609 2.181a19.67 19.67 0 00-2.524 5.964zm13.8.943c-.276.893-.707 1.662-1.6 1.413a30.838 30.838 0 001.258-5.6 8.56 8.56 0 00.841-.083 18.885 18.885 0 01-.502 4.27h.003zM39.094 107.673a32.8 32.8 0 00-.6-.025c.143-.151.268-.282.363-.38a.501.501 0 00-.716-.7l-.224.234.018-.253a.502.502 0 10-1-.077c-.012.152-.026.363-.042.61a61.21 61.21 0 01-.467-.413.501.501 0 00-.668.744l.186.166-.265-.008a.483.483 0 00-.475.29.5.5 0 00.438.709l.6.017-.369.393a.497.497 0 00.094.757.501.501 0 00.273.082c.485 0 .527-.628.485-.072a.501.501 0 001 .074 84.1 84.1 0 00.044-.648c.215.188.4.353.532.473a.501.501 0 00.846-.384.5.5 0 00-.166-.349c-.078-.072-.176-.16-.288-.259l.38.016a.5.5 0 00.021-.997zm10.376.388a.502.502 0 00.509-.491.498.498 0 00-.491-.509l-.606-.018c.146-.155.274-.288.37-.384a.501.501 0 00-.354-.848.501.501 0 00-.352.14c-.066.066-.146.149-.237.243l.016-.264a.501.501 0 00-.47-.529.506.506 0 00-.528.47l-.036.6-.476-.416a.505.505 0 00-.551-.073.506.506 0 00-.278.481.502.502 0 00.169.344l.186.162-.263-.009a.495.495 0 00-.363.129.48.48 0 00-.155.352.499.499 0 00.48.518l.6.02-.363.386a.5.5 0 00.364.843c.483 0 .522-.617.48-.073a.503.503 0 00.462.538.5.5 0 00.538-.461c.013-.162.029-.389.046-.649.216.191.4.358.536.477a.499.499 0 00.834-.397.5.5 0 00-.164-.346 24.248 24.248 0 00-.28-.249l.377.013zm5.43-1.192a27.045 27.045 0 00-.61-.024c.143-.15.269-.279.365-.376a.496.496 0 00.114-.549.495.495 0 00-.467-.31.493.493 0 00-.355.153 20.8 20.8 0 00-.232.237l.017-.269a.505.505 0 00-.282-.48.517.517 0 00-.383-.022.502.502 0 00-.335.444l-.038.61a42.935 42.935 0 01-.471-.415.505.505 0 00-.363-.135.499.499 0 00-.306.878l.184.164-.246-.011a.5.5 0 00-.056 1c.157.008.367.016.608.023-.145.157-.272.292-.366.392a.5.5 0 00.364.843c.485 0 .525-.627.484-.074a.5.5 0 101 .074l.044-.648c.215.187.4.352.532.473a.501.501 0 00.68-.734 23.97 23.97 0 00-.287-.259l.379.017a.501.501 0 00.026-1.002zm-3.582-20.095c-2.184.19-2.369 1.886-1.112 2.407.028.2.042.418.056.64.047.727.079.728.1 1.017a1.13 1.13 0 00.351.893c.413.33.932.157 1.136.172.584.03.962-.333.9-1.038-.035-.319-.224-1.34-.219-1.76 1.564-1.078.237-2.456-1.212-2.331zm.51 1.6c-.514.338-.252 1.3-.084 2.532-.025 0-.352.026-.375.034-.208-1.892-.073-2.522-.629-2.632a.542.542 0 01-.317-.156 1.642 1.642 0 011.529-.3c.097.057.192.118.283.184-.113.136-.251.25-.407.334v.004zm-8.407 60.416a.506.506 0 00-.526-.473c-1.35.072-19.651.655-22.723.9-1.135-1.7-8.249-12.389-8.377-12.53a.499.499 0 00-.709-.029.503.503 0 00-.028.709c.226.318.676.974 1.254 1.832l-1.967.41a.501.501 0 00-.406.655c.031.3-.49-.968 6.118 9.708a364.116 364.116 0 002.373 3.806.5.5 0 00.841-.541c-1.287-2-6.344-10.322-8.045-12.79 0 0 1.3-.271 1.684-.356 1.27 1.9 5.731 8.63 6.458 9.721a.482.482 0 00.417.446c.073.01.147.004.217-.019 1.875-.176 22.565-.9 22.946-.921a.501.501 0 00.473-.528z"/><path fill="#0e2238" fill-rule="evenodd" d="M100.323 63.872c.325-.22.7-.233 1.058-.075.379.167.643.496.832.854.192.362.335.807.443 1.289.218.966.318 2.174.353 3.392.072 2.444-.114 5.033-.196 6.053v.008a22.638 22.638 0 00-.103 2.558c.002.097.005.19.017.279a.885.885 0 00.053-.042c.154-.125.325-.321.49-.54l3.317-7.408a.437.437 0 01.041-.075c.216-.32.701-.937 1.266-1.375.281-.217.621-.422.989-.497.395-.08.817-.005 1.167.327.531.504.523 1.285.44 1.853-.085.59-.287 1.18-.407 1.532l-.01.029-.006.017a87.723 87.723 0 01-4.609 10.067l-.013.029a11.42 11.42 0 001.741-.53c.318-.17.55-.479.845-.917l.06-.09c.265-.397.597-.892 1.092-1.224.356-.238.867-.44 1.361-.427.254.006.532.07.773.247.247.182.41.45.484.777.156.686-.049 1.378-.318 1.951-.273.581-.65 1.12-.929 1.516-1.523 2.154-3.232 3.611-4.846 4.876a126 126 0 01-.821.638c-1.306 1.008-2.494 1.925-3.482 3.072a.5.5 0 11-.758-.652c1.061-1.232 2.345-2.222 3.653-3.23l.791-.614c1.588-1.246 3.206-2.631 4.645-4.666.285-.403.611-.874.842-1.364.233-.499.331-.941.248-1.305-.029-.128-.075-.174-.102-.193a.357.357 0 00-.204-.054c-.233-.005-.545.102-.781.26-.325.217-.553.556-.85.999l-.028.04c-.285.425-.649.959-1.238 1.26a.44.44 0 01-.044.021 12.43 12.43 0 01-2.636.72.5.5 0 01-.487-.206.712.712 0 01-.198-.418.992.992 0 01.06-.442c.039-.112.092-.218.134-.3l.04-.077c.026-.051.046-.09.064-.129l.014-.028a86.82 86.82 0 004.56-9.956c.123-.36.299-.876.371-1.373.078-.54.002-.85-.139-.983-.081-.077-.158-.097-.281-.073-.15.03-.347.131-.574.308-.433.335-.833.83-1.026 1.108l-3.321 7.418a.486.486 0 01-.054.093c-.19.257-.432.55-.693.763-.227.186-.644.453-1.106.276-.407-.157-.515-.57-.552-.757-.038-.195-.043-.405-.046-.519l-.001-.044v-.01c-.011-.87.025-1.741.109-2.608.081-1.016.262-3.556.193-5.94-.035-1.196-.133-2.328-.329-3.202-.099-.437-.217-.787-.351-1.04-.137-.26-.264-.368-.353-.407-.073-.033-.085-.02-.09-.015l-.001.002c-.046.03-.138.132-.245.385-.21.497-.366 1.311-.492 2.35-.108.884-.19 1.886-.275 2.926a515.2 515.2 0 01-.042.507c-.1 1.213-.212 2.456-.376 3.569a7.925 7.925 0 00-.029.236c-.032.287-.082.733-.167 1.12a3.29 3.29 0 01-.28.82c-.13.243-.346.524-.7.63h-.002c-.443.13-.809-.118-1.021-.32-.23-.217-.429-.513-.592-.793-.272-.469-.499-1-.615-1.271l-.056-.13c-.465-1.031-.856-2.194-1.214-3.258a54.208 54.208 0 00-.537-1.549c-.263-.708-.518-1.284-.788-1.689-.276-.413-.503-.55-.681-.571a.31.31 0 00-.28.088c-.09.087-.185.246-.263.493-.157.494-.195 1.159-.173 1.702.04 1.055.33 2.363.62 3.681.081.37.163.739.24 1.104.17.814.313 1.607.348 2.275.018.335.01.658-.044.948-.053.287-.157.576-.357.807a.86.86 0 01-.788.303c-.26-.037-.487-.182-.664-.325-.359-.292-.741-.773-1.117-1.28a60.26 60.26 0 01-.576-.796c-.611-.854-1.24-1.732-1.867-2.33l-.013-.012c-.17-.16-.382-.358-.594-.478a.517.517 0 00-.201-.077h-.002l-.004.004c-.05.05-.103.173-.078.442.024.253.108.529.187.754.525 1.49 1.177 2.482 1.82 3.46.128.194.255.388.382.585.766 1.2 1.437 2.465 1.647 4.54.097.947.04 1.893-.02 2.796l-.004.075c-.058.889-.113 1.736-.045 2.575.036.452.256.908.527 1.47l.03.062c.249.515.55 1.146.546 1.814.056.202.068.431.062.656a7.534 7.534 0 01-.101.963c-.116.722-.323 1.64-.587 2.706a242.64 242.64 0 01-.754 2.936 287.223 287.223 0 00-1.306 5.143c-1.529 6.323-3.029 14.103-2.572 21.136.244 3.761.906 5.775 1.489 6.895.29.557.565.904.775 1.143l.132.148c.06.066.12.132.158.176.052.062.132.158.189.282 1.123 1.259 2.356 1.48 3.533 1.337.613-.075 1.213-.25 1.779-.443.195-.067.394-.14.59-.21.342-.124.673-.244.952-.324a91.653 91.653 0 0011.307-4.299l.013-.006c.604-.256 1.22-.504 1.838-.753 2.168-.873 4.367-1.758 6.182-3.016a.5.5 0 01.57.822c-1.917 1.328-4.259 2.271-6.443 3.149-.6.241-1.187.478-1.751.716a92.494 92.494 0 01-11.428 4.344l-.009.003c-.25.072-.522.17-.836.284-.201.074-.42.153-.661.236-.59.202-1.267.402-1.982.489-1.46.178-3.07-.123-4.468-1.741a.49.49 0 01-.098-.173 1.447 1.447 0 00-.04-.05c-.038-.045-.072-.082-.114-.128-.042-.046-.093-.101-.165-.183a6.51 6.51 0 01-.91-1.341c-.668-1.283-1.35-3.445-1.6-7.292-.467-7.193 1.066-15.097 2.598-21.436.452-1.87.912-3.631 1.319-5.192.278-1.068.532-2.041.743-2.892.263-1.063.461-1.945.57-2.624.053-.339.083-.615.089-.83.005-.227-.017-.34-.032-.381a.5.5 0 01-.032-.203c.02-.409-.166-.848-.445-1.427a86.523 86.523 0 00-.056-.115c-.247-.508-.546-1.124-.598-1.771-.074-.913-.014-1.825.042-2.693l.007-.102c.059-.912.11-1.778.022-2.629-.189-1.864-.776-2.98-1.495-4.103-.117-.183-.239-.368-.363-.557-.647-.982-1.37-2.082-1.94-3.695a4.296 4.296 0 01-.238-.995c-.034-.366-.002-.867.36-1.235a.986.986 0 01.765-.3c.248.011.472.106.646.204.322.181.614.456.77.604l.032.03.003.002c.703.67 1.415 1.665 2.037 2.535.182.255.357.5.52.721.383.516.697.897.945 1.099.045.036.081.061.109.078a.92.92 0 00.086-.269c.034-.184.044-.421.028-.713-.03-.585-.16-1.313-.329-2.124-.07-.332-.146-.679-.224-1.033-.294-1.33-.61-2.763-.656-3.916-.023-.59.011-1.39.22-2.045.104-.327.265-.664.526-.913.28-.266.649-.408 1.084-.359.617.072 1.066.511 1.398 1.01.34.506.627 1.175.895 1.896.196.53.384 1.087.574 1.656.346 1.03.704 2.097 1.15 3.089l.001.001.073.168c.121.282.315.732.551 1.14.147.252.29.45.414.569a.65.65 0 00.075.063.566.566 0 00.078-.117c.071-.135.134-.33.186-.566.074-.333.11-.654.14-.929.014-.131.028-.252.043-.358.16-1.077.268-2.29.37-3.505l.04-.503c.086-1.038.17-2.063.28-2.968.127-1.037.294-1.978.563-2.618.134-.316.32-.63.604-.823zm89.26-2.05c-.005.003-.078.032-.211.209-.152.202-.32.514-.497.931-.351.83-.698 1.972-1.03 3.221-.303 1.141-.589 2.352-.853 3.468l-.071.302c-.281 1.188-.537 2.259-.758 2.964-.396 1.271-.905 2.517-1.637 3.687a.507.507 0 01-.277.216.5.5 0 01-.649-.413l-.001-.001a1.296 1.296 0 010-.22c.007-.102.023-.254.044-.44.021-.194.049-.437.082-.718l.101-.88c.151-1.336.343-3.142.462-4.967.119-1.83.164-3.655.029-5.037-.067-.695-.177-1.242-.327-1.615-.158-.393-.298-.446-.341-.453a.438.438 0 00-.396.125c-.149.133-.309.375-.467.76-.315.771-.546 1.922-.76 3.318-.1.648-.195 1.344-.293 2.067-.319 2.336-.676 4.955-1.345 7.13-.126.41-.288.793-.464 1.1a2.759 2.759 0 01-.287.418 1.244 1.244 0 01-.383.315.71.71 0 01-.622.019.817.817 0 01-.397-.443c-.126-.299-.162-.735-.144-1.275l.003-.036c.23-2.141.253-4.3.066-6.444a29.016 29.016 0 01-.021-.286c-.026-.358-.056-.78-.146-1.168-.057-.245-.13-.428-.21-.545a.362.362 0 00-.103-.107c-.224.082-.344.158-.47.339-.184.263-.387.767-.634 1.835-.254 1.126-.27 2.28-.286 3.495l-.004.299c-.02 1.305-.063 2.674-.475 4.016-.461 1.5-1.14 2.287-1.85 3.009l-.239.241c-.605.607-1.198 1.201-1.75 2.247a8.284 8.284 0 00-.437 3.67.5.5 0 01-.994.107 9.28 9.28 0 01.502-4.15.463.463 0 01.027-.06c.631-1.206 1.331-1.906 1.946-2.523l.232-.233c.651-.662 1.211-1.314 1.607-2.602.366-1.19.411-2.427.431-3.737l.004-.315c.016-1.195.032-2.452.311-3.686v-.002c.249-1.075.485-1.749.789-2.184.339-.485.736-.639 1.115-.763a.5.5 0 01.211-.022c.409.046.699.282.89.559.183.265.291.586.361.885.111.475.148 1.011.173 1.37l.016.224c.192 2.203.17 4.42-.066 6.62a6.18 6.18 0 00-.001.358c.123-.225.244-.515.343-.838.643-2.09.984-4.587 1.3-6.908.101-.74.2-1.462.305-2.148.214-1.39.458-2.65.823-3.544.183-.446.414-.85.727-1.128a1.436 1.436 0 011.221-.366c.582.093.915.584 1.11 1.067.202.504.324 1.163.395 1.891.142 1.466.093 3.356-.028 5.2a99.11 99.11 0 01-.384 4.284c.11-.3.212-.604.308-.912.207-.664.455-1.696.739-2.896l.071-.303c.263-1.114.552-2.338.859-3.494.335-1.257.696-2.457 1.077-3.355.189-.446.394-.844.618-1.142.208-.276.517-.579.938-.605.594-.037 1.076.144 1.393.545.291.367.382.844.402 1.272.02.439-.03.907-.089 1.32-.03.207-.06.387-.086.55-.032.19-.059.358-.078.517-.295 2.413-1.061 5.546-1.675 8.06-.102.419-.201.821-.292 1.2-.015.063-.05.17-.084.274l-.028.087c.175-.139.36-.303.53-.478.864-.89 1.301-1.818 1.675-2.848.096-.267.19-.545.287-.834.271-.807.568-1.69 1.026-2.595.129-.256.489-.906.918-1.377.205-.224.49-.482.829-.573a.92.92 0 01.61.04c.205.088.36.243.475.422.298.462.403 1.02.412 1.573.009.557-.079 1.152-.205 1.723-.202.91-.518 1.82-.746 2.48-.057.163-.108.31-.151.438-2.57 7.71-7.275 11.484-10.787 14.3-.92.738-1.757 1.41-2.453 2.069a3.332 3.332 0 00-.331.415l-.146.199a4.351 4.351 0 01-.315.387l-.077.078.011.13c.016.19.039.456.079.839.104.989.324 2.743.839 5.79.9 5.323 1.622 8.328 2.61 11.172.704 2.026 1.541 3.969 2.681 6.615.468 1.087.988 2.293 1.571 3.673 2.209 5.239 4.15 10.632 3.946 16.33-.124 3.409-2.179 5.853-4.131 8.173l-.25.298c-.127.153-.255.32-.395.503l-.12.156c-.184.239-.386.495-.606.735-.436.473-.993.939-1.719 1.076-1.401.265-3.407.544-5.305.264-1.852-.272-3.671-1.091-4.679-3.033a.5.5 0 01.156-.856l.04-.014a.5.5 0 01.616.257c.793 1.666 2.296 2.404 4.013 2.657 1.727.255 3.598.002 4.973-.257.409-.078.784-.353 1.169-.771.189-.206.369-.433.55-.668l.11-.144c.142-.186.288-.376.43-.547l.183-.217c2.008-2.392 3.854-4.59 3.965-7.648.196-5.46-1.663-10.677-3.868-15.905a479.169 479.169 0 00-1.553-3.631c-1.148-2.665-2.005-4.655-2.722-6.718-1.013-2.918-1.747-5.985-2.651-11.332-.518-3.064-.741-4.84-.848-5.854a42.273 42.273 0 01-.093-1.002l-.008-.08a.501.501 0 01.265-.671s.029-.02.09-.084c.07-.074.15-.175.241-.298l.099-.135c.147-.203.328-.452.492-.607.759-.72 1.645-1.432 2.597-2.198 3.501-2.814 7.916-6.362 10.383-13.762.048-.145.103-.305.163-.477.228-.659.518-1.495.705-2.341.118-.53.189-1.041.182-1.49-.008-.454-.094-.803-.252-1.048a.958.958 0 00-.018-.025 1.2 1.2 0 00-.317.268c-.337.37-.649.923-.765 1.153-.422.837-.685 1.619-.95 2.406-.102.303-.204.606-.315.914-.396 1.092-.893 2.17-1.897 3.203-.434.447-1.016.898-1.423 1.075a.76.76 0 01-.508.05.63.63 0 01-.422-.402.959.959 0 01-.046-.367c.005-.104.021-.209.041-.305.039-.193.1-.394.15-.552l.048-.147.02-.063.023-.071.007-.023a253.47 253.47 0 01.298-1.225c.615-2.52 1.364-5.582 1.65-7.93.02-.163.054-.375.089-.593.027-.167.055-.338.078-.495.057-.397.096-.79.08-1.131-.017-.352-.089-.575-.187-.698-.07-.089-.2-.188-.537-.168z" clip-rule="evenodd"/></svg>