<svg xmlns="http://www.w3.org/2000/svg" fill="none" viewBox="0 0 200 200" height="700" width="700"><path fill="#fff" d="M126.714 172.824c-2.545-.212-64.635-3.614-64.635-3.771C61.848 166.591 44.843 15.7 44.843 15.7c5.5-.733 47.33-2.006 63.019-.923h.077a6.518 6.518 0 00-6.386-4.156c-1.116-.079-12.737-.2-15.159-.154-7.31.154-14.7.462-22.083.693-5.415.123-16.725.267-21.93 1.308-1.215.23-2.402.59-3.539 1.077-3.107 1.32-3.771 4.463-3.925 7.541-.23 5.463.308 7.848.924 13 .687 6.062 5.9 49.578 5.924 49.784 3.626 27.393 8.749 81.9 10.311 95.875.857 0-.126 11.608 5.156 14.543 5.092 2.767 60.9-10.577 66.028-11.833a3.678 3.678 0 002.454-2.556 20.242 20.242 0 001-7.075z"/><path fill="#def6f8" d="M126.714 172.824c-3.639-43.362-16.2-152.633-18.852-158.047-15.689-1.082-57.521.19-63.019.923.012.1 17.236 152.9 17.236 153.43l64.635 3.694z"/><path fill="#0e2238" d="M86.78 170.861s-24.506-1.3-24.728-1.309a.503.503 0 01-.472-.528.498.498 0 01.527-.472c.222.013 22.259 1.232 24.688 1.307a.499.499 0 01.493.508.5.5 0 01-.508.494z"/><path fill="#00bac7" d="M135.409 133.119c-.385-2.231-.846-4.539-1.231-6.848-.308-1.847.23-3.693 0-5.54-.154-1-1-1.539-1.308-2.385a6.416 6.416 0 01-.154-2.77c.374-1.847.503-3.736.384-5.617-3.308 2.231-7.617 3-11.464 3.154-4.311.24-4.854-.416-16.408-1-1.626 7.258-1.125 4.687-3.137 11.93-1.017 3.813-2.669 6.1-2.924 11.7-.123 1.965-.8 4.242 1.155 5.078 2.7 1.127 8.74 1.853 11.926 2.308 1.539.231 3.463.693 5 .308a3.137 3.137 0 001.852-2.237c4.867-.129 10.128-1.619 14.774-3.309 2.497-.501 2.114-2.455 1.535-4.772z"/><path fill="#fff" d="M130.515 65.654l-2.8-7.711a13.214 13.214 0 00-8.1-.6 20.076 20.076 0 00-9.564 4.814 9.984 9.984 0 00-2.995 7.292c.12 1.786.343 3.564.666 5.325-3.888 5.589-4.391 6.313-5.779 6.989a3.233 3.233 0 00-1.876 2.48c-.151.969-.756 1.514-2.088 2.119a41.256 41.256 0 00-4.67 2.244 1.872 1.872 0 00-.774 2.474 9.545 9.545 0 001.794 3.343c.755.642 2.531.887 4.551.566a23.622 23.622 0 008.308-3.438l.128 1.22a19.764 19.764 0 01-2.623 5.4c-2.141 3.347-3.558 6.601-2.473 8.775 1.085 2.174 2.413 2.442 2.413 2.442a4.496 4.496 0 00.392 3.075 4.852 4.852 0 004.613 3.136 8.757 8.757 0 004.673-.965 1.71 1.71 0 00.844-1.93c2.58.471 5.211.594 7.824.368 5.007-.3 10.006-2.44 10.426-3.618.42-1.178-2.89-43.8-2.89-43.8z"/><path fill="#00bac7" d="M148.531 93.482c-.1-3.923-2.792-5.728-3.3-6.45-.508-.724.481-.987.891-2.023.41-1.036-.843-3.393-1.18-4.067-.337-.674-.664-1.934-1.454-3.968a34.672 34.672 0 00-5.528-8.992 8.474 8.474 0 00-3.94-2.137 36.182 36.182 0 00-.62-2.424c-.512-1.718-3.068-6.156-5.972-5.992l2.982 8.366-5.17.67c-2.8-4.075-7.182-7.347-12.126-6.75a13.435 13.435 0 00-4.023 3.536s1.481-.32 6.887 1.2a14.49 14.49 0 017.628 5.42c-1.529 2.376-1.414 8.7-1.334 12.071.085 3.624.17 9.338-1.791 14.327-1.961 4.989-.9 9.21 3.411 11.427a21.17 21.17 0 0012.818 1.649 15.128 15.128 0 008.352-5.319 19.899 19.899 0 003.469-10.544zm16.969-71.32c.624 2.537-.69 2.394-4 3.463-1.923.62-5.085 1.867-7.079 1.308-1.853-.519-2.771-2.462-4.848-2.232-1.385.154-2.77 1.385-3.847 2.31-3.276 2.456-4.767.38-2.77-1.617a18.137 18.137 0 015.463-3.616c3.539-1.155 4.938 3.215 8.387 2.385 5.899-1.42 8.255-3.764 8.694-2zm-9.777-16.696c1.981 1.943.743 2.593-1.847 5.54-1.477 1.68-3.77 4.62-6 5.309-2 .618-4.072-.685-5.848.77-1.843 1.51-2.265 4.893-3.34 6.349-.963 1.3-3.511.815-2.585-1.963.154-.616.4-1.15.616-1.77a14.622 14.622 0 012.539-4.694c2.674-3.17 6.6.06 9.388-2.616a37.34 37.34 0 004.616-5.386c.538-.766 1.528-2.453 2.461-1.54z"/><path fill="#def6f8" d="M143.8 86.875c.433.865-.343 1.23-.693 1.462-.538.231-2.154.846-2.693.385a4.741 4.741 0 01-.551-1.774.518.518 0 01.4-.612c1.35-.28 2.702-.568 3.537.54z"/><path fill="#0e2238" d="M142.526 85.61a6.16 6.16 0 00-2.144.189c-.71.255-1.166.514-1.012 1.253.3 1.437.4 2.334 1.651 2.334a6.831 6.831 0 002.462-.7c1.765-1.107.808-2.821-.957-3.075zm.425 2.23a4.62 4.62 0 01-2.187.528 5.923 5.923 0 01-.4-1.543c1.071-.228 2.326-.543 3.007.314.129.285.05.406-.42.702z"/><path fill="#def6f8" d="M160.262 43.477l2.155 2.77-3.309-1-1.923 2.923-.154-3.54-3.309-1 3.232-1.154-.077-3.54 2.077 2.847 3.232-1.23-1.924 2.924z"/><path fill="#0e2238" d="M149.259 173.438c.924 1.616 1.842 3.234 2.616 4.925.459 1 1.145 2.228.77 3.462-.631 2.073-4.154 1.626-5.771 1.77-2.769.247-5.541-.019-8.31.077-1.848.064-4.165.487-5.925-.154-1.625-.592-1.842-2.921-1.077-4.309.929-1.689 3.313-2.605 4.924-3.309 1.36-.613 2.82-.978 4.309-1.077 2.72 4.952 7.395.656 8.464-1.385z"/><path fill="#def6f8" d="M145.412 40.323l2.385 3.23-3.77-1.153-2.232 3.309-.154-4.001-3.847-1.155 3.771-1.385-.154-4.078 2.462 3.232 3.77-1.385-2.231 3.386z"/><path fill="#0e2238" d="M104.63 171.285c0 1.233.924 1.7.924 6.771a2.737 2.737 0 01-.847 2.231 4.886 4.886 0 01-4.616.308 29.501 29.501 0 00-2.924-1.693 21.3 21.3 0 00-2.463-.615c-3.242-.642-8.855-2.233-8.156-6.464a9.22 9.22 0 01.385-1.385c.077-.077.077-.231.154-.307.923-1.847 2.775-.712 4.155-.308a8.882 8.882 0 006.079-.385 4.605 4.605 0 001.308 1.77c3.102 2.659 5.517.221 6.001.077z"/><path fill="#00bac7" d="M140.641 174.824a6.896 6.896 0 001.231-.154 11.555 11.555 0 01-.154-1.692c-.418-1.672-2.674-5.952-4.386-9.7a10.718 10.718 0 006.926-2.693c.387 0 1.546 7.567 4.847 12.85.345.88-5.305 6.965-8.464 1.389zm-39.55-14.625a11.53 11.53 0 005.925.616c0 .259-.525 2.022-.77 3a39.342 39.342 0 00-1.539 6.617v.847c-.435.134-2.843 2.5-5.924-.154a4.356 4.356 0 01-1.309-1.77 2.56 2.56 0 00.77-.462c.077-3.385.308-6.771.539-10.08a6.045 6.045 0 002.308 1.386z"/><path fill="#fff" d="M139.949 147.277c2 4.233 4.309 13.311 4.309 13.311a10.082 10.082 0 01-6.926 2.693 78.175 78.175 0 00-5.847-11.388c-2.236-3.437-8.234-10.384-8.234-10.772l-.077-.308c3.663-.792 9.99-2.772 10.619-3 1.093 3.276 4.907 6.823 6.156 9.464z"/><path fill="#0e2238" fill-rule="evenodd" d="M133.635 137.339a.5.5 0 01.632.316c.516 1.547 1.69 3.19 2.942 4.825.18.235.363.47.544.705 1.051 1.358 2.09 2.7 2.648 3.879 1.018 2.155 2.105 5.517 2.932 8.315.415 1.404.767 2.675 1.016 3.595.124.46.222.832.29 1.09l.077.297.02.077.006.027-.484.124-.485.123-.006-.026-.02-.076c-.017-.067-.042-.166-.076-.293a162.105 162.105 0 00-1.297-4.655c-.828-2.799-1.895-6.093-2.877-8.171-.507-1.071-1.463-2.308-2.521-3.676-.184-.239-.372-.481-.56-.727-1.24-1.619-2.52-3.387-3.097-5.116a.5.5 0 01.316-.633zm10.746 23.734a.5.5 0 01-.608-.361l.485-.123.484-.124a.5.5 0 01-.361.608z" clip-rule="evenodd"/><path fill="#fff" d="M122.867 53.788c-.112-.447-.077-.31-.077-7.355l-11-3.186a3.352 3.352 0 01-3.154 1.385c-.5 1.006-.531 1.064-1.231 2.54a7.03 7.03 0 00-.308 5.077c.384 1.308 1 3.617 2.385 4.31 1.077.538 2.539-.463 3.54.076.615.385.846 1.385 1.077 2l.308.538a15.819 15.819 0 013.154-1.23c2.506-.627 3.256-1.154 6-1v-.232a17.992 17.992 0 01-.694-2.923zm-8.695 74.021c-.282 1.4-1.88 1.143-3.232.693-.3.5-2.968.2-4.463-2.463-.615-1.615.077-3.77.385-5.386.012-.1.513-2.977.538-3.078a9.676 9.676 0 005.31-.384l.154.307c.769 1.078.661 2.708 1.231 3.925.292.623.923 1.385.769 2.077-.154.692-1.539.231-1.616 1.077.077 1.078 1.17 2.004.924 3.232zm-13.928 12.927a39.363 39.363 0 008.772 1.847c-.292 1.463.608 3.383 0 8.849a97.207 97.207 0 01-2.077 9.387 11.53 11.53 0 01-5.925-.616 6.627 6.627 0 01-2.462-1.462c.231-2.77.467-5.539.769-8.31.521-4.774.466-8.78.923-9.695z"/><path fill="#0e2238" fill-rule="evenodd" d="M108.48 143.85c-.035-.484-.041-.932.046-1.365l.98.196c-.059.299-.062.64-.029 1.098.018.249.043.503.072.788.026.264.055.556.084.898.115 1.373.188 3.252-.12 6.022a97.69 97.69 0 01-2.092 9.465l-.964-.265a96.804 96.804 0 002.064-9.324c.298-2.688.225-4.498.115-5.815a57.541 57.541 0 00-.08-.859 28.245 28.245 0 01-.076-.839z" clip-rule="evenodd"/><path fill="#fff" d="M85.779 81.95c-.068-2.708 1.33-2.559 1.692-.385a23.534 23.534 0 001.078 4c.763 1.526 1.539 1.681 1.539-.308.076-1.27.256-2.53.538-3.77.086-.383.385-1.155.847-1.155 1.145-.163.529 4.915 1.231 5.618.154.153.461-.77.461-.847.254-.844 1.059-2.933 1.847-2.539.462.231.462 1.077.462 1.462a17.129 17.129 0 01-1 4.31 3.7 3.7 0 00-1.847 1.384 2.462 2.462 0 00.231 2.077 6.842 6.842 0 001.542 2.848l-.308.154c-2.462 1.616-7.083 1.1-8.464.847-.772-.142-2.77-.616-2.616-1.77.323-1.727 4.452-.294 4.309-1.077-.085-.46-1.083-.994-1.385-1.23a11.452 11.452 0 01-3.155-3.926c-.231-.538-.616-1.385-.154-1.923.308-.308.769-.077 1.077.154a25.16 25.16 0 011.847 2.077c.231.231.769.693 1.077.385.559-1.124-.754-2.56-.849-6.387z"/><path fill="#0e2238" fill-rule="evenodd" d="M86.44 80.723c-.086.178-.166.517-.163 1.067 0 .24.104.688.279 1.315.054.195.115.404.178.622.127.443.265.921.384 1.386.178.695.327 1.414.348 2.028.02.575-.066 1.26-.589 1.638-.334.243-.701.161-.922.07a2.214 2.214 0 01-.572-.371c-.405-.35-.756-.76-1.079-1.15l-.144-.175c-.266-.323-.515-.626-.784-.9a1.068 1.068 0 00-.332-.173.226.226 0 00-.058-.008c-.072.101-.101.257-.051.514.053.272.174.554.291.827l.01.022a10.951 10.951 0 003.01 3.741c.054.042.148.104.291.198l.006.005c.137.09.303.2.464.32.16.117.33.255.47.406.132.142.288.347.336.604a.659.659 0 01-.1.494.726.726 0 01-.34.262c-.193.076-.426.089-.616.09-.236.002-.546-.018-.861-.038a21.375 21.375 0 00-.576-.033c-.523-.022-.995-.01-1.343.087-.323.09-.436.219-.47.384-.013.118.02.223.121.341.115.135.306.27.563.395.514.25 1.153.395 1.527.464 2.734.5 5.411.381 7.886-.69a7.343 7.343 0 01-1.211-2.471 2.961 2.961 0 01-.24-2.434.503.503 0 01.064-.126 4.2 4.2 0 011.867-1.487c.456-1.273.755-2.599.89-3.945 0-.194-.003-.443-.048-.666-.041-.206-.097-.286-.124-.313a.403.403 0 00-.061.042c-.118.095-.263.282-.419.553-.296.518-.543 1.187-.668 1.595l-.003.015v.002c-.005.023-.01.047-.017.068a4.442 4.442 0 01-.183.514 1.919 1.919 0 01-.212.385.71.71 0 01-.26.218.558.558 0 01-.627-.11l-.002-.001c-.188-.189-.281-.459-.338-.68a5.81 5.81 0 01-.133-.82 29.3 29.3 0 01-.095-1.424l-.029-.535c-.038-.673-.09-1.27-.19-1.683a1.526 1.526 0 00-.103-.304.784.784 0 00-.124.164 2.16 2.16 0 00-.224.575v.002a22.686 22.686 0 00-.526 3.674c-.001.512-.05.935-.161 1.252-.106.3-.336.674-.79.703-.388.026-.698-.233-.896-.45-.222-.246-.438-.586-.64-.989a.511.511 0 01-.022-.052 24.097 24.097 0 01-1.07-3.921c-.085-.458-.22-.785-.354-.987a.712.712 0 00-.167-.19.568.568 0 00-.048.084zm1.05-.445c.226.343.4.806.502 1.357a23.09 23.09 0 001.017 3.732c.175.346.338.59.472.737l.022.024c.048-.172.085-.453.085-.87v-.03a23.83 23.83 0 01.55-3.852c.052-.229.164-.569.34-.865.151-.254.46-.66.96-.678.35-.036.618.14.787.364.156.206.248.473.31.726.127.516.18 1.202.219 1.865l.03.567c.02.39.04.765.068 1.107.149-.413.357-.912.602-1.34.176-.308.396-.623.659-.835.273-.22.683-.39 1.123-.17.452.226.607.707.67 1.023.068.337.068.686.068.876v.01c0 .017 0 .033-.002.05a17.632 17.632 0 01-1.03 4.434.5.5 0 01-.308.3 3.201 3.201 0 00-1.555 1.138 1.963 1.963 0 00.206 1.589.5.5 0 01.056.133 6.342 6.342 0 001.43 2.64.5.5 0 01-.147.783c-2.875 1.437-5.988 1.613-9.086 1.045-.397-.073-1.144-.236-1.784-.547-.319-.156-.647-.364-.888-.647a1.422 1.422 0 01-.346-1.16c.13-.691.657-1.027 1.187-1.176.512-.144 1.124-.146 1.655-.124.244.01.464.025.664.039.162.01.311.02.45.026a9.458 9.458 0 00-.514-.357 5.426 5.426 0 01-.335-.23l-.002-.002a11.953 11.953 0 01-3.303-4.12 20.558 20.558 0 01-.024-.053c-.11-.255-.27-.628-.345-1.01-.08-.411-.081-.945.295-1.382a.52.52 0 01.025-.028c.317-.316.71-.333 1.014-.257a2.09 2.09 0 01.772.412c.314.317.605.67.878 1.001l.138.167c.32.388.625.74.962 1.03.109.095.216.169.298.204.072-.094.146-.306.131-.75-.016-.5-.143-1.132-.317-1.813-.115-.451-.245-.9-.37-1.335-.064-.222-.127-.44-.186-.652-.165-.59-.315-1.177-.316-1.58-.003-.624.084-1.135.262-1.505.179-.372.511-.699.988-.668.424.028.749.334.963.657z" clip-rule="evenodd"/><path fill="#00bac7" d="M69.7 14.776c4-.077 7.925-.23 11.311-.23-.283.73-.644 1.426-1.077 2.077a5.277 5.277 0 01-7.079 2.309c-1.137-.576-2.262-1.632-3.155-4.156zm-8.159 82.178c.463 3.512-2.311 3.788-3 .77-.257-1.124-1.614-12.456-1.616-12.466-.661-2.837 2.519-2.767 2.77-1.23.214 1.31.671 4.85.846 6.155.342 2.545.665 4.235 1 6.771zm45.706 18.16c2.284 1.192 5.988-.077 6.386-.077.1.411.077.083.077 1.693l-.231.231a4.586 4.586 0 01-.615.308 9.223 9.223 0 01-5.31.384c-.747 0-.525-1.244-.615-1.693 0-.476-.077-.286-.077-.615l.154-.231h.231z"/><path fill="#0e2238" d="M117.224 99.378a.495.495 0 01-.346-.164.5.5 0 01-.128-.361c.249-6.69.893-13.36 1.928-19.974.013-.192.044-.382.091-.568a.55.55 0 01.435-.656.554.554 0 01.287.019c.559.235.182.91.182 1.275a170.823 170.823 0 00-1.924 19.951.503.503 0 01-.525.478zm22.44-10.854a.499.499 0 00-.606-.364c-1.585.4-3.35.876-4.33-.436-1.383-1.8-.639-5.409-3.626-12.5a13.619 13.619 0 00-2.8-4.4c-.354-.35-.729-.678-1.125-.98a1.863 1.863 0 00-.621-.42.502.502 0 00-.685.216.512.512 0 00-.024.389.498.498 0 00.262.288c.383.191.25.153.38.256.385.292.75.608 1.094.947a12.627 12.627 0 012.6 4.084 39.654 39.654 0 012.628 9.58 8.314 8.314 0 00.942 2.951c.218 1.992.266 4 .144 6-1.018.223-8.389.717-11.978-1.675a.499.499 0 00-.768.514.5.5 0 00.213.318c2.438 1.625 6.409 2.046 9.341 2.046 1.055.01 2.109-.054 3.154-.194a52.789 52.789 0 01-1.537 11.663.492.492 0 00.034.381.488.488 0 00.293.246.492.492 0 00.381-.033.502.502 0 00.246-.294c1.442-4.6 1.851-14.17 1.6-17.94 1.286.75 3 .321 4.427-.038a.498.498 0 00.361-.605z"/><path fill="#0e2238" d="M120.756 95.562a.497.497 0 01-.168-.68.502.502 0 01.678-.18 17.62 17.62 0 009.114 1.854.5.5 0 11.036 1c-3.172.112-6.95-.386-9.66-1.994zm-11.267 29.276a.502.502 0 01-.373-.716.494.494 0 01.215-.221 1.68 1.68 0 01.258-.1 4.994 4.994 0 001.894-2.269.498.498 0 01.66-.253.498.498 0 01.254.66 5.636 5.636 0 01-2.491 2.81.545.545 0 01-.417.089zm3.528 3.472a.5.5 0 01-.3-.1 7.528 7.528 0 01-2.077-3.278.499.499 0 01.643-.645c.12.045.219.135.275.251a6.845 6.845 0 001.769 2.879.504.504 0 01-.02.801.5.5 0 01-.29.092zm36.383 44.756a.501.501 0 00-.667.233c-1.43 2.971-4.7 4.358-6.524 2.8a4.49 4.49 0 01-.042-1.861 4.307 4.307 0 00-.609-3.161c-.618-1.354-4.274-9.089-4.379-9.3a74.178 74.178 0 00-5.271-10.154c-1.976-3.105-4.656-5.9-8.187-10.634a.505.505 0 00-.221-.261.5.5 0 00-.748.434c0 .283.022.226 1.009 1.553 2.227 3 5.366 6.4 7.3 9.439a73.352 73.352 0 015.209 10.046c.027.054 3.939 8.332 4.4 9.335.744 1.3.568 1.775.458 3.081a.498.498 0 00-.409-.213.545.545 0 00-.306.121.547.547 0 00-.179.603.56.56 0 00.191.268c2.024 4.048 7.229 2.451 9.209-1.66a.5.5 0 00-.234-.669z"/><path fill="#0e2238" d="M130.884 65.409c-.555-1.747-1.173-3.744-1.855-5.41a14.337 14.337 0 00-1.269-2.718.56.56 0 00-.749-.008 11.805 11.805 0 00-3.078-.715 15.387 15.387 0 01-.72-3.54v-.385a.503.503 0 00-.5-.5.5.5 0 00-.5.5c.038 1.314.258 2.616.654 3.868a21.832 21.832 0 00-8.19 1.9c-.067-.164-.115-.316-.166-.47-.6-1.844-1.15-2.365-3.239-1.98a2.535 2.535 0 01-1.483.014c-1.138-.6-1.8-2.909-2.145-4.026a7.138 7.138 0 01.3-4.743c.38-.95 1.186-2.33 1.186-2.561-.035-.1.078-.654-.5-.654a.5.5 0 00-.5.5c-.7 1.431-.863 1.715-1.114 2.341a8.182 8.182 0 00-.328 5.416c.416 1.325 1.121 3.812 2.641 4.617.679.26 1.425.288 2.122.08 1.479-.274 1.632-.145 2.107 1.306.065.213.141.422.229.626a13.586 13.586 0 00-6.538 6.494c-1.3 2.917-.539 6.03-.148 8.883-.9 1.356-2.326 4.314-4.651 6.642-.685.609-1.787.984-2.311 1.86-.719 1.038-.541 2.083-1.388 2.628-3.863 2.362-5.273 1.946-6.68 3.82a2.832 2.832 0 00.169 2.58 7.322 7.322 0 001.689 3.034 3.1 3.1 0 001.557.722c3.6.457 8.25-1.177 11.255-3.144.256 4.291.689 4.537-1.159 10.31-1.045 3.262-2.127 6.747-1.027 10.013a2.698 2.698 0 00-.143.645.545.545 0 00-.041.115c-.439 1.985-2.755 9.979-2.841 10.29-.6 2.258-1.615 4.453-2.235 6.785a37.505 37.505 0 00-.8 5.965c-.2 1.7-.332 3.421 1.1 4.371a10.193 10.193 0 00-.239 2.105c-.152 2.754-.239 4.719-.536 7.394-.573 5.168-1.2 13.3-1.316 18.717a.51.51 0 00-.45.222.499.499 0 00-.031.5c.306.688.77 1.295 1.353 1.771 1.858 1.593 4.548 1.915 6.338.162a.5.5 0 00.312-.408c.5-4.425 1.657-7.058 2.4-10.255a.492.492 0 00-.063-.377.504.504 0 00-.69-.159.51.51 0 00-.222.311c-.746 3.233-1.849 5.7-2.385 10.129l-.02.018c-1.455 1.456-3.624 1.012-5.05-.207a2.492 2.492 0 01-.506-.5c.092-10.886 1.561-19.718 1.79-26.2.03-.93.123-1.858.278-2.777 3.052 1.168 8.578 1.634 12.37 2.274 1.447.347 2.949.398 4.416.148a3.152 3.152 0 001.969-2.093c.42-1.013.787-2.048 1.1-3.1 1.385-4.457.168.662 3.2-10.821 1.579-5.974 2.411-5.66 4.9-7.191a.498.498 0 00-.153-.9.5.5 0 00-.371.049c-2.642 1.626-3.675 1.471-5.348 7.8-3.071 11.617-1.826 6.383-3.188 10.768a22.521 22.521 0 01-.987 2.823c-.873 2.617-2.286 1.867-9.394.93a41.315 41.315 0 01-8.632-1.809c-1.322-.567-1.127-2.12-.954-3.577.105-1.963.365-3.915.778-5.838.6-2.262 1.612-4.449 2.23-6.766.919-3.306 1.553-5.17 2.771-9.991a6 6 0 001.107 1.133.479.479 0 00-.012.106c0 1.467.168 2.254.566 2.575 0 0-.467 2.6-.48 2.718-.33 1.736-1.125 3.877-.33 5.724a5.684 5.684 0 003.29 2.742c1.135.567 2.2.084 2.179-.673.184-1.1-.891-1.857-1.6-2.356-.1-.073-.2-.14-.23-.157-.055-.055-.48-.4-.495-.42a.504.504 0 00-.632-.316.503.503 0 00-.317.632c.282.847 2.414 1.584 2.309 2.5-.29.064-.593.014-.847-.14a4.756 4.756 0 01-2.76-2.257c-.736-1.72.393-4.012.881-7.712a9.402 9.402 0 005.863-.831.496.496 0 00.2-.265c.23-.195.177-.309.177-1.688a2.084 2.084 0 001.5-2.8c-.711-1.777.736-5.448 1.551-9.188.104-.275.164-.565.178-.86a.495.495 0 00-.484-.492.546.546 0 00-.515.476c-.017.151-.043.3-.08.446-.077.124-.334 1.317-.866 3.328-.438 1.654-1.421 5.012-.738 6.576.086.269.1.555.043.83a1.516 1.516 0 01-1.169.8 1.118 1.118 0 00-.384.077.698.698 0 00-.111.012c-4.769 1.086-5.362.028-5.852-.01a4.757 4.757 0 01-1.646-1.978c-1.092-3.059-.026-6.44.973-9.563 1.223-3.819 1.755-5.791 1.283-9.806-.976-8.3 1.078-11.964.387-18.137-.446-4.6-1.774-7.5 1.23-11.426a6.364 6.364 0 011.4-.03 14.33 14.33 0 015.831 1.5 18.02 18.02 0 016.505 5.007.5.5 0 10.783-.62 19.778 19.778 0 00-9.313-6.243 14.458 14.458 0 00-4.315-.64 13.917 13.917 0 013.105-2.413c4.377-.628 8.834 2.974 11.417 6.588a.5.5 0 00.813-.58c-3.3-4.617-7.546-6.808-10.23-7.041a21.672 21.672 0 014.09-1.262 11.685 11.685 0 017.774.55c.146.245.685 1.6.806 1.922.673 1.647 1.286 3.628 1.833 5.349a.5.5 0 00.951-.31zm-17.751 50.148v.955a1.727 1.727 0 01-.436.207 9.051 9.051 0 01-5.144.318 3.908 3.908 0 01-.185-1.363c1.753.688 3.932.295 5.765-.117zm-6.489-24.316c-2.79 1.981-7.476 3.75-11.022 3.294a2.069 2.069 0 01-1.009-.456 7.2 7.2 0 01-1.485-2.78 1.972 1.972 0 01-.2-1.579 3.482 3.482 0 011.704-1.22.965.965 0 00.245-.112 29.431 29.431 0 004.407-2.174 2.958 2.958 0 001.216-1.835 2.891 2.891 0 011.65-2.067 6.94 6.94 0 00.987-.7 26.73 26.73 0 004.15-5.744c.434 4.422-1.113 9.118-.643 15.374z"/><path fill="#0e2238" d="M118.991 74.7a29.036 29.036 0 00-4.968-6.883 18.25 18.25 0 012.863-1.978.503.503 0 00.272-.505.506.506 0 00-.382-.428.5.5 0 00-.39.07 18.722 18.722 0 00-3.106 2.17c-.182-.152-.38-.3-.58-.45a7.5 7.5 0 00-3.866-1.543.5.5 0 00-.242.97 7.049 7.049 0 013.522 1.383c2.648 1.987 4.345 4.793 6.015 7.692a.507.507 0 00.304.236.497.497 0 00.614-.355.496.496 0 00-.052-.38h-.004zM56.989 194.729c-4.9-2.725-4.284-10.79-5.395-14.848-.788-6.993-11.509-105.764-12.16-111.48-4.671-40.97-5.319-40.27-5.016-47.34.141-2.894.748-6.413 4.218-7.976a.5.5 0 11.411.912c-2.958 1.332-3.495 4.341-3.63 7.11-.29 6.757.387 6.894 3.614 35.622l-.074.008c.257.9.561 3.573 1.471 11.55 3.335 29.271 2.559 18.14 7.084 62.02.551 5.346 4.289 42.473 5.062 49.382 1.109 3.977.5 11.718 4.9 14.162a.51.51 0 01.24.3.506.506 0 01-.17.531.5.5 0 01-.555.047zM111.324 34.59a.498.498 0 01-.492-.414c-1.357-7.775-1.684-14.986-3.3-18.767-14.265-.953-46.077-.1-59.271.636-6.761.455-6.871 1.155-7.25 1.224a.5.5 0 01-.312-.941c.9-.581 3.42-1.01 7.5-1.281 13.315-.74 45.547-1.6 59.7-.616a.498.498 0 01.418.288c1.831 3.937 2.072 11.1 3.5 19.285a.493.493 0 01-.11.408.502.502 0 01-.383.178zM86.548 187.944a.505.505 0 01-.498-.436.5.5 0 01.37-.548c2.653-.7 5.419-1.008 8.03-1.545 9.129-1.88 26.785-5.942 26.885-5.96.686-.347 1.324.971-.078 1.023-2.686.836-34.609 7.466-34.709 7.466zm-21.009 3.608c-2.016 0-4.1-.442-5.338-2.293-.614-.965-1.572-6.158-1.841-7.32a.502.502 0 01.753-.537.503.503 0 01.222.312c.2.891 1.237 6.266 1.7 7 1.537 2.3 4.907 1.908 7.368 1.618 4.538-.576 9.277-1.461 14.516-2.381a.496.496 0 01.572.408.499.499 0 01-.4.577c-3.61.637-14.175 2.616-17.552 2.616z"/><path fill="#0e2238" d="M57.77 176.324a.501.501 0 01-.5-.442c-.467-3.98-1.253-9.332-2.085-15-3.9-26.53-4.581-42.631-11.688-97.336a.502.502 0 01.628-.564.5.5 0 01.363.435C47.514 86.675 57.8 171.771 58.267 175.766a.504.504 0 01-.123.391.495.495 0 01-.374.167zM44.3 55.673a.5.5 0 01-.5-.435c-1.06-8.071-2.265-20.037-2.773-26.495a.502.502 0 111-.078c.507 6.445 1.71 18.387 2.768 26.443a.501.501 0 01-.495.565zm17.779 130.5a.498.498 0 01-.394-.809.503.503 0 01.315-.185c3.636-.606 30.181-5.684 35.247-6.464a.499.499 0 01.56.419.5.5 0 01-.407.569c-8.624 1.327-34.312 6.47-35.321 6.47zm61.281-11.736a.499.499 0 00-.573-.414c-3.419.547-15.012 3-16.788 3.456-.808.21-.428 1.113.3.951 2.114-.472 13.176-2.865 16.647-3.42a.499.499 0 00.414-.573zm3.757-1.55c.22-.785-1.082-13.04-1.226-14.49-.564-5.686-.935-9.443-1.893-16.941a.488.488 0 00-.19-.332.496.496 0 00-.554-.038.503.503 0 00-.235.302.514.514 0 00-.013.195c.921 7.2 3.095 27.978 3.129 30.623-.87-.063-20.62-.957-21.153-1.022a.498.498 0 00-.616.554.499.499 0 00.143.286c.312.31 1.949.695 22.125 1.223a.491.491 0 00.483-.36zm-68.99-75.06c-.332-1.5-.757-6.174-1-7.391-.079-.313-.543-4.7-.615-5.076-.75-3.487 3.387-3.624 3.827-1.43.154.87 1.764 12.863 1.776 12.965.3 2.11-.539 3.232-1.507 3.4-1.282.23-2.189-1.084-2.481-2.468zm-.637-12.67c.034.163 1.339 11.219 1.615 12.459.522 2.484 2.415 2.19 2.017-.59-.012-.1-1.543-11.648-1.766-12.911-.176-.874-2.325-1.161-1.866 1.042zM106.554 44.4c-.615-.616.219-1.381 0-2-.325-.917-3.155-1-1.77-2.693a4.173 4.173 0 012.232-1.154c.308-.077 1.077 0 1.231-.308.154-.231-.539-1-.616-1.154a1.976 1.976 0 01.462-2.693c1.218-.921 2.87.877 3.463-.308.615-.77.461-2.31 1.846-2.616a2.32 2.32 0 012.155 1.154c.077.154.461.923.692.923.385-.077.77-1 1-1.231a4.575 4.575 0 012.539-1.54 2.522 2.522 0 012.462 1.77c.072.233.154 1.386.462 1.463.461.077 1.153-.541 1.539-.693 1.382-.545 2.924-1 4.232-.153 1.231.692 1.385 2.077 1.154 3.385-.077.308-.616 1.23-.385 1.462.231.23 1 .159 1.308.23 3.286.764 3.7 2.972 1.308 4.849-.3.237-1 .538-1.077.923-.147.733 1.831 1.42 1.616 4a2.777 2.777 0 01-2.616 2.155c-.385 0-1.236-.236-1.539.077-1.174 1.212-.231 3.616-2.385 4.385a2.377 2.377 0 01-2.54-1.308c-.154-.154-.355-1-.538-1-.231-.077-.77 1.077-.924 1.23a5.071 5.071 0 01-2.77 1.925 1.93 1.93 0 01-2.231-1.616c0-.7.156-1.383 0-1.54-.77-.461-1.865.869-2.924-.076-1.1-.98-.462-3 .154-4.078.154-.308.769-.846.769-1.154 0-.154-.615-.308-.769-.308a3.025 3.025 0 01-1.539-1.385 18.048 18.048 0 01-.539-1.924c-1.401 2.027-5.287 1.247-5.462 1z"/></svg>